<?xml version="1.0" standalone="no"?>
<!DOCTYPE svg PUBLIC "-//W3C//DTD SVG 1.1//EN" "http://www.w3.org/Graphics/SVG/1.1/DTD/svg11.dtd" >
<svg>
<metadata>
Created by FontForge 20090914 at Thu May 23 09:43:36 2019
 By www-data
Font data copyright Google 2013
</metadata>
<defs>
<font id="RobotoSlab-Regular" horiz-adv-x="1500" >
  <font-face 
    font-family="Roboto Slab"
    font-weight="400"
    font-stretch="normal"
    units-per-em="2048"
    panose-1="0 0 0 0 0 0 0 0 0 0"
    ascent="1638"
    descent="-410"
    x-height="1082"
    cap-height="1456"
    bbox="-890 -616.003 2562 2146"
    underline-thickness="100"
    underline-position="-100"
    unicode-range="U+0002-U+FFFD"
  />
<missing-glyph horiz-adv-x="509" 
 />
    <glyph glyph-name="fi" unicode="fi" horiz-adv-x="1239" 
d="M45 936v146h169v117c0 121.333 35.667 215.333 107 282s170 100 296 100c44 0 88 -5.33301 132 -16s94.667 -25.667 152 -45l-33 -160c-35.333 14 -73 26 -113 36s-81 15 -123 15c-78.667 0 -135.167 -17.333 -169.5 -52s-51.5 -88 -51.5 -160v-117h617v-928l163 -28
v-126h-523v126l163 28v782h-420v-782l163 -28v-126h-523v126l163 28v782h-169z" />
    <glyph glyph-name="uniFB02" unicode="fl" horiz-adv-x="1350" 
d="M751 126l163.001 28v1226c-38.667 9.33301 -78.334 16.833 -119.001 22.5s-81.667 8.5 -123 8.5c-92 0 -158.5 -20.667 -199.5 -62s-61.5 -104.333 -61.5 -189v-78h251v-146h-251v-782l163 -28v-126h-523v126l163 28v782h-144v146h144v78c0 134 39.167 237.667 117.5 311
s186.833 110 325.5 110c57.333 0 114 -5.33301 170 -16s121 -26 195 -46h89v-1365l163 -28v-126h-523v126z" />
    <glyph glyph-name=".notdef" horiz-adv-x="509" 
 />
    <glyph glyph-name="uni0009" horiz-adv-x="0" 
 />
    <glyph glyph-name="uni0009" horiz-adv-x="0" 
 />
    <glyph glyph-name="uni0002" horiz-adv-x="0" 
 />
    <glyph glyph-name="nonmarkingreturn" unicode="&#xd;" horiz-adv-x="509" 
 />
    <glyph glyph-name="space" unicode=" " horiz-adv-x="509" 
 />
    <glyph glyph-name="exclam" unicode="!" horiz-adv-x="483" 
d="M340 478h-197v978h197v-978zM340 0h-197v204h197v-204z" />
    <glyph glyph-name="quotedbl" unicode="&#x22;" horiz-adv-x="765" 
d="M324 1290l-61 -250h-97v520h158v-270zM632 1290l-61 -250h-97v520h158v-270z" />
    <glyph glyph-name="numbersign" unicode="#" horiz-adv-x="1246" 
d="M705 410h-256l-80 -410h-151l80 410h-235v140h263l68 348h-255v142h283l82 416h151l-82 -416h255l82 416h151l-82 -416h200v-142h-227l-68 -348h220v-140h-248l-80 -410h-151zM477 550h256l68 348h-256z" />
    <glyph glyph-name="dollar" unicode="$" horiz-adv-x="1110" 
d="M815 376c0 60 -21.166 111.169 -63.499 153.502s-112.5 80.166 -210.5 113.499c-134.667 40.667 -236.334 95 -305.001 163s-103 158.667 -103 272c0 110 31.667 199.667 95 269s150.333 111 261 125v221h158v-222c111.333 -16 197.833 -63.833 259.5 -143.5
s92.5 -186.5 92.5 -320.5h-196c0 90.667 -20.833 164 -62.5 220s-99.834 84 -174.501 84c-78.667 0 -137.667 -20.5 -177 -61.5s-59 -97.167 -59 -168.5c0 -64.667 20.333 -117 61 -157s113.667 -78 219 -114c136 -44 237 -98.833 303 -164.5s99 -154.834 99 -267.501
c0 -114.667 -34.333 -206 -103 -274s-163 -108.333 -283 -121v-191h-156v191c-114.667 12 -208.667 53.833 -282 125.5s-108.666 176.834 -105.999 315.501l2 5h190c0 -102.667 25.833 -175.834 77.5 -219.501s115.167 -65.5 190.5 -65.5c86 0 153 20.5 201 61.5
s72 97.833 72 170.5z" />
    <glyph glyph-name="percent" unicode="%" horiz-adv-x="1460" 
d="M77 1176c0 84.667 27.333 156 82 214s127.334 87 218.001 87c92 0 165.333 -28.833 220 -86.5s82 -129.167 82 -214.5v-77c0 -84.667 -27.333 -155.667 -82 -213s-127.334 -86 -218.001 -86c-91.333 0 -164.5 28.667 -219.5 86s-82.5 128.333 -82.5 213v77zM223 1099
c0 -49.333 13.499 -91.167 40.499 -125.5s65.5 -51.5 115.5 -51.5c48.667 0 86.5 17 113.5 51s40.5 76 40.5 126v77c0 49.333 -13.667 91.5 -41 126.5s-65.666 52.5 -114.999 52.5s-87.333 -17.5 -114 -52.5s-40 -77.167 -40 -126.5v-77zM781.999 356.999
c0 84 27.333 155.001 82 213.001s127.334 87 218.001 87c91.333 0 164.5 -28.833 219.5 -86.5s82.5 -128.834 82.5 -213.501v-78c0 -85.333 -27.333 -156.666 -82 -213.999s-127.334 -86 -218.001 -86c-92 0 -165.333 28.667 -220 86s-82 128.666 -82 213.999v78z
M927.999 279c0 -50 13.499 -92.167 40.499 -126.5s65.5 -51.5 115.5 -51.5c49.333 0 87.333 17.167 114 51.5s40 76.5 40 126.5v78c0 49.333 -13.667 91.333 -41 126s-65.666 52 -114.999 52s-87.333 -17.333 -114 -52s-40 -76.667 -40 -126v-78zM441.998 110l-109 67
l711 1138l109 -67z" />
    <glyph glyph-name="ampersand" unicode="&#x26;" horiz-adv-x="1289" 
d="M74 392c0 81.333 23.502 152.498 70.502 213.498s117.167 122.167 210.5 183.5c-52 66 -90.667 124.833 -116 176.5s-38 104.834 -38 159.501c0 112.667 32.5 199.5 97.5 260.5s154.5 91.5 268.5 91.5c105.333 0 191 -30.333 257 -91s99 -133.667 99 -219
c0 -65.333 -17.5 -121.833 -52.5 -169.5s-86.833 -96.5 -155.5 -146.5l-109 -80l340 -409c27.333 43.333 48.666 91.333 63.999 144s23 108.334 23 167.001h176c0 -87.333 -13 -168.333 -39 -243s-63.667 -141.667 -113 -201l185 -224l-2 -5h-229l-85 102
c-53.333 -40 -112.333 -70.5 -177 -91.5s-131.667 -31.5 -201 -31.5c-144.667 0 -259.834 38.333 -345.501 115s-128.5 176 -128.5 298zM548.002 132.998c48 0 95.334 8.16504 142.001 24.498s90.667 39.833 132 70.5l-361 435l-40 -29
c-60.667 -45.333 -100.834 -88.666 -120.501 -129.999s-29.5 -78.666 -29.5 -111.999c0 -75.333 23.667 -137.333 71 -186s116 -73 206 -73zM398.003 1127c0 -35.333 9 -72.167 27 -110.5s45 -80.166 81 -125.499l138 95c38 25.333 63.833 52.833 77.5 82.5
s20.5 62.5 20.5 98.5c0 40.667 -16.167 76.667 -48.5 108s-74.5 47 -126.5 47c-54 0 -95.667 -18.833 -125 -56.5s-44 -83.834 -44 -138.501z" />
    <glyph glyph-name="quotesingle" unicode="'" horiz-adv-x="460" 
d="M324 1337l-61 -282h-97v505h158v-223z" />
    <glyph glyph-name="parenleft" unicode="(" horiz-adv-x="662" 
d="M114 591c0 262.667 52.999 486.998 158.999 672.998s217.333 310 334 372l6 -1l37 -116c-91.333 -71.333 -170.666 -185.666 -237.999 -342.999s-101 -351.666 -101 -582.999v-13c0 -232 33.5 -426.5 100.5 -583.5s146.5 -274.167 238.5 -351.5l-37 -108h-6
c-116.667 62 -228 185.833 -334 371.5s-159 410.167 -159 673.5v9z" />
    <glyph glyph-name="parenright" unicode=")" horiz-adv-x="654" 
d="M547 582c0 -263.333 -53.167 -487.834 -159.5 -673.501s-217.5 -309.5 -333.5 -371.5h-6l-37 108c90 70 169 185.167 237 345.5s102 356.833 102 589.5v13c0 228.667 -35 423.334 -105 584.001s-148 277.667 -234 351l37 108h6c116 -62 227.167 -186 333.5 -372
s159.5 -410.333 159.5 -673v-9z" />
    <glyph glyph-name="asterisk" unicode="*" horiz-adv-x="958" 
d="M362 982l-296 89l49 154l296 -111l-10 342h161l-10 -348l293 110l48 -156l-302 -89l193 -270l-131 -96l-181 287l-176 -279l-132 93z" />
    <glyph glyph-name="plus" unicode="+" horiz-adv-x="1145" 
d="M671 783h400v-178h-400v-459h-197v459h-401v178h401v423h197v-423z" />
    <glyph glyph-name="comma" unicode="," horiz-adv-x="404" 
d="M315 72c0 -65.333 -16.333 -133.668 -49 -205.001s-76.667 -130.666 -132 -177.999l-111 74c31.333 48 55 97 71 147s24 103 24 159v152h197v-149z" />
    <glyph glyph-name="hyphen" unicode="-" horiz-adv-x="797" 
d="M643 538h-489v154h489v-154z" />
    <glyph glyph-name="period" unicode="." horiz-adv-x="493" 
d="M342 0h-197v202h197v-202z" />
    <glyph glyph-name="slash" unicode="/" horiz-adv-x="824" 
d="M167 -125h-167l608 1581h166z" />
    <glyph glyph-name="zero" unicode="0" horiz-adv-x="1168" 
d="M1048 555c0 -186 -41.333 -328.499 -124 -427.499s-195.667 -148.5 -339 -148.5c-142.667 0 -255.667 49.667 -339 149s-125 241.666 -125 426.999v345c0 185.333 41.333 327.833 124 427.5s195.334 149.5 338.001 149.5c143.333 0 256.666 -49.833 339.999 -149.5
s125 -242.167 125 -427.5v-345zM851 942.001c0 126 -22.833 220.833 -68.5 284.5s-112.167 95.5 -199.5 95.5c-86 0 -151.667 -31.833 -197 -95.5s-68 -158.5 -68 -284.5v-427c0 -126 23 -221.167 69 -285.5s112 -96.5 198 -96.5c87.333 0 153.5 32 198.5 96
s67.5 159.333 67.5 286v427z" />
    <glyph glyph-name="one" unicode="1" horiz-adv-x="844" 
d="M121 126l225 28v1091l-229 -4v123l426 92v-1302l224 -28v-126h-646v126z" />
    <glyph glyph-name="two" unicode="2" horiz-adv-x="1131" 
d="M97 0l0.00195312 134.999l477 530c85.333 95.333 143.166 171 173.499 227s45.5 113.333 45.5 172c0 72.667 -21.333 133.834 -64 183.501s-99 74.5 -169 74.5c-100.667 0 -174.667 -25.667 -222 -77s-71 -124 -71 -218h-189l-2 6
c-3.33301 125.333 38.167 230.666 124.5 315.999s206.166 128 359.499 128c131.333 0 235.833 -38.167 313.5 -114.5s116.5 -173.5 116.5 -291.5c0 -79.333 -23.5 -158.666 -70.5 -237.999s-113.167 -165 -198.5 -257l-383 -417l2 -5h517l16 167h167v-321h-943z" />
    <glyph glyph-name="three" unicode="3" horiz-adv-x="1106" 
d="M363 819l172.004 0.000976562c87.333 0 149.166 21.833 185.499 65.5s54.5 104.5 54.5 182.5c0 83.333 -20.667 146.666 -62 189.999s-102.333 65 -183 65c-76.667 0 -138.167 -22.5 -184.5 -67.5s-69.5 -104.833 -69.5 -179.5h-189l-2 6
c-3.33301 110 36.5 203.5 119.5 280.5s191.5 115.5 325.5 115.5c134.667 0 242 -35.833 322 -107.5s120 -173.834 120 -306.501c0 -60 -18.167 -119.833 -54.5 -179.5s-90.833 -105.167 -163.5 -136.5c87.333 -28.667 149.166 -73.667 185.499 -135s54.5 -130 54.5 -206
c0 -132.667 -43.5 -237 -130.5 -313s-198.167 -114 -333.5 -114c-133.333 0 -243.333 35.833 -330 107.5s-128.334 168.834 -125.001 291.501l3 6h188c0 -76.667 23.5 -137.667 70.5 -183s111.5 -68 193.5 -68c83.333 0 148.666 22.667 195.999 68s71 112.333 71 201
c0 90 -21 156.333 -63 199s-108.333 64 -199 64h-172v154z" />
    <glyph glyph-name="four" unicode="4" horiz-adv-x="1187" 
d="M913 490h201v-154h-201v-182l163 -28v-126h-522v126l163 28v182h-654v111l642 1009h208v-966zM273 490h444v685l-6 2l-20 -53z" />
    <glyph glyph-name="five" unicode="5" horiz-adv-x="1081" 
d="M819 1168l-18.999 113.001h-435l-47 -409c30 22.667 63.833 41.5 101.5 56.5s81.167 23.167 130.5 24.5c134 1.33301 239.5 -42.334 316.5 -131.001s115.5 -208 115.5 -358c0 -146 -39.167 -263.333 -117.5 -352s-192.5 -133 -342.5 -133
c-123.333 0 -225.833 33.667 -307.5 101s-120.834 166.333 -117.501 297l2 6h178c0 -78.667 22.833 -140 68.5 -184s104.5 -66 176.5 -66c83.333 0 148 29.333 194 88s69 139 69 241c0 94 -23.167 170.833 -69.5 230.5s-110.5 89.5 -192.5 89.5
c-77.333 0 -133.5 -11.667 -168.5 -35s-60.5 -59 -76.5 -107l-164 17l84 799h769v-288h-148z" />
    <glyph glyph-name="six" unicode="6" horiz-adv-x="1144" 
d="M664 1477c49.333 0 98.499 -5.66797 147.499 -17.001s89.5 -25.666 121.5 -42.999l-38 -147c-31.333 15.333 -65.666 27.833 -102.999 37.5s-80 14.5 -128 14.5c-102 0 -183.167 -38.5 -243.5 -115.5s-92.5 -193.167 -96.5 -348.5l4 -4c37.333 34.667 83 62.167 137 82.5
s112.333 30.5 175 30.5c130 0 233.667 -45 311 -135s116 -204 116 -342c0 -150.667 -41.167 -273.5 -123.5 -368.5s-192.166 -142.5 -329.499 -142.5c-142 0 -259.667 51.667 -353 155s-140 249.666 -140 438.999v196c0 230.667 50.667 406.334 152 527.001
s231.666 181 390.999 181zM596.999 819.999c-67.333 0 -124.667 -13.499 -172 -40.499s-83.333 -63.167 -108 -108.5v-117c0 -135.333 28.167 -239.333 84.5 -312s127.166 -109 212.499 -109c80.667 0 143.5 34.167 188.5 102.5s67.5 153.166 67.5 254.499
c0 96 -24.167 175 -72.5 237s-115.166 93 -200.499 93z" />
    <glyph glyph-name="seven" unicode="7" horiz-adv-x="1128" 
d="M1060 1301c-176 -209.333 -294.833 -394.833 -356.5 -556.5s-106.167 -357.5 -133.5 -587.5l-16 -157h-197l16 157c28 229.333 82.333 434.333 163 615s191 357 331 529h-608l-15 -167h-168v322h984v-155z" />
    <glyph glyph-name="eight" unicode="8" horiz-adv-x="1131" 
d="M999 1076c0 -76 -21.3311 -142.5 -63.998 -199.5s-100.334 -99.5 -173.001 -127.5c84 -29.333 151.167 -75.333 201.5 -138s75.5 -135 75.5 -217c0 -134.667 -43.833 -237.5 -131.5 -308.5s-201.5 -106.5 -341.5 -106.5c-142.667 0 -257.334 35.5 -344.001 106.5
s-130 173.833 -130 308.5c0 82 24.667 154.333 74 217s116 108.667 200 138c-72.667 28 -129.667 70.5 -171 127.5s-62 123.5 -62 199.5c0 128 39.5 226.833 118.5 296.5s183.167 104.5 312.5 104.5c128 0 232.5 -34.833 313.5 -104.5s121.5 -168.5 121.5 -296.5z
M843.002 398c0 80 -26.332 145.667 -78.999 197s-119.334 77 -200.001 77c-81.333 0 -147.5 -25.5 -198.5 -76.5s-76.5 -116.833 -76.5 -197.5c0 -82.667 25.167 -147.5 75.5 -194.5s117.5 -70.5 201.5 -70.5c82 0 148.667 23.667 200 71s77 112 77 194zM802.003 1072
c0 72 -22.5 131.667 -67.5 179s-101.833 71 -170.5 71c-70 0 -126.5 -22.833 -169.5 -68.5s-64.5 -106.167 -64.5 -181.5c0 -74 21.667 -133.333 65 -178s100.333 -67 171 -67c69.333 0 126 22.333 170 67s66 104 66 178z" />
    <glyph glyph-name="nine" unicode="9" horiz-adv-x="1154" 
d="M511 133c94.667 0 169.501 36.165 224.501 108.498s83.5 188.833 85.5 349.5l-4 5c-26.667 -44.667 -64 -79 -112 -103s-102 -36 -162 -36c-142 0 -254 43.833 -336 131.5s-123 210.834 -123 369.501c0 152 43.833 276.5 131.5 373.5s194.167 145.5 319.5 145.5
c152 0 271.833 -47.5 359.5 -142.5s131.5 -235.5 131.5 -421.5v-263c0 -227.333 -46.833 -396 -140.5 -506s-218.5 -165 -374.5 -165c-50.667 0 -102.5 4.83301 -155.5 14.5s-100.5 24.5 -142.5 44.5l30 149c40.667 -19.333 82.167 -33.166 124.5 -41.499
s90.166 -12.5 143.499 -12.5zM543.001 611.998c72.667 0 133.168 15.667 181.501 47s83.166 71.333 104.499 120v154c0 128.667 -24.5 225.667 -73.5 291s-120.5 98 -214.5 98c-72.667 0 -134.167 -34 -184.5 -102s-75.5 -155.333 -75.5 -262
c0 -104.667 23.333 -188.5 70 -251.5s110.667 -94.5 192 -94.5z" />
    <glyph glyph-name="colon" unicode=":" horiz-adv-x="419" 
d="M342 0h-197v202h197v-202zM342 880h-197v202h197v-202z" />
    <glyph glyph-name="semicolon" unicode=";" horiz-adv-x="424" 
d="M343 880h-197v202h197v-202zM345 72c0 -65.333 -16.333 -133.668 -49 -205.001s-76.667 -130.666 -132 -177.999l-111 74c31.333 48 55 97 71 147s24 103 24 159v152h197v-149z" />
    <glyph glyph-name="less" unicode="&#x3c;" horiz-adv-x="1017" 
d="M333 579l-85 -18v-6l85 -19l559 -228v-201l-816 379v149l816 378v-201z" />
    <glyph glyph-name="equal" unicode="=" horiz-adv-x="1127" 
d="M981 823h-834v164h834v-164zM981 407h-834v164h834v-164z" />
    <glyph glyph-name="greater" unicode="&#x3e;" horiz-adv-x="1060" 
d="M125 798v195l855 -378v-149l-855 -379v196l598 238l84 17v6l-84 20z" />
    <glyph glyph-name="question" unicode="?" horiz-adv-x="953" 
d="M360 410c0.666992 97.333 8.83301 164.501 24.5 201.501s57.5 86.167 125.5 147.5c66 78 113 138 141 180s42 92.667 42 152c0 70.667 -18.833 125 -56.5 163s-91.5 57 -161.5 57c-60.667 0 -112.167 -16.5 -154.5 -49.5s-63.5 -81.5 -63.5 -145.5h-188l-3 6
c-2 107.333 35.667 193.333 113 258s176 97 296 97c131.333 0 233.333 -33.5 306 -100.5s109 -160.5 109 -280.5c0 -86 -23.5 -164.667 -70.5 -236s-109.167 -144.333 -186.5 -219c-35.333 -36 -56.833 -68.333 -64.5 -97s-11.5 -73.334 -11.5 -134.001h-197z
M562.999 0.000976562h-205v208h205v-208z" />
    <glyph glyph-name="at" unicode="@" horiz-adv-x="1821" 
d="M1704 502c-6 -142.667 -45.9961 -265.499 -119.996 -368.499s-184.667 -154.5 -332 -154.5c-48.667 0 -90.834 13.833 -126.501 41.5s-61.167 66.5 -76.5 116.5c-33.333 -53.333 -74 -93 -122 -119s-103.667 -39 -167 -39c-83.333 0 -148 40.167 -194 120.5
s-63 185.833 -51 316.5c15.333 172.667 61.166 311.167 137.499 415.5s169.166 156.5 278.499 156.5c70 0 126.167 -8.66699 168.5 -26s89.166 -44 140.499 -80l-4 -4h6l-51 -585c-6 -73.333 1.16699 -123.833 21.5 -151.5s47.5 -41.5 81.5 -41.5
c82 0 147.5 37.833 196.5 113.5s76.167 171.834 81.5 288.501c11.333 254.667 -36.5 453.167 -143.5 595.5s-272.167 213.5 -495.5 213.5c-206 0 -371.333 -77 -496 -231s-192 -354.667 -202 -602c-12 -250.667 38 -448.834 150 -594.501s272.667 -218.5 482 -218.5
c58.667 0 118 7.16699 178 21.5s110.667 33.166 152 56.499l39 -107c-45.333 -28 -102.5 -49.833 -171.5 -65.5s-136.167 -23.5 -201.5 -23.5c-253.333 0 -449.333 83.167 -588 249.5s-201.667 393.5 -189 681.5c12.667 282 95.667 511.333 249 688s354 265 602 265
c252.667 0 446.5 -83.333 581.5 -250s196.833 -393 185.5 -679zM691.004 416.001c-7.33301 -94 0.00195312 -165.833 22.002 -215.5s57.667 -74.5 107 -74.5c42 0 80.833 8.33301 116.5 25s68.167 46 97.5 88c-0.666992 8 -0.833984 16.333 -0.500977 25
s1.16602 18.334 2.49902 29.001l47 538c-17.333 8 -35.5 14.333 -54.5 19s-38.833 7 -59.5 7c-83.333 0 -147 -36.333 -191 -109s-73 -183.334 -87 -332.001z" />
    <glyph glyph-name="A" unicode="A" 
d="M55 126l108 15l509 1315h169l500 -1315l107 -15v-126h-418v126l110 19l-96 268h-583l-99 -268l110 -19v-126h-417v126zM522 578h462l-226 625h-6z" />
    <glyph glyph-name="B" unicode="B" horiz-adv-x="1345" 
d="M709 1456c152 0 270.833 -32.835 356.5 -98.502s128.5 -164.167 128.5 -295.5c0 -64.667 -20.5 -122.5 -61.5 -173.5s-95.167 -88.833 -162.5 -113.5c87.333 -18.667 156.333 -61.667 207 -129s76 -145.666 76 -234.999c0 -133.333 -43.333 -235.166 -130 -305.499
s-204 -105.5 -352 -105.5h-700v126l163 28v1147l-163 28v127h163h475zM431 682.998v-528.999h340c90 0 159.833 22.167 209.5 66.5s74.5 107.166 74.5 188.499c0 85.333 -20.833 152.333 -62.5 201s-105.5 73 -191.5 73h-370zM431 836.999h328.998
c70.667 2 127.834 23 171.501 63s65.5 95.333 65.5 166c0 78.667 -24.667 137.5 -74 176.5s-120.666 58.5 -213.999 58.5h-278v-464z" />
    <glyph glyph-name="C" unicode="C" horiz-adv-x="1321" 
d="M1200 1009l-139 0.000976562l-37 206c-32 31.333 -71.333 57 -118 77s-102.334 30 -167.001 30c-151.333 0 -267.666 -54.833 -348.999 -164.5s-122 -248.834 -122 -417.501v-23c0 -168.667 39.833 -308.167 119.5 -418.5s190.167 -165.5 331.5 -165.5
c66 0 126 10.333 180 31s95.667 46 125 76l37 206h139v-259c-42 -54 -105 -102.167 -189 -144.5s-181.333 -63.5 -292 -63.5c-189.333 0 -344.666 70 -465.999 210s-182 316 -182 528v21c0 213.333 59.667 389.833 179 529.5s275.666 209.5 468.999 209.5
c110.667 0 208 -21.5 292 -64.5s147 -91.167 189 -144.5v-259z" />
    <glyph glyph-name="D" unicode="D" horiz-adv-x="1419" 
d="M681 1456c190 0 342.833 -58.5 458.5 -175.5s173.5 -268.167 173.5 -453.5v-199c0 -186 -57.833 -337.167 -173.5 -453.5s-268.5 -174.5 -458.5 -174.5h-610v126l163 28v1147l-163 28v127h163h447zM431 1301v-1147h250c134.667 0 240.834 44.333 318.501 133
s116.5 202.334 116.5 341.001v201c0 137.333 -38.833 250.333 -116.5 339s-183.834 133 -318.501 133h-250z" />
    <glyph glyph-name="E" unicode="E" horiz-adv-x="1306" 
d="M71 0v126l163 28v1147l-163 28v127h1118v-350h-169l-16 195h-573v-471h557v-155h-557v-521h585l16 195h168v-349h-1129z" />
    <glyph glyph-name="F" unicode="F" horiz-adv-x="1273" 
d="M71 126l163 28v1147l-163 28v127h1125v-350h-168l-16 195h-581v-502h563v-155h-563v-490l163 -28v-126h-523v126z" />
    <glyph glyph-name="G" unicode="G" horiz-adv-x="1387" 
d="M1230 165c-42.667 -44.667 -105.669 -86.833 -189.002 -126.5s-191.666 -59.5 -324.999 -59.5c-194.667 0 -353.5 68.333 -476.5 205s-184.5 314 -184.5 532v24c0 219.333 60.833 397 182.5 533s283.5 204 485.5 204c108 0 202.833 -16.833 284.5 -50.5
s150.5 -78.167 206.5 -133.5v-264h-138l-48 201c-32.667 26.667 -72.167 48.667 -118.5 66s-101.833 26 -166.5 26c-157.333 0 -278.5 -53.833 -363.5 -161.5s-127.5 -247.167 -127.5 -418.5v-26c0 -174 41.167 -314.667 123.5 -422s195.833 -161 340.5 -161
c79.333 0 144.333 8.33301 195 25s91.334 35 122.001 55v319l-239 10v145h436v-522z" />
    <glyph glyph-name="H" unicode="H" horiz-adv-x="1573" 
d="M71 1329v127h523v-127l-163 -28v-503h706v503l-163 28v127h163h197h163v-127l-163 -28v-1147l163 -28v-126h-523v126l163 28v489h-706v-489l163 -28v-126h-523v126l163 28v1147z" />
    <glyph glyph-name="I" unicode="I" horiz-adv-x="662" 
d="M70 1329v127h523v-127l-163 -28v-1147l163 -28v-126h-523v126l163 28v1147z" />
    <glyph glyph-name="J" unicode="J" horiz-adv-x="1183" 
d="M1124 1456v-127l-163 -28v-898c0 -130 -41.167 -233.167 -123.5 -309.5s-189.166 -114.5 -320.499 -114.5c-140 0 -251.333 35.5 -334 106.5s-122.334 174.167 -119.001 309.5l2 6h189c0 -90 22.833 -157.167 68.5 -201.5s110.167 -66.5 193.5 -66.5
c72.667 0 132 24.5 178 73.5s69 114.5 69 196.5v898l-163 28v127h360h163z" />
    <glyph glyph-name="K" unicode="K" horiz-adv-x="1452" 
d="M71 126l163 28v1147l-163 28v127h523v-127l-163 -28v-489h151l407 503l-109 14v127h462v-127l-137 -25l-445 -552l486 -601l137 -25v-126h-478v126l111 14l-415 517h-170v-503l163 -28v-126h-523v126z" />
    <glyph glyph-name="L" unicode="L" horiz-adv-x="1199" 
d="M71 0v126l163 28v1147l-163 28v127h163h197h163v-127l-163 -28v-1147h506l15 167h168v-321h-1049z" />
    <glyph glyph-name="M" unicode="M" horiz-adv-x="1905" 
d="M1494 1166l-5 1l-471 -1167h-131l-471 1166l-5 -1l20 -589v-422l163 -28v-126h-523v126l163 28v1147l-163 28v127h163h252l464 -1183h6l463 1183h416v-127l-163 -28v-1147l163 -28v-126h-523v126l163 28v422z" />
    <glyph glyph-name="N" unicode="N" horiz-adv-x="1560" 
d="M1497 1456v-127l-163 -28v-1301h-197l-700 1124l-6 -2v-968l163 -28v-126h-523v126l163 28v1147l-163 28v127h163h197l700 -1123l6 2v966l-163 28v127h360h163z" />
    <glyph glyph-name="O" unicode="O" horiz-adv-x="1445" 
d="M1368 717c0 -212 -60.833 -388 -182.5 -528s-279.167 -210 -472.5 -210c-188 0 -340.667 70 -458 210s-176 316 -176 528v21c0 211.333 58.667 387.333 176 528s270 211 458 211c193.333 0 350.833 -70.333 472.5 -211s182.5 -316.667 182.5 -528v-21zM1171 740
c0 169.333 -40.5 307.5 -121.5 414.5s-193.167 160.5 -336.5 160.5c-137.333 0 -244.5 -53.667 -321.5 -161s-115.5 -245.333 -115.5 -414v-23c0 -170.667 38.5 -309.5 115.5 -416.5s184.167 -160.5 321.5 -160.5c145.333 0 258 53.333 338 160s120 245.667 120 417v23z" />
    <glyph glyph-name="P" unicode="P" horiz-adv-x="1301" 
d="M740 1456c155.333 0 276.166 -40 362.499 -120s129.5 -185.333 129.5 -316c0 -132 -43.167 -237.667 -129.5 -317s-207.166 -119 -362.499 -119h-309v-430l163 -28v-126h-523v126l163 28v1147l-163 28v127h163h506zM431 738h309c98.667 0 172.5 26.5 221.5 79.5
s73.5 119.833 73.5 200.5s-24.5 148 -73.5 202s-122.833 81 -221.5 81h-309v-563z" />
    <glyph glyph-name="Q" unicode="Q" horiz-adv-x="1446" 
d="M1368 717c0 -129.333 -24.001 -247.333 -72.001 -354s-115 -192.667 -201 -258l295 -208l-135 -120l-331 236c-33.333 -10.667 -67.666 -19 -102.999 -25s-71.333 -9 -108 -9c-188 0 -340.667 70 -458 210s-176 316 -176 528v21c0 211.333 58.667 387.333 176 528
s270 211 458 211c193.333 0 350.833 -70.333 472.5 -211s182.5 -316.667 182.5 -528v-21zM1171 740c0 169.333 -40.5 307.5 -121.5 414.5s-193.167 160.5 -336.5 160.5c-137.333 0 -244.5 -53.667 -321.5 -161s-115.5 -245.333 -115.5 -414v-23
c0 -170.667 38.5 -309.5 115.5 -416.5s184.167 -160.5 321.5 -160.5c145.333 0 258 53.333 338 160s120 245.667 120 417v23z" />
    <glyph glyph-name="R" unicode="R" horiz-adv-x="1386" 
d="M710 1455c158.667 0 280.332 -35.167 364.999 -105.5s127 -170.166 127 -299.499c0 -70.667 -19.667 -133.334 -59 -188.001s-95.666 -97.667 -168.999 -129c79.333 -26 136.5 -68.333 171.5 -127s52.5 -131 52.5 -217v-117c0 -44.667 5.66699 -77.667 17 -99
s30 -34 56 -38l48 -6v-129h-106c-76.667 0 -131.167 26.667 -163.5 80s-48.5 118 -48.5 194v113c0 79.333 -23 143 -69 191s-107.667 72 -185 72h-316v-496l163 -28v-126h-523v126l163 28v1147l-163 28v126h163h476zM430.998 805l259 -0.000976562c110 0 190 21 240 63
s75 103.333 75 184c0 76.667 -24 137.334 -72 182.001s-122.333 67 -223 67h-279v-496z" />
    <glyph glyph-name="S" unicode="S" horiz-adv-x="1247" 
d="M1125 1026l-149.001 -0.00292969l-37 208c-30 25.333 -70 46.333 -120 63s-108 25 -174 25c-104.667 0 -185 -22.167 -241 -66.5s-84 -102.166 -84 -173.499c0 -63.333 28.5 -116.166 85.5 -158.499s149.167 -79.5 276.5 -111.5c153.333 -38 269.833 -94 349.5 -168
s119.5 -165.667 119.5 -275c0 -117.333 -47.833 -211.666 -143.5 -282.999s-220.834 -107 -375.501 -107c-112 0 -211.5 18.333 -298.5 55s-157.833 84.667 -212.5 144v271h148l38 -209c38 -31.333 83.333 -57 136 -77s115.667 -30 189 -30c99.333 0 177.833 21 235.5 63
s86.5 99 86.5 171c0 66.667 -25 122.5 -75 167.5s-138.333 82.833 -265 113.5c-154 36.667 -274.333 90.667 -361 162s-130 161 -130 269c0 114 48.333 208.833 145 284.5s222.334 113.5 377.001 113.5c102 0 194.833 -17.5 278.5 -52.5s150.834 -77.5 201.501 -127.5v-271z
" />
    <glyph glyph-name="T" unicode="T" horiz-adv-x="1284" 
d="M1247 1456v-322h-168l-15 167h-323v-1147l163 -28v-126h-523v126l163 28v1147h-324l-14 -167h-169v322h1210z" />
    <glyph glyph-name="U" unicode="U" horiz-adv-x="1541" 
d="M583 1456l-0.000976562 -127.001l-163 -28v-832c0 -110 31.333 -193.5 94 -250.5s145.334 -85.5 248.001 -85.5c108 0 195 28.333 261 85s99 140.334 99 251.001v832l-163 28v127h360h163v-127l-163 -28v-832c0 -158 -51.5 -279.167 -154.5 -363.5
s-237.167 -126.5 -402.5 -126.5c-160.667 0 -290.667 42.167 -390 126.5s-149 205.5 -149 363.5v832l-163 28v127h163h360z" />
    <glyph glyph-name="V" unicode="V" horiz-adv-x="1470" 
d="M507 1329l-133 -21l326 -946l33 -115h6l33 115l325 947l-131 20v127h459v-127l-117 -16l-488 -1313h-169l-488 1313l-116 16v127h460v-127z" />
    <glyph glyph-name="W" unicode="W" horiz-adv-x="1910" 
d="M489 1329l-148 -23l187 -802l27 -182l6 -1l39 183l268 952h174l269 -952l40 -187h6l29 187l183 802l-149 23v127h463v-127l-117 -15l-317 -1314h-176l-288 1010l-26 131h-6l-25 -131l-292 -1010h-175l-317 1314l-117 15v127h462v-127z" />
    <glyph glyph-name="X" unicode="X" horiz-adv-x="1404" 
d="M43 126l131 22l414 586l-404 573l-131 22v127h472v-127l-117 -13l291 -437l294 437l-117 13v127h475v-127l-131 -22l-404 -573l413 -586l132 -22v-126h-471v126l115 13l-302 448l-303 -448l117 -13v-126h-474v126z" />
    <glyph glyph-name="Y" unicode="Y" horiz-adv-x="1416" 
d="M555 1329l-157 -19l305 -594l305 594l-156 19v127h500v-127l-123 -19l-432 -798v-358l163 -28v-126h-522v126l163 28v373l-424 783l-122 19v127h500v-127z" />
    <glyph glyph-name="Z" unicode="Z" horiz-adv-x="1220" 
d="M313 154h631l16 167h168v-321h-1036v146l777 1155h-584l-14 -167h-169v322h993v-141z" />
    <glyph glyph-name="bracketleft" unicode="[" horiz-adv-x="573" 
d="M541 1509h-187v-1666h187v-155h-384v1976h384v-155z" />
    <glyph glyph-name="backslash" unicode="\" horiz-adv-x="841" 
d="M36 1456h186l608 -1581h-186z" />
    <glyph glyph-name="bracketright" unicode="]" horiz-adv-x="552" 
d="M23 1664h385v-1976h-385v155h188v1666h-188v155z" />
    <glyph glyph-name="asciicircum" unicode="^" horiz-adv-x="864" 
d="M253 729h-182l299 727h134l298 -727h-182l-166 419l-16 70h-6l-16 -70z" />
    <glyph glyph-name="underscore" unicode="_" horiz-adv-x="1168" 
d="M1041 -154h-922v154h922v-154z" />
    <glyph glyph-name="grave" unicode="`" horiz-adv-x="582" 
d="M492 1211h-159l-249 260l3 6h230z" />
    <glyph glyph-name="a" unicode="a" horiz-adv-x="1128" 
d="M795 0c-6 29.333 -10.666 55.667 -13.999 79s-5.66602 46.666 -6.99902 69.999c-38 -48.667 -85.5 -89.167 -142.5 -121.5s-117.833 -48.5 -182.5 -48.5c-112.667 0 -198.334 27.5 -257.001 82.5s-88 132.5 -88 232.5c0 102.667 41.5 181.834 124.5 237.501
s196.833 83.5 341.5 83.5h203v126c0 63.333 -20 113.5 -60 150.5s-95.667 55.5 -167 55.5c-49.333 0 -92.833 -6.33301 -130.5 -19s-68.167 -30 -91.5 -52l-21 -114h-152v210c49.333 39.333 109 70.833 179 94.5s146 35.5 228 35.5c122.667 0 222 -31.333 298 -94
s114 -152.334 114 -269.001v-521c0 -14 0.166992 -27.667 0.5 -41s1.16602 -26.666 2.49902 -39.999l80 -11v-126h-258zM478.001 144.001c65.333 0 125.001 15.666 179.001 46.999s92.667 69 116 113v178h-210c-80.667 0 -144.5 -18.667 -191.5 -56
s-70.5 -82.666 -70.5 -135.999c0 -47.333 14.667 -83.5 44 -108.5s73.666 -37.5 132.999 -37.5z" />
    <glyph glyph-name="b" unicode="b" horiz-adv-x="1186" 
d="M1079 500c0 -156 -37.499 -281.833 -112.499 -377.5s-178.167 -143.5 -309.5 -143.5c-70.667 0 -132 13.5 -184 40.5s-95.333 66.833 -130 119.5l-18 -139h-170v1405l-163 28v127h360v-606c34 48 76.167 84.667 126.5 110s109.166 38 176.499 38
c133.333 0 237.333 -53.333 312 -160s112 -247 112 -421v-21zM881.001 521c0 124.667 -22.666 225.999 -67.999 303.999s-114.666 117 -207.999 117c-60.667 0 -111.834 -14.667 -153.501 -44s-74.834 -68.666 -99.501 -117.999v-478c24.667 -50 58.167 -89.667 100.5 -119
s93.833 -44 154.5 -44c92.667 0 161.5 33 206.5 99s67.5 153.333 67.5 262v21z" />
    <glyph glyph-name="c" unicode="c" horiz-adv-x="1104" 
d="M575 133c65.333 0 122.832 20.167 172.499 60.5s74.5 89.833 74.5 148.5h177l2 -6c3.33301 -93.333 -38.167 -176.166 -124.5 -248.499s-186.833 -108.5 -301.5 -108.5c-157.333 0 -277.5 51.333 -360.5 154s-124.5 231.667 -124.5 387v42c0 154 41.667 282.5 125 385.5
s203.333 154.5 360 154.5c86.667 0 164.5 -14.333 233.5 -43s126.167 -68 171.5 -118l9 -240h-157l-43 170c-23.333 22.667 -53.333 41 -90 55s-78 21 -124 21c-103.333 0 -177.166 -37.167 -221.499 -111.5s-66.5 -165.5 -66.5 -273.5v-42
c0 -110.667 22 -202.834 66 -276.501s118 -110.5 222 -110.5z" />
    <glyph glyph-name="d" unicode="d" horiz-adv-x="1229" 
d="M818 129c-35.333 -49.333 -78.499 -86.666 -129.499 -111.999s-110.167 -38 -177.5 -38c-132 0 -235.167 47.833 -309.5 143.5s-111.5 221.5 -111.5 377.5v21c0 174 37.167 314.333 111.5 421s178.166 160 311.499 160c64 0 120.5 -11.833 169.5 -35.5
s90.833 -57.834 125.5 -102.501v441l-163 28v127h163h197v-1406l163 -28v-126h-334zM287.001 500c0 -108.667 22.334 -196.001 67.001 -262.001s113.667 -99 207 -99c58.667 0 108 13.333 148 40s73 64.334 99 113.001v502c-25.333 45.333 -58.333 81.333 -99 108
s-89.334 40 -146.001 40c-94 0 -163.5 -39 -208.5 -117s-67.5 -179.333 -67.5 -304v-21z" />
    <glyph glyph-name="e" unicode="e" horiz-adv-x="1101" 
d="M583 -21c-150.667 0 -270.499 50.167 -359.499 150.5s-133.5 230.5 -133.5 390.5v44c0 154 45.833 282.167 137.5 384.5s200.167 153.5 325.5 153.5c145.333 0 255.5 -44 330.5 -132s112.5 -205.333 112.5 -352v-123h-702l-3 -5c2 -104 28.333 -189.5 79 -256.5
s121.667 -100.5 213 -100.5c66.667 0 125.167 9.5 175.5 28.5s93.833 45.167 130.5 78.5l77 -128c-38.667 -37.333 -89.834 -68.833 -153.501 -94.5s-140.167 -38.5 -229.5 -38.5zM553.001 947c-66 0 -122.333 -27.833 -169 -83.5s-75.334 -125.5 -86.001 -209.5l2 -5h499
v26c0 77.333 -20.667 142 -62 194s-102.666 78 -183.999 78z" />
    <glyph glyph-name="f" unicode="f" horiz-adv-x="728" 
d="M70 936v146h169v137c0 115.333 30.167 204.5 90.5 267.5s144.5 94.5 252.5 94.5c22.667 0 45.5 -1.83301 68.5 -5.5s48.5 -8.83398 76.5 -15.501l-24 -150c-12 2.66699 -26.5 5 -43.5 7s-34.5 3 -52.5 3c-58 0 -101 -17.167 -129 -51.5s-42 -84.166 -42 -149.499v-137
h226v-146h-226v-782l163 -28v-126h-523v126l163 28v782h-169z" />
    <glyph glyph-name="g" unicode="g" horiz-adv-x="1159" 
d="M90 521c0 174 37.999 314.334 113.999 421.001s181 160 315 160c68 0 127.667 -13.333 179 -40s94.333 -65.334 129 -116.001l18 136h166v-1068c0 -140 -39 -250.167 -117 -330.5s-189 -120.5 -333 -120.5c-52 0 -108.333 7.16699 -169 21.5s-114 33.833 -160 58.5
l51 153c36.667 -19.333 80 -35.333 130 -48s98.667 -19 146 -19c88 0 152.5 24.667 193.5 74s61.5 119.666 61.5 210.999v103c-35.333 -45.333 -77.666 -79.666 -126.999 -102.999s-106 -35 -170 -35c-132.667 0 -237 48 -313 144s-114 221.667 -114 377v21z
M286.999 500.001c0 -108.667 23 -196 69 -262s116 -99 210 -99c59.333 0 109 13.5 149 40.5s73 65.167 99 114.5v498c-25.333 46 -58.333 82.5 -99 109.5s-89.667 40.5 -147 40.5c-94 0 -164.333 -39.333 -211 -118s-70 -179.667 -70 -303v-21z" />
    <glyph glyph-name="h" unicode="h" horiz-adv-x="1322" 
d="M62 126l163 28v1251l-163 28v127h360v-622c37.333 52 83 92.333 137 121s114 43 180 43c116 0 206 -34.667 270 -104s96 -176 96 -320v-524l163 -28v-126h-523v126l163 28v526c0 89.333 -19.167 155.333 -57.5 198s-95.5 64 -171.5 64
c-54 0 -103.167 -12.833 -147.5 -38.5s-80.833 -60.5 -109.5 -104.5v-645l163 -28v-126h-523v126z" />
    <glyph glyph-name="i" unicode="i" horiz-adv-x="673" 
d="M89 126l163 28v773l-163 28v127h360v-928l163 -28v-126h-523v126zM449 1359h-197v201h197v-201z" />
    <glyph glyph-name="j" unicode="j" horiz-adv-x="571" 
d="M424 -89c0 -111.333 -28.668 -197.168 -86.001 -257.501s-137 -90.5 -239 -90.5c-21.333 0 -40.666 1.5 -57.999 4.5s-35.333 7.5 -54 13.5l13 155c9.33301 -3.33301 23 -6.16602 41 -8.49902s32.667 -3.5 44 -3.5c43.333 0 77.833 14.667 103.5 44s38.5 77 38.5 143
v1016l-163 28v127h360v-1171zM417.999 1363h-197v197h197v-197z" />
    <glyph glyph-name="k" unicode="k" horiz-adv-x="1245" 
d="M62 1433v127h360v-904h126l231 286l-99 13v127h453v-127l-132 -26l-285 -340l347 -439l123 -24v-126h-449v126l101 13l-287 360h-129v-345l163 -28v-126h-523v126l163 28v1251z" />
    <glyph glyph-name="l" unicode="l" horiz-adv-x="645" 
d="M62 1433v127h360v-1406l163 -28v-126h-523v126l163 28v1251z" />
    <glyph glyph-name="m" unicode="m" horiz-adv-x="1935" 
d="M50 126l163.002 28v773l-163 28v127h340l13 -141c34.667 51.333 79.334 91 134.001 119s118 42 190 42s133.833 -16.667 185.5 -50s90.5 -83.333 116.5 -150c34 61.333 79 110 135 146s121.333 54 196 54c110.667 0 198 -37.833 262 -113.5s96 -189.5 96 -341.5v-493
l163 -28v-126h-524v126l163 28v495c0 106.667 -18.333 182.167 -55 226.5s-91 66.5 -163 66.5c-68.667 0 -123.834 -24.167 -165.501 -72.5s-65.834 -109.166 -72.501 -182.499v-533l163 -28v-126h-523v126l163 28v495c0 101.333 -18.833 175.5 -56.5 222.5
s-92.167 70.5 -163.5 70.5c-60 0 -109.333 -12.333 -148 -37s-68.334 -59.334 -89.001 -104.001v-647l163 -28v-126h-523v126z" />
    <glyph glyph-name="n" unicode="n" horiz-adv-x="1318" 
d="M60 126l163.002 27.999v773l-163 28v127h339l14 -161c36 57.333 81.167 101.833 135.5 133.5s116.166 47.5 185.499 47.5c116.667 0 207 -34.167 271 -102.5s96 -173.833 96 -316.5v-529l163 -28v-126h-523v126l163 28v525c0 95.333 -18.833 163 -56.5 203
s-95.167 60 -172.5 60c-56.667 0 -106.834 -13.667 -150.501 -41s-78.5 -64.666 -104.5 -111.999v-635l163 -28v-126h-523v126z" />
    <glyph glyph-name="o" unicode="o" horiz-adv-x="1149" 
d="M90 551c0 160 43.333 291.833 130 395.5s204.334 155.5 353.001 155.5c149.333 0 267.5 -51.667 354.5 -155s130.5 -235.333 130.5 -396v-22c0 -161.333 -43.333 -293.333 -130 -396s-204.334 -154 -353.001 -154c-150 0 -268.333 51.5 -355 154.5
s-130 234.833 -130 395.5v22zM287 529c0 -114.667 24.1689 -209.334 72.502 -284.001s120.166 -112 215.499 -112c93.333 0 164.333 37.333 213 112s73 169.334 73 284.001v22c0 113.333 -24.333 207.666 -73 282.999s-120.334 113 -215.001 113s-166 -37.667 -214 -113
s-72 -169.666 -72 -282.999v-22z" />
    <glyph glyph-name="p" unicode="p" horiz-adv-x="1240" 
d="M65 -289l162.999 28v1188l-163 28v127h332l18 -132c36 49.333 79.833 87 131.5 113s111.5 39 179.5 39c134 0 238.167 -53.167 312.5 -159.5s111.5 -246.833 111.5 -421.5v-21c0 -156 -37.333 -281.833 -112 -377.5s-177.667 -143.5 -309 -143.5
c-66.667 0 -125.167 11.167 -175.5 33.5s-93.166 55.5 -128.499 99.5v-373l163 -28v-127h-523v127zM951.999 521c0 123.333 -24.001 224.333 -72.001 303s-119.333 118 -214 118c-56 0 -104 -12.667 -144 -38s-72.333 -60 -97 -104v-527
c24.667 -44.667 56.834 -79.167 96.501 -103.5s88.5 -36.5 146.5 -36.5c93.333 0 164 34 212 102s72 156.333 72 265v21z" />
    <glyph glyph-name="q" unicode="q" horiz-adv-x="1155" 
d="M90 521c0 174 37.1709 314.334 111.504 421.001s178.166 160 311.499 160c63.333 0 119.666 -11.833 168.999 -35.5s91.333 -58.167 126 -103.5l16 119h170v-1343l163 -28v-127h-523v127l163 28v363c-34.667 -40.667 -75.834 -71.334 -123.501 -92.001
s-101.834 -31 -162.501 -31c-132 0 -235.167 47.833 -309.5 143.5s-111.5 221.5 -111.5 377.5v21zM287.004 500.001c0 -109.333 22.334 -197.832 67.001 -265.499s113.667 -101.5 207 -101.5c54.667 0 101.167 12 139.5 36s70.5 58 96.5 102v543
c-26 40.667 -58.333 73 -97 97s-84.334 36 -137.001 36c-94 0 -163.5 -39.833 -208.5 -119.5s-67.5 -181.834 -67.5 -306.501v-21z" />
    <glyph glyph-name="r" unicode="r" horiz-adv-x="847" 
d="M89 955v127.001h339l19 -157c30.667 55.333 68.5 98.666 113.5 129.999s96.5 47 154.5 47c15.333 0 31.166 -1.16699 47.499 -3.5s28.833 -4.83301 37.5 -7.5l-26 -183l-112 6c-52 0 -95.667 -12.167 -131 -36.5s-62.666 -58.5 -81.999 -102.5v-621l163 -28v-126h-523
v126l163 28v773z" />
    <glyph glyph-name="s" unicode="s" horiz-adv-x="1044" 
d="M917 742l-148.001 -0.000976562l-32 130c-24 22.667 -54.167 40.834 -90.5 54.501s-77.5 20.5 -123.5 20.5c-70 0 -122 -15.333 -156 -46s-51 -67.667 -51 -111c0 -42.667 15 -76.334 45 -101.001s91 -46.667 183 -66c136.667 -29.333 238.334 -69.166 305.001 -119.499
s100 -117.833 100 -202.5c0 -96 -38.833 -173.667 -116.5 -233s-179.167 -89 -304.5 -89c-82 0 -155.667 9.5 -221 28.5s-123.666 46.5 -174.999 82.5l-1 247h148l37 -145c22.667 -20.667 53.5 -35.667 92.5 -45s78.833 -14 119.5 -14c70 0 124.833 14.167 164.5 42.5
s59.5 65.5 59.5 111.5c0 43.333 -16.5 79 -49.5 107s-95.5 52.333 -187.5 73c-131.333 28.667 -230.333 67.667 -297 117s-100 116 -100 200c0 88 37.5 163 112.5 225s172.5 93 292.5 93c82 0 155.667 -10.667 221 -32s119.666 -51 162.999 -89z" />
    <glyph glyph-name="t" unicode="t" horiz-adv-x="750" 
d="M433 1343l-0.000976562 -260.998h205v-146h-205v-657c0 -50.667 10.5 -86.334 31.5 -107.001s48.833 -31 83.5 -31c17.333 0 36.833 1.5 58.5 4.5s39.834 6.16699 54.501 9.5l27 -135c-18.667 -12 -46 -21.833 -82 -29.5s-72 -11.5 -108 -11.5
c-80 0 -143.667 24.167 -191 72.5s-71 124.166 -71 227.499v657h-171v146h171v261h197z" />
    <glyph glyph-name="u" unicode="u" horiz-adv-x="1244" 
d="M863 160c-34 -58 -77.833 -102.667 -131.5 -134s-115.5 -47 -185.5 -47c-117.333 0 -209 37.667 -275 113s-99 192.666 -99 351.999v483l-124 28v127h124h197v-640c0 -115.333 17 -194.666 51 -237.999s87 -65 159 -65c70 0 127.833 14.167 173.5 42.5
s80.167 68.5 103.5 120.5v625l-145 28v127h145h197v-928l124 -28v-126h-301z" />
    <glyph glyph-name="v" unicode="v" horiz-adv-x="1143" 
d="M460 955l-130 -20l223 -616l18 -78h6l19 78l216 616l-131 20v127h418v-127l-89 -15l-363 -940h-149l-367 940l-89 15v127h418v-127z" />
    <glyph glyph-name="w" unicode="w" horiz-adv-x="1693" 
d="M473 955l-124 -22l141 -539l23 -131h6l28 131l216 688h158l217 -688l31 -146h6l29 146l133 539l-126 22v127h412v-127l-94 -14l-273 -941h-159l-210 659l-45 182l-6 -1l-42 -181l-206 -659h-159l-273 941l-95 14v127h412v-127z" />
    <glyph glyph-name="x" unicode="x" horiz-adv-x="1192" 
d="M62 126l116 23l319 398l-309 385l-116 23v127h424v-127l-98 -12l202 -260l203 261l-97 11v127h427v-127l-116 -23l-309 -385l318 -398l117 -23v-126h-424v126l96 11l-212 272l-212 -272l97 -11v-126h-426v126z" />
    <glyph glyph-name="y" unicode="y" horiz-adv-x="1162" 
d="M1117 955l-97.001 -14.999l-412 -1106c-27.333 -72.667 -66.666 -136 -117.999 -190s-120.333 -81 -207 -81c-15.333 0 -35.333 1.83301 -60 5.5s-43.667 7.16699 -57 10.5l20 155c-4 0.666992 7.83301 0 35.5 -2s45.167 -3 52.5 -3c42 0 76 18.167 102 54.5
s48.667 78.166 68 125.499l47 112l-357 918l-99 16v127h437v-127l-122 -20l187 -534l36 -138h6l225 672l-123 20v127h436v-127z" />
    <glyph glyph-name="z" unicode="z" horiz-adv-x="1084" 
d="M346 154h442l16 167h167v-321h-859v138l585 788h-396l-15 -166h-168v322h820v-134z" />
    <glyph glyph-name="braceleft" unicode="{" horiz-adv-x="701" 
d="M631 -364c-130 36.667 -222.5 94.999 -277.5 174.999s-82.5 176.667 -82.5 290v205c0 74.667 -17 132.834 -51 174.501s-86.333 62.5 -157 62.5v147c70.667 0 123 20.5 157 61.5s51 99.167 51 174.5v206c0 114 27.5 210.833 82.5 290.5s147.5 137.834 277.5 174.501
l40 -117c-73.333 -23.333 -125.5 -65.166 -156.5 -125.499s-46.5 -134.5 -46.5 -222.5v-206c0 -70 -14 -131.667 -42 -185s-70.333 -95 -127 -125c56.667 -30.667 99 -72.834 127 -126.501s42 -114.834 42 -183.501v-205c0 -88 15.5 -161.833 46.5 -221.5
s83.167 -101.5 156.5 -125.5z" />
    <glyph glyph-name="bar" unicode="|" horiz-adv-x="451" 
d="M307 -270h-157v1726h157v-1726z" />
    <glyph glyph-name="braceright" unicode="}" horiz-adv-x="701" 
d="M27 -246c72 24 123.667 65.8379 155 125.505s47 133.5 47 221.5v205c0 71.333 15 133.666 45 186.999s76.333 94.333 139 123c-62.667 27.333 -109 67.666 -139 120.999s-45 116.333 -45 189v206c0 88 -15.667 162.167 -47 222.5s-83 102.166 -155 125.499l40 117
c129.333 -36.667 221.5 -94.834 276.5 -174.501s82.5 -176.5 82.5 -290.5v-206c0 -75.333 17 -133.5 51 -174.5s86.667 -61.5 158 -61.5v-147c-71.333 0 -124 -20.833 -158 -62.5s-51 -99.834 -51 -174.501v-205c0 -113.333 -27.5 -210 -82.5 -290
s-147.167 -138.333 -276.5 -175z" />
    <glyph glyph-name="asciitilde" unicode="~" horiz-adv-x="1386" 
d="M1257 740c0 -91.333 -29.165 -170.667 -87.498 -238s-130.833 -101 -217.5 -101c-59.333 0 -113.5 11 -162.5 33s-101.833 57.667 -158.5 107c-40 32 -76.333 56 -109 72s-65.334 24 -98.001 24c-44.667 0 -82.834 -17.667 -114.501 -53s-47.5 -78 -47.5 -128l-141 18
c0 90.667 28.5 168.167 85.5 232.5s129.5 96.5 217.5 96.5c58.667 0 113 -11.5 163 -34.5s103.333 -57.833 160 -104.5c39.333 -34 74.833 -58.667 106.5 -74s64.5 -23 98.5 -23c44 0 82.167 19 114.5 57s48.5 82.667 48.5 134z" />
    <glyph glyph-name="nonbreakingspace" unicode="&#xa0;" horiz-adv-x="509" 
 />
    <glyph glyph-name="exclamdown" unicode="&#xa1;" horiz-adv-x="481" 
d="M339 -374h-197v978h197v-978zM339 876h-197v206h197v-206z" />
    <glyph glyph-name="cent" unicode="&#xa2;" horiz-adv-x="1118" 
d="M589 133c65.333 0 122.832 20.167 172.499 60.5s74.5 89.833 74.5 148.5h178l2 -6c2.66699 -82 -30.5 -157 -99.5 -225s-153.167 -110 -252.5 -126v-230h-197v237c-118.667 25.333 -208.834 86.333 -270.501 183s-92.5 211.667 -92.5 345v42
c0 131.333 30.833 245.333 92.5 342s151.834 158.334 270.501 185.001v229h197v-220c69.333 -8 132 -25.5 188 -52.5s103.333 -61.833 142 -104.5l9 -240h-157l-43 170c-23.333 22.667 -53.333 41 -90 55s-78 21 -124 21c-103.333 0 -177.166 -37.167 -221.499 -111.5
s-66.5 -165.5 -66.5 -273.5v-42c0 -110.667 22 -202.834 66 -276.501s118 -110.5 222 -110.5z" />
    <glyph glyph-name="sterling" unicode="&#xa3;" horiz-adv-x="1179" 
d="M427 615l6 -148.999c0 -60 -5.16699 -117.167 -15.5 -171.5s-25.166 -101.166 -44.499 -140.499h551l16 167h167v-167h1l-1 -154h-975v154h10c31.333 8.66699 55 45.667 71 111s24 132.333 24 201l-6 149h-163v155h157l-10 270c0 136 37.333 242.833 112 320.5
s174.667 116.5 300 116.5c133.333 0 236.666 -34.833 309.999 -104.5s108.666 -161.834 105.999 -276.501l-2 -6h-189c0 78.667 -21.167 137 -63.5 175s-96.166 57 -161.499 57c-66 0 -118.333 -24.833 -157 -74.5s-58 -118.834 -58 -207.501l10 -270h419v-155h-414z" />
    <glyph glyph-name="currency" unicode="&#xa4;" horiz-adv-x="1461" 
d="M1087 108c-51.333 -41.333 -107.835 -72.999 -169.502 -94.999s-126.167 -33 -193.5 -33s-131.666 10.833 -192.999 32.5s-117.666 53.167 -168.999 94.5l-130 -133l-138 138l138 140c-33.333 50.667 -58.833 106.167 -76.5 166.5s-26.5 123.5 -26.5 189.5
c0 68 9.5 133.333 28.5 196s46.5 120 82.5 172l-146 149l138 139l143 -146c49.333 36.667 103.833 65.167 163.5 85.5s121.5 30.5 185.5 30.5c64.667 0 126.667 -10.333 186 -31s114 -49.667 164 -87l146 149l140 -140l-150 -153c34.667 -52 61.5 -108.833 80.5 -170.5
s28.5 -126.167 28.5 -193.5c0 -65.333 -8.83301 -127.833 -26.5 -187.5s-42.5 -114.834 -74.5 -165.501l142 -143l-140 -139zM310.998 608.001c0 -125.333 40.167 -232.166 120.5 -320.499s177.833 -132.5 292.5 -132.5c113.333 0 210.166 44.167 290.499 132.5
s120.5 195.166 120.5 320.499c0 124 -40.167 230 -120.5 318s-177.166 132 -290.499 132c-114.667 0 -212.167 -44 -292.5 -132s-120.5 -194 -120.5 -318z" />
    <glyph glyph-name="yen" unicode="&#xa5;" horiz-adv-x="1386" 
d="M1335 1329l-139 -20l-333 -571h312v-123h-383v-167h383v-122h-383v-172l163 -28v-126h-523v126l163 28v172h-375v122h375v167h-375v123h311l-333 570l-139 21v127h442v-127l-87 -15l283 -521l283 521l-86 15v127h441v-127z" />
    <glyph glyph-name="brokenbar" unicode="&#xa6;" horiz-adv-x="496" 
d="M150 -270v792h197v-792h-197zM347 698h-197v758h197v-758z" />
    <glyph glyph-name="section" unicode="&#xa7;" horiz-adv-x="1233" 
d="M1144 431c0 -62.667 -16.0039 -117.334 -48.0039 -164.001s-77.333 -83.334 -136 -110.001c46.667 -34 81.667 -73.667 105 -119s35 -100.666 35 -165.999c0 -114.667 -44.333 -204.5 -133 -269.5s-208 -97.5 -358 -97.5c-148 0 -272.167 34.167 -372.5 102.5
s-148.833 175.833 -145.5 322.5l2 6l188 2c0 -95.333 32.167 -165.5 96.5 -210.5s141.5 -67.5 231.5 -67.5c90.667 0 162.334 19.833 215.001 59.5s79 89.834 79 150.501s-24 107.834 -72 141.501s-140 71.5 -276 113.5c-159.333 42 -276.666 94 -351.999 156
s-113 152 -113 270c0 60.667 15.5 114.5 46.5 161.5s75.5 84.167 133.5 111.5c-45.333 33.333 -79.166 73.166 -101.499 119.499s-33.5 101.833 -33.5 166.5c0 110.667 44.5 199.5 133.5 266.5s208.5 100.5 358.5 100.5c154.667 0 275.5 -37.167 362.5 -111.5
s129.167 -178.833 126.5 -313.5l-3 -6h-188c0 78.667 -26.5 144.334 -79.5 197.001s-125.833 79 -218.5 79c-97.333 0 -170.833 -19.833 -220.5 -59.5s-74.5 -89.834 -74.5 -150.501c0 -66 22.333 -115.5 67 -148.5s137.334 -68.833 278.001 -107.5
c162.667 -46 281.167 -99.167 355.5 -159.5s111.5 -148.833 111.5 -265.5zM598.996 689c-32 8 -61.834 16.334 -89.501 25.001s-53.5 17.667 -77.5 27c-48.667 -12.667 -85 -35.667 -109 -69s-36 -73 -36 -119c0 -67.333 22.5 -118 67.5 -152s137.833 -70.667 278.5 -110
l90 -27.5c25.333 -7.66699 49.333 -15.5 72 -23.5c48.667 13.333 86.334 36.666 113.001 69.999s40 72.666 40 117.999c0 60.667 -24.5 108.834 -73.5 144.501s-140.833 74.5 -275.5 116.5z" />
    <glyph glyph-name="dieresis" unicode="&#xa8;" horiz-adv-x="992" 
d="M840 1256h-218v200h218v-200zM370 1256h-218v200h218v-200z" />
    <glyph glyph-name="copyright" unicode="&#xa9;" horiz-adv-x="1595" 
d="M1114 596l1.99805 -6c2.66699 -100.667 -25.166 -177.167 -83.499 -229.5s-139.833 -78.5 -244.5 -78.5c-106.667 0 -191.5 35.333 -254.5 106s-94.5 164.334 -94.5 281.001v119c0 115.333 31.5 208.666 94.5 279.999s147.833 107 254.5 107
c104.667 0 186.334 -26.333 245.001 -79s86.667 -128.667 84 -228l-2 -6h-146c0 63.333 -15.167 109.5 -45.5 138.5s-75.5 43.5 -135.5 43.5c-63.333 0 -112 -23.5 -146 -70.5s-51 -108.5 -51 -184.5v-120c0 -78 17 -140.333 51 -187s82.667 -70 146 -70
c60 0 105 14.333 135 43s45 75.667 45 141h146zM211.998 729c0 -176.667 57.333 -325.667 172 -447s254 -182 418 -182c162.667 0 301.334 60.667 416.001 182s172 270.333 172 447c0 175.333 -57.333 323.333 -172 444s-253.334 181 -416.001 181
c-164 0 -303.333 -60.167 -418 -180.5s-172 -268.5 -172 -444.5zM91.998 729c0 210 69 387 207 531s305.667 216 503 216c196.667 0 364 -72 502 -216s207 -321 207 -531c0 -210.667 -69.167 -388.334 -207.5 -533.001s-305.5 -217 -501.5 -217
c-197.333 0 -365 72.333 -503 217s-207 322.334 -207 533.001z" />
    <glyph glyph-name="ordfeminine" unicode="&#xaa;" horiz-adv-x="894" 
d="M598 706c-5.33301 14 -9.66797 28.999 -13.001 44.999s-6 32.667 -8 50c-22 -31.333 -51.667 -57.333 -89 -78s-81.666 -31 -132.999 -31c-79.333 0 -140.666 20.333 -183.999 61s-65 96.334 -65 167.001c0 73.333 28 130 84 170s138 60 246 60h138v52
c0 42 -9.83301 74.333 -29.5 97s-48.834 34 -87.501 34c-44.667 0 -79.167 -9 -103.5 -27s-36.5 -43.333 -36.5 -76l-163 13l-1 6c-4 65.333 22.333 119.666 79 162.999s131.667 65 225 65c88.667 0 159.167 -23.667 211.5 -71s78.5 -115.666 78.5 -204.999v-314
c0 -34 2 -65.667 6 -95s10.667 -58 20 -86h-175zM396.998 830.999c34 0 69 9.83301 105 29.5s60 41.5 72 65.5v110h-137c-50 0 -89 -11 -117 -33s-42 -48.333 -42 -79c0 -30 9.83301 -53 29.5 -69s49.5 -24 89.5 -24z" />
    <glyph glyph-name="guillemotleft" unicode="&#xab;" horiz-adv-x="935" 
d="M246 515l255 -398h-148l-295 389v19l295 389h148zM580 515l255 -398h-148l-295 389v19l295 389h148z" />
    <glyph glyph-name="logicalnot" unicode="&#xac;" horiz-adv-x="1122" 
d="M955 375h-197v262h-637v165h834v-427z" />
    <glyph glyph-name="uni00AD" unicode="&#xad;" horiz-adv-x="797" 
d="M643 538h-489v154h489v-154z" />
    <glyph glyph-name="registered" unicode="&#xae;" horiz-adv-x="1595" 
d="M92 729c0 210 69 387 207 531s305.667 216 503 216c196.667 0 364 -72 502 -216s207 -321 207 -531c0 -210.667 -69.167 -388.334 -207.5 -533.001s-305.5 -217 -501.5 -217c-197.333 0 -365 72.333 -503 217s-207 322.334 -207 533.001zM212 729
c0 -176.667 57.333 -325.667 172 -447s254 -182 418 -182c162.667 0 301.334 60.667 416.001 182s172 270.333 172 447c0 175.333 -57.333 323.333 -172 444s-253.334 181 -416.001 181c-164 0 -303.333 -60.167 -418 -180.5s-172 -268.5 -172 -444.5zM657 654v-337.999
h-149v850h280c101.333 0 180.666 -21.833 237.999 -65.5s86 -107.5 86 -191.5c0 -40.667 -11 -76.834 -33 -108.501s-53.667 -57.834 -95 -78.501c44 -17.333 75.833 -43.666 95.5 -78.999s29.5 -78 29.5 -128v-56c0 -27.333 1.16699 -51.833 3.5 -73.5
s6.83301 -39.5 13.5 -53.5v-16h-153c-6 14 -9.66699 34.5 -11 61.5s-2 54.5 -2 82.5v54c0 48 -11.167 83.333 -33.5 106s-59.166 34 -110.499 34h-159zM657 784.001l152 -0.000976562c43.333 0.666992 80 11.5 110 32.5s45 50.167 45 87.5c0 48.667 -13 82.834 -39 102.501
s-71.667 29.5 -137 29.5h-131v-252z" />
    <glyph glyph-name="macron" unicode="&#xaf;" horiz-adv-x="1028" 
d="M875 1310h-721v146h721v-146z" />
    <glyph glyph-name="macron" unicode="&#x2c9;" horiz-adv-x="1028" 
d="M875 1310h-721v146h721v-146z" />
    <glyph glyph-name="degree" unicode="&#xb0;" horiz-adv-x="757" 
d="M124 1216c0 70.667 25.167 131.834 75.5 183.501s110.5 77.5 180.5 77.5c69.333 0 128.833 -25.833 178.5 -77.5s74.5 -112.834 74.5 -183.501c0 -72 -24.833 -132.833 -74.5 -182.5s-109.167 -74.5 -178.5 -74.5c-70.667 0 -131 24.833 -181 74.5s-75 110.5 -75 182.5z
M254 1216c0 -36.667 12.167 -67 36.5 -91s54.166 -36 89.499 -36c34.667 0 63.834 12 87.501 36s35.5 54.333 35.5 91s-11.833 67.5 -35.5 92.5s-52.834 37.5 -87.501 37.5c-35.333 0 -65.166 -12.5 -89.499 -37.5s-36.5 -55.833 -36.5 -92.5z" />
    <glyph glyph-name="plusminus" unicode="&#xb1;" horiz-adv-x="1057" 
d="M633 856h358v-154h-358v-413h-178v413h-380v154h380v411h178v-411zM959 5h-835v155h835v-155z" />
    <glyph glyph-name="twosuperior" unicode="&#xb2;" horiz-adv-x="827" 
d="M714 667l-591.999 -0.00195312v130l302 262c46 39.333 76.167 71.5 90.5 96.5s21.5 51.833 21.5 80.5c0 33.333 -9.33301 60.333 -28 81s-47.334 31 -86.001 31c-44.667 0 -79.167 -10.667 -103.5 -32s-36.5 -48.666 -36.5 -81.999h-161l-2 6c-4 66 22 122.333 78 169
s131 70 225 70c90 0 160.333 -21.333 211 -64s76 -102.667 76 -180c0 -53.333 -14.833 -98.666 -44.5 -135.999s-83.167 -91 -160.5 -161l-153 -135l2 -6h361v-130z" />
    <glyph glyph-name="threesuperior" unicode="&#xb3;" horiz-adv-x="845" 
d="M424 1137c44.667 0 77.667 9.49805 99 28.498s32 45.833 32 80.5c0 29.333 -12 53.5 -36 72.5s-59 28.5 -105 28.5c-37.333 0 -67.666 -8 -90.999 -24s-35 -37.333 -35 -64h-162l-2 6c-4 62.667 22.167 113.834 78.5 153.501s126.833 59.5 211.5 59.5
c96.667 0 173 -19.833 229 -59.5s84 -96.167 84 -169.5c0 -36.667 -11.833 -70.167 -35.5 -100.5s-56.167 -54.166 -97.5 -71.499c47.333 -16 83.5 -39.833 108.5 -71.5s37.5 -70.167 37.5 -115.5c0 -74 -30 -131.667 -90 -173s-138.667 -62 -236 -62
c-84.667 0 -157.334 19.333 -218.001 58s-89 95 -85 169l1 6h163c0 -30.667 12.5 -55.5 37.5 -74.5s58.833 -28.5 101.5 -28.5c48 0 85.833 9.83301 113.5 29.5s41.5 45.5 41.5 77.5c0 42 -12 72.333 -36 91s-60.333 28 -109 28h-133v126h133z" />
    <glyph glyph-name="acute" unicode="&#xb4;" horiz-adv-x="599" 
d="M279 1478h230l2 -6l-269 -260h-147z" />
    <glyph glyph-name="mu" unicode="&#xb5;" horiz-adv-x="1315" 
d="M900 109c-29.333 -42.667 -65.334 -74.999 -108.001 -96.999s-91.667 -33 -147 -33c-48 0 -90 5.5 -126 16.5s-67.333 28.167 -94 51.5v-463h-196v1343l-163 28v127h163h196v-622c0 -126 18.333 -212 55 -258s89 -69 157 -69c66 0 119.333 12.167 160 36.5
s71.334 60.166 92.001 107.499v650l-163 28v127h360v-928l163 -28v-126h-340z" />
    <glyph glyph-name="paragraph" unicode="&#xb6;" horiz-adv-x="1090" 
d="M570 520c-156 0 -276.999 43.168 -362.999 129.501s-129 199.166 -129 338.499c0 138 43.167 250.5 129.5 337.5s207.166 130.5 362.499 130.5h443v-127l-163 -28v-1147l163 -28v-126h-523v126l163 28v366h-83z" />
    <glyph glyph-name="periodcentered" unicode="&#xb7;" horiz-adv-x="516" 
d="M357 624h-198v212h198v-212z" />
    <glyph glyph-name="cedilla" unicode="&#xb8;" horiz-adv-x="470" 
d="M276 0l-12 -52.0029c43.333 -7.33301 79.333 -24.666 108 -51.999s43 -67.666 43 -120.999c0 -64 -26.333 -115 -79 -153s-128 -57 -226 -57l-7 109c48 0 86.5 8.16699 115.5 24.5s43.5 40.833 43.5 73.5c0 32 -12 54.333 -36 67s-65 21.334 -123 26.001l32 135h141z" />
    <glyph glyph-name="onesuperior" unicode="&#xb9;" horiz-adv-x="547" 
d="M396 665h-174v655h-127v134l301 23v-812z" />
    <glyph glyph-name="ordmasculine" unicode="&#xba;" horiz-adv-x="941" 
d="M121 1142c0 98.667 31.168 179.167 93.501 241.5s146.166 93.5 251.499 93.5s189.333 -31.167 252 -93.5s94 -142.833 94 -241.5v-117c0 -99.333 -31.167 -179.833 -93.5 -241.5s-145.833 -92.5 -250.5 -92.5c-106 0 -190.333 30.833 -253 92.5s-94 142.167 -94 241.5
v117zM293.001 1025c0 -58.667 14.668 -105.5 44.001 -140.5s73 -52.5 131 -52.5c55.333 0 97.666 17.667 126.999 53s44 82 44 140v117c0 56 -14.833 101.833 -44.5 137.5s-72.5 53.5 -128.5 53.5s-98.833 -17.833 -128.5 -53.5s-44.5 -81.5 -44.5 -137.5v-117z" />
    <glyph glyph-name="guillemotright" unicode="&#xbb;" horiz-adv-x="938" 
d="M253 949l295 -389v-19l-295 -389h-148l254 398l-254 399h148zM598 949l295 -389v-19l-295 -389h-148l254 398l-254 399h148z" />
    <glyph glyph-name="onequarter" unicode="&#xbc;" horiz-adv-x="1443" 
d="M484 664h-174v655h-127v134l301 23v-812zM430 118l-109 67l711 1138l109 -67zM1380 282h126v-130h-126v-152h-170v152h-417l-8 102l421 547h174v-519zM967 282h243v310l-6 1l-13 -22z" />
    <glyph glyph-name="onehalf" unicode="&#xbd;" horiz-adv-x="1480" 
d="M443 118l-109 67l711 1138l109 -67zM484 664h-174v655h-127v134l301 23v-812zM1524 0l-591.999 -0.00195312v130l302 262c46 39.333 76.167 71.5 90.5 96.5s21.5 51.833 21.5 80.5c0 33.333 -9.33301 60.333 -28 81s-47.334 31 -86.001 31
c-44.667 0 -79.167 -10.667 -103.5 -32s-36.5 -48.666 -36.5 -81.999h-161l-2 6c-4 66 22 122.333 78 169s131 70 225 70c90 0 160.333 -21.333 211 -64s76 -102.667 76 -180c0 -53.333 -14.833 -98.666 -44.5 -135.999s-83.167 -91 -160.5 -161l-153 -135l2 -6h361v-130z
" />
    <glyph glyph-name="threequarters" unicode="&#xbe;" horiz-adv-x="1690" 
d="M614 118l-109 67l711 1138l109 -67zM1569 282h126v-130h-126v-152h-170v152h-417l-8 102l421 547h174v-519zM1156 282h243v310l-6 1l-13 -22zM440 1138c44.667 0 77.667 9.49805 99 28.498s32 45.833 32 80.5c0 29.333 -12 53.5 -36 72.5s-59 28.5 -105 28.5
c-37.333 0 -67.666 -8 -90.999 -24s-35 -37.333 -35 -64h-162l-2 6c-4 62.667 22.167 113.834 78.5 153.501s126.833 59.5 211.5 59.5c96.667 0 173 -19.833 229 -59.5s84 -96.167 84 -169.5c0 -36.667 -11.833 -70.167 -35.5 -100.5s-56.167 -54.166 -97.5 -71.499
c47.333 -16 83.5 -39.833 108.5 -71.5s37.5 -70.167 37.5 -115.5c0 -74 -30 -131.667 -90 -173s-138.667 -62 -236 -62c-84.667 0 -157.334 19.333 -218.001 58s-89 95 -85 169l1 6h163c0 -30.667 12.5 -55.5 37.5 -74.5s58.833 -28.5 101.5 -28.5
c48 0 85.833 9.83301 113.5 29.5s41.5 45.5 41.5 77.5c0 42 -12 72.333 -36 91s-60.333 28 -109 28h-133v126h133z" />
    <glyph glyph-name="questiondown" unicode="&#xbf;" horiz-adv-x="890" 
d="M588 672c-1.33301 -97.333 -9.99902 -164.667 -25.999 -202s-57.667 -86.333 -125 -147c-67.333 -80 -114.5 -140.667 -141.5 -182s-40.5 -91 -40.5 -149c0 -71.333 18.5 -125.833 55.5 -163.5s90.833 -56.5 161.5 -56.5c60 0 111.5 16.5 154.5 49.5
s64.5 81.5 64.5 145.5h188l3 -6c1.33301 -107.333 -36.834 -193.333 -114.501 -258s-176.167 -97 -295.5 -97c-132 0 -234 33.5 -306 100.5s-108 160.5 -108 280.5c0 84.667 23.167 162.5 69.5 233.5s108.5 144.5 186.5 220.5c35.333 35.333 57 67.333 65 96
s12 73.667 12 135h197zM385.001 1083h205v-209h-205v209z" />
    <glyph glyph-name="Agrave" unicode="&#xc0;" 
d="M55 126l108 15l509 1315h169l500 -1315l107 -15v-126h-418v126l110 19l-96 268h-583l-99 -268l110 -19v-126h-417v126zM522 578h462l-226 625h-6zM843 1559h-159l-249 260l3 6h230z" />
    <glyph glyph-name="Aacute" unicode="&#xc1;" 
d="M55 126l108 15l509 1315h169l500 -1315l107 -15v-126h-418v126l110 19l-96 268h-583l-99 -268l110 -19v-126h-417v126zM522 578h462l-226 625h-6zM815 1822h230l2 -6l-269 -260h-147z" />
    <glyph glyph-name="Acircumflex" unicode="&#xc2;" 
d="M55 126l108 15l509 1315h169l500 -1315l107 -15v-126h-418v126l110 19l-96 268h-583l-99 -268l110 -19v-126h-417v126zM522 578h462l-226 625h-6zM1065 1612v-25h-161l-147 148l-145 -148h-160v26l246 237h119z" />
    <glyph glyph-name="Atilde" unicode="&#xc3;" 
d="M55 126l108 15l509 1315h169l500 -1315l107 -15v-126h-418v126l110 19l-96 268h-583l-99 -268l110 -19v-126h-417v126zM522 578h462l-226 625h-6zM1095 1843c0 -62.667 -19.834 -115.666 -59.501 -158.999s-89.5 -65 -149.5 -65c-47.333 0 -96.666 15.5 -147.999 46.5
s-94 46.5 -128 46.5c-28 0 -51.833 -10.833 -71.5 -32.5s-29.5 -47.834 -29.5 -78.501l-107 26c0 62 19.5 115.833 58.5 161.5s88.833 68.5 149.5 68.5c37.333 0 84 -15.667 140 -47s101.333 -47 136 -47c27.333 0 51 10.833 71 32.5s30 48.167 30 79.5z" />
    <glyph glyph-name="Adieresis" unicode="&#xc4;" 
d="M55 126l108 15l509 1315h169l500 -1315l107 -15v-126h-418v126l110 19l-96 268h-583l-99 -268l110 -19v-126h-417v126zM522 578h462l-226 625h-6zM1083 1604h-218v200h218v-200zM613 1604h-218v200h218v-200z" />
    <glyph glyph-name="Aring" unicode="&#xc5;" 
d="M55 126l108 15l509 1315h169l500 -1315l107 -15v-126h-418v126l110 19l-96 268h-583l-99 -268l110 -19v-126h-417v126zM522 578h462l-226 625h-6zM555 1735c0 56 20.167 103.001 60.5 141.001s89.5 57 147.5 57c56.667 0 105 -18.833 145 -56.5s60 -84.834 60 -141.501
c0 -57.333 -20 -104 -60 -140s-88.333 -54 -145 -54c-58 0 -107.167 18 -147.5 54s-60.5 82.667 -60.5 140zM658 1735c0 -28.667 10.3311 -53.167 30.998 -73.5s45.334 -30.5 74.001 -30.5c28 0 52 9.83301 72 29.5s30 44.5 30 74.5s-10 55.333 -30 76s-44 31 -72 31
c-29.333 0 -54.166 -10.333 -74.499 -31s-30.5 -46 -30.5 -76z" />
    <glyph glyph-name="AE" unicode="&#xc6;" horiz-adv-x="2096" 
d="M51 126l141 20l793 1310h967v-322h-168l-15 167h-508l20 -466h590v-155h-584l22 -526h522l16 167h167v-321h-1058v126l156 27l-8 197h-556l-121 -210l82 -14v-126h-458v126zM651 529h446l-31 710l-5 2z" />
    <glyph glyph-name="Ccedilla" unicode="&#xc7;" horiz-adv-x="1321" 
d="M1200 1009l-139 0.000976562l-37 206c-32 31.333 -71.333 57 -118 77s-102.334 30 -167.001 30c-151.333 0 -267.666 -54.833 -348.999 -164.5s-122 -248.834 -122 -417.501v-23c0 -168.667 39.833 -308.167 119.5 -418.5s190.167 -165.5 331.5 -165.5
c66 0 126 10.333 180 31s95.667 46 125 76l37 206h139v-259c-42 -54 -105 -102.167 -189 -144.5s-181.333 -63.5 -292 -63.5c-189.333 0 -344.666 70 -465.999 210s-182 316 -182 528v21c0 213.333 59.667 389.833 179 529.5s275.666 209.5 468.999 209.5
c110.667 0 208 -21.5 292 -64.5s147 -91.167 189 -144.5v-259zM774 -7.99902l-12 -52.0029c43.333 -7.33301 79.333 -24.666 108 -51.999s43 -67.666 43 -120.999c0 -64 -26.333 -115 -79 -153s-128 -57 -226 -57l-7 109c48 0 86.5 8.16699 115.5 24.5
s43.5 40.833 43.5 73.5c0 32 -12 54.333 -36 67s-65 21.334 -123 26.001l32 135h141z" />
    <glyph glyph-name="Egrave" unicode="&#xc8;" horiz-adv-x="1306" 
d="M71 0v126l163 28v1147l-163 28v127h1118v-350h-169l-16 195h-573v-471h557v-155h-557v-521h585l16 195h168v-349h-1129zM737 1560h-159l-249 260l3 6h230z" />
    <glyph glyph-name="Eacute" unicode="&#xc9;" horiz-adv-x="1306" 
d="M71 0v126l163 28v1147l-163 28v127h1118v-350h-169l-16 195h-573v-471h557v-155h-557v-521h585l16 195h168v-349h-1129zM709 1823h230l2 -6l-269 -260h-147z" />
    <glyph glyph-name="Ecircumflex" unicode="&#xca;" horiz-adv-x="1306" 
d="M71 0v126l163 28v1147l-163 28v127h1118v-350h-169l-16 195h-573v-471h557v-155h-557v-521h585l16 195h168v-349h-1129zM959 1613v-25h-161l-147 148l-145 -148h-160v26l246 237h119z" />
    <glyph glyph-name="Edieresis" unicode="&#xcb;" horiz-adv-x="1306" 
d="M71 0v126l163 28v1147l-163 28v127h1118v-350h-169l-16 195h-573v-471h557v-155h-557v-521h585l16 195h168v-349h-1129zM977 1605h-218v200h218v-200zM507 1605h-218v200h218v-200z" />
    <glyph glyph-name="Igrave" unicode="&#xcc;" horiz-adv-x="662" 
d="M70 1329v127h523v-127l-163 -28v-1147l163 -28v-126h-523v126l163 28v1147zM424 1558h-159l-249 260l3 6h230z" />
    <glyph glyph-name="Iacute" unicode="&#xcd;" horiz-adv-x="662" 
d="M70 1329v127h523v-127l-163 -28v-1147l163 -28v-126h-523v126l163 28v1147zM395 1821h230l2 -6l-269 -260h-147z" />
    <glyph glyph-name="Icircumflex" unicode="&#xce;" horiz-adv-x="662" 
d="M70 1329v127h523v-127l-163 -28v-1147l163 -28v-126h-523v126l163 28v1147zM646 1611v-25h-161l-147 148l-145 -148h-160v26l246 237h119z" />
    <glyph glyph-name="Idieresis" unicode="&#xcf;" horiz-adv-x="662" 
d="M70 1329v127h523v-127l-163 -28v-1147l163 -28v-126h-523v126l163 28v1147zM664 1603h-218v200h218v-200zM194 1603h-218v200h218v-200z" />
    <glyph glyph-name="Eth" unicode="&#xd0;" horiz-adv-x="1449" 
d="M711 1456c190 0 342.833 -58.5 458.5 -175.5s173.5 -268.167 173.5 -453.5v-199c0 -186 -57.833 -337.167 -173.5 -453.5s-268.5 -174.5 -458.5 -174.5h-610v126l163 28v509h-198v155h198v483l-163 28v127h610zM707 663l-246 -0.000976562v-509h250
c134.667 0 240.834 44.333 318.501 133s116.5 202.334 116.5 341.001v201c0 137.333 -38.833 250.333 -116.5 339s-183.834 133 -318.501 133h-250v-483h246v-155z" />
    <glyph glyph-name="Ntilde" unicode="&#xd1;" horiz-adv-x="1560" 
d="M1497 1456v-127l-163 -28v-1301h-197l-700 1124l-6 -2v-968l163 -28v-126h-523v126l163 28v1147l-163 28v127h163h197l700 -1123l6 2v966l-163 28v127h360h163zM1089 1844c0 -62.667 -19.834 -115.666 -59.501 -158.999s-89.5 -65 -149.5 -65
c-47.333 0 -96.666 15.5 -147.999 46.5s-94 46.5 -128 46.5c-28 0 -51.833 -10.833 -71.5 -32.5s-29.5 -47.834 -29.5 -78.501l-107 26c0 62 19.5 115.833 58.5 161.5s88.833 68.5 149.5 68.5c37.333 0 84 -15.667 140 -47s101.333 -47 136 -47c27.333 0 51 10.833 71 32.5
s30 48.167 30 79.5z" />
    <glyph glyph-name="Ograve" unicode="&#xd2;" horiz-adv-x="1445" 
d="M1368 717c0 -212 -60.833 -388 -182.5 -528s-279.167 -210 -472.5 -210c-188 0 -340.667 70 -458 210s-176 316 -176 528v21c0 211.333 58.667 387.333 176 528s270 211 458 211c193.333 0 350.833 -70.333 472.5 -211s182.5 -316.667 182.5 -528v-21zM1171 740
c0 169.333 -40.5 307.5 -121.5 414.5s-193.167 160.5 -336.5 160.5c-137.333 0 -244.5 -53.667 -321.5 -161s-115.5 -245.333 -115.5 -414v-23c0 -170.667 38.5 -309.5 115.5 -416.5s184.167 -160.5 321.5 -160.5c145.333 0 258 53.333 338 160s120 245.667 120 417v23z
M805 1559h-159l-249 260l3 6h230z" />
    <glyph glyph-name="Oacute" unicode="&#xd3;" horiz-adv-x="1445" 
d="M1368 717c0 -212 -60.833 -388 -182.5 -528s-279.167 -210 -472.5 -210c-188 0 -340.667 70 -458 210s-176 316 -176 528v21c0 211.333 58.667 387.333 176 528s270 211 458 211c193.333 0 350.833 -70.333 472.5 -211s182.5 -316.667 182.5 -528v-21zM1171 740
c0 169.333 -40.5 307.5 -121.5 414.5s-193.167 160.5 -336.5 160.5c-137.333 0 -244.5 -53.667 -321.5 -161s-115.5 -245.333 -115.5 -414v-23c0 -170.667 38.5 -309.5 115.5 -416.5s184.167 -160.5 321.5 -160.5c145.333 0 258 53.333 338 160s120 245.667 120 417v23z
M777 1822h230l2 -6l-269 -260h-147z" />
    <glyph glyph-name="Ocircumflex" unicode="&#xd4;" horiz-adv-x="1445" 
d="M1368 717c0 -212 -60.833 -388 -182.5 -528s-279.167 -210 -472.5 -210c-188 0 -340.667 70 -458 210s-176 316 -176 528v21c0 211.333 58.667 387.333 176 528s270 211 458 211c193.333 0 350.833 -70.333 472.5 -211s182.5 -316.667 182.5 -528v-21zM1171 740
c0 169.333 -40.5 307.5 -121.5 414.5s-193.167 160.5 -336.5 160.5c-137.333 0 -244.5 -53.667 -321.5 -161s-115.5 -245.333 -115.5 -414v-23c0 -170.667 38.5 -309.5 115.5 -416.5s184.167 -160.5 321.5 -160.5c145.333 0 258 53.333 338 160s120 245.667 120 417v23z
M1027 1612v-25h-161l-147 148l-145 -148h-160v26l246 237h119z" />
    <glyph glyph-name="Otilde" unicode="&#xd5;" horiz-adv-x="1445" 
d="M1368 717c0 -212 -60.833 -388 -182.5 -528s-279.167 -210 -472.5 -210c-188 0 -340.667 70 -458 210s-176 316 -176 528v21c0 211.333 58.667 387.333 176 528s270 211 458 211c193.333 0 350.833 -70.333 472.5 -211s182.5 -316.667 182.5 -528v-21zM1171 740
c0 169.333 -40.5 307.5 -121.5 414.5s-193.167 160.5 -336.5 160.5c-137.333 0 -244.5 -53.667 -321.5 -161s-115.5 -245.333 -115.5 -414v-23c0 -170.667 38.5 -309.5 115.5 -416.5s184.167 -160.5 321.5 -160.5c145.333 0 258 53.333 338 160s120 245.667 120 417v23z
M1057 1843c0 -62.667 -19.834 -115.666 -59.501 -158.999s-89.5 -65 -149.5 -65c-47.333 0 -96.666 15.5 -147.999 46.5s-94 46.5 -128 46.5c-28 0 -51.833 -10.833 -71.5 -32.5s-29.5 -47.834 -29.5 -78.501l-107 26c0 62 19.5 115.833 58.5 161.5s88.833 68.5 149.5 68.5
c37.333 0 84 -15.667 140 -47s101.333 -47 136 -47c27.333 0 51 10.833 71 32.5s30 48.167 30 79.5z" />
    <glyph glyph-name="Odieresis" unicode="&#xd6;" horiz-adv-x="1445" 
d="M1368 717c0 -212 -60.833 -388 -182.5 -528s-279.167 -210 -472.5 -210c-188 0 -340.667 70 -458 210s-176 316 -176 528v21c0 211.333 58.667 387.333 176 528s270 211 458 211c193.333 0 350.833 -70.333 472.5 -211s182.5 -316.667 182.5 -528v-21zM1171 740
c0 169.333 -40.5 307.5 -121.5 414.5s-193.167 160.5 -336.5 160.5c-137.333 0 -244.5 -53.667 -321.5 -161s-115.5 -245.333 -115.5 -414v-23c0 -170.667 38.5 -309.5 115.5 -416.5s184.167 -160.5 321.5 -160.5c145.333 0 258 53.333 338 160s120 245.667 120 417v23z
M1045 1604h-218v200h218v-200zM575 1604h-218v200h218v-200z" />
    <glyph glyph-name="multiply" unicode="&#xd7;" horiz-adv-x="1070" 
d="M79 351l327 334l-327 334l126 126l326 -333l327 333l126 -126l-328 -334l328 -334l-126 -126l-327 332l-326 -332z" />
    <glyph glyph-name="Oslash" unicode="&#xd8;" horiz-adv-x="1404" 
d="M1368 717c0 -212 -60.833 -387.999 -182.5 -527.999s-279.167 -210 -472.5 -210c-60 0 -116.833 7.66699 -170.5 23s-103.5 37.666 -149.5 66.999l-97 -163h-149l144 244c-68 67.333 -120.333 149.833 -157 247.5s-55 204.167 -55 319.5v21
c0 211.333 58.667 387.333 176 528s270 211 458 211c58 0 113.5 -7.16699 166.5 -21.5s103.167 -34.833 150.5 -61.5l73 123h149l-118 -199c74 -68 131.5 -152.167 172.5 -252.5s61.5 -209.5 61.5 -327.5v-21zM1171 740.001c0 86 -11 164.832 -33 236.499
s-53.333 131.834 -94 180.501l-6 1l-560 -945c32 -24 67.667 -42.167 107 -54.5s82 -18.5 128 -18.5c145.333 0 258 53.333 338 160s120 245.667 120 417v23zM276 717c0 -82 9.16797 -157.5 27.501 -226.5s45.166 -127.167 80.499 -174.5h6l555 935
c-33.333 20.667 -69.333 36.5 -108 47.5s-80 16.5 -124 16.5c-137.333 0 -244.5 -53.667 -321.5 -161s-115.5 -245.333 -115.5 -414v-23z" />
    <glyph glyph-name="Ugrave" unicode="&#xd9;" horiz-adv-x="1541" 
d="M583 1456l-0.000976562 -127.001l-163 -28v-832c0 -110 31.333 -193.5 94 -250.5s145.334 -85.5 248.001 -85.5c108 0 195 28.333 261 85s99 140.334 99 251.001v832l-163 28v127h360h163v-127l-163 -28v-832c0 -158 -51.5 -279.167 -154.5 -363.5
s-237.167 -126.5 -402.5 -126.5c-160.667 0 -290.667 42.167 -390 126.5s-149 205.5 -149 363.5v832l-163 28v127h163h360zM837.999 1559h-159l-249 260l3 6h230z" />
    <glyph glyph-name="Uacute" unicode="&#xda;" horiz-adv-x="1541" 
d="M583 1456l-0.000976562 -127.001l-163 -28v-832c0 -110 31.333 -193.5 94 -250.5s145.334 -85.5 248.001 -85.5c108 0 195 28.333 261 85s99 140.334 99 251.001v832l-163 28v127h360h163v-127l-163 -28v-832c0 -158 -51.5 -279.167 -154.5 -363.5
s-237.167 -126.5 -402.5 -126.5c-160.667 0 -290.667 42.167 -390 126.5s-149 205.5 -149 363.5v832l-163 28v127h163h360zM809.999 1822h230l2 -6l-269 -260h-147z" />
    <glyph glyph-name="Ucircumflex" unicode="&#xdb;" horiz-adv-x="1541" 
d="M583 1456l-0.000976562 -127.001l-163 -28v-832c0 -110 31.333 -193.5 94 -250.5s145.334 -85.5 248.001 -85.5c108 0 195 28.333 261 85s99 140.334 99 251.001v832l-163 28v127h360h163v-127l-163 -28v-832c0 -158 -51.5 -279.167 -154.5 -363.5
s-237.167 -126.5 -402.5 -126.5c-160.667 0 -290.667 42.167 -390 126.5s-149 205.5 -149 363.5v832l-163 28v127h163h360zM1060 1612v-25h-161l-147 148l-145 -148h-160v26l246 237h119z" />
    <glyph glyph-name="Udieresis" unicode="&#xdc;" horiz-adv-x="1541" 
d="M583 1456l-0.000976562 -127.001l-163 -28v-832c0 -110 31.333 -193.5 94 -250.5s145.334 -85.5 248.001 -85.5c108 0 195 28.333 261 85s99 140.334 99 251.001v832l-163 28v127h360h163v-127l-163 -28v-832c0 -158 -51.5 -279.167 -154.5 -363.5
s-237.167 -126.5 -402.5 -126.5c-160.667 0 -290.667 42.167 -390 126.5s-149 205.5 -149 363.5v832l-163 28v127h163h360zM1078 1604h-218v200h218v-200zM607.999 1604h-218v200h218v-200z" />
    <glyph glyph-name="Yacute" unicode="&#xdd;" horiz-adv-x="1416" 
d="M555 1329l-157 -19l305 -594l305 594l-156 19v127h500v-127l-123 -19l-432 -798v-358l163 -28v-126h-522v126l163 28v373l-424 783l-122 19v127h500v-127zM757 1822h230l2 -6l-269 -260h-147z" />
    <glyph glyph-name="Thorn" unicode="&#xde;" horiz-adv-x="1277" 
d="M70 126l163 28v1147l-163 28v127h360h163v-127l-163 -28v-138h269c154 0 274.333 -39.333 361 -118s130 -181 130 -307c0 -126.667 -43.333 -229.167 -130 -307.5s-207 -117.5 -361 -117.5h-269v-159l163 -28v-126h-523v126zM430 1009v-542h269
c97.333 0 170.666 26 219.999 78s74 115.667 74 191c0 76 -24.667 140.5 -74 193.5s-122.666 79.5 -219.999 79.5h-269z" />
    <glyph glyph-name="germandbls" unicode="&#xdf;" horiz-adv-x="1288" 
d="M414 0l-359.001 -0.000976562v126l163 28v928c0 148.667 39 264.667 117 348s178.333 125 301 125c106.667 0 193.667 -28.667 261 -86s101 -141.666 101 -252.999c0 -78.667 -21.333 -154.667 -64 -228s-64 -129 -64 -167c0 -54.667 57.667 -129.334 173 -224.001
s173 -188.334 173 -281.001c0 -111.333 -34.667 -195.333 -104 -252s-163.333 -85 -282 -85c-56 0 -113.5 6.83301 -172.5 20.5s-100.833 30.5 -125.5 50.5l43 159c28 -18.667 64 -36 108 -52s86 -24 126 -24c72.667 0 125.834 15.667 159.501 47s50.5 73.333 50.5 126
c0 56 -57.667 131.833 -173 227.5s-173 192.167 -173 289.5c0 53.333 23.333 116.833 70 190.5s70 135.834 70 186.501c0 62.667 -16.833 111.834 -50.5 147.501s-72.5 53.5 -116.5 53.5c-70 0 -126.167 -27.667 -168.5 -83s-63.5 -134 -63.5 -236v-1082z" />
    <glyph glyph-name="agrave" unicode="&#xe0;" horiz-adv-x="1128" 
d="M795 0c-6 29.333 -10.666 55.667 -13.999 79s-5.66602 46.666 -6.99902 69.999c-38 -48.667 -85.5 -89.167 -142.5 -121.5s-117.833 -48.5 -182.5 -48.5c-112.667 0 -198.334 27.5 -257.001 82.5s-88 132.5 -88 232.5c0 102.667 41.5 181.834 124.5 237.501
s196.833 83.5 341.5 83.5h203v126c0 63.333 -20 113.5 -60 150.5s-95.667 55.5 -167 55.5c-49.333 0 -92.833 -6.33301 -130.5 -19s-68.167 -30 -91.5 -52l-21 -114h-152v210c49.333 39.333 109 70.833 179 94.5s146 35.5 228 35.5c122.667 0 222 -31.333 298 -94
s114 -152.334 114 -269.001v-521c0 -14 0.166992 -27.667 0.5 -41s1.16602 -26.666 2.49902 -39.999l80 -11v-126h-258zM478.001 144.001c65.333 0 125.001 15.666 179.001 46.999s92.667 69 116 113v178h-210c-80.667 0 -144.5 -18.667 -191.5 -56
s-70.5 -82.666 -70.5 -135.999c0 -47.333 14.667 -83.5 44 -108.5s73.666 -37.5 132.999 -37.5zM641.002 1235h-159l-249 260l3 6h230z" />
    <glyph glyph-name="aacute" unicode="&#xe1;" horiz-adv-x="1128" 
d="M795 0c-6 29.333 -10.666 55.667 -13.999 79s-5.66602 46.666 -6.99902 69.999c-38 -48.667 -85.5 -89.167 -142.5 -121.5s-117.833 -48.5 -182.5 -48.5c-112.667 0 -198.334 27.5 -257.001 82.5s-88 132.5 -88 232.5c0 102.667 41.5 181.834 124.5 237.501
s196.833 83.5 341.5 83.5h203v126c0 63.333 -20 113.5 -60 150.5s-95.667 55.5 -167 55.5c-49.333 0 -92.833 -6.33301 -130.5 -19s-68.167 -30 -91.5 -52l-21 -114h-152v210c49.333 39.333 109 70.833 179 94.5s146 35.5 228 35.5c122.667 0 222 -31.333 298 -94
s114 -152.334 114 -269.001v-521c0 -14 0.166992 -27.667 0.5 -41s1.16602 -26.666 2.49902 -39.999l80 -11v-126h-258zM478.001 144.001c65.333 0 125.001 15.666 179.001 46.999s92.667 69 116 113v178h-210c-80.667 0 -144.5 -18.667 -191.5 -56
s-70.5 -82.666 -70.5 -135.999c0 -47.333 14.667 -83.5 44 -108.5s73.666 -37.5 132.999 -37.5zM613.002 1498h230l2 -6l-269 -260h-147z" />
    <glyph glyph-name="acircumflex" unicode="&#xe2;" horiz-adv-x="1128" 
d="M795 0c-6 29.333 -10.666 55.667 -13.999 79s-5.66602 46.666 -6.99902 69.999c-38 -48.667 -85.5 -89.167 -142.5 -121.5s-117.833 -48.5 -182.5 -48.5c-112.667 0 -198.334 27.5 -257.001 82.5s-88 132.5 -88 232.5c0 102.667 41.5 181.834 124.5 237.501
s196.833 83.5 341.5 83.5h203v126c0 63.333 -20 113.5 -60 150.5s-95.667 55.5 -167 55.5c-49.333 0 -92.833 -6.33301 -130.5 -19s-68.167 -30 -91.5 -52l-21 -114h-152v210c49.333 39.333 109 70.833 179 94.5s146 35.5 228 35.5c122.667 0 222 -31.333 298 -94
s114 -152.334 114 -269.001v-521c0 -14 0.166992 -27.667 0.5 -41s1.16602 -26.666 2.49902 -39.999l80 -11v-126h-258zM478.001 144.001c65.333 0 125.001 15.666 179.001 46.999s92.667 69 116 113v178h-210c-80.667 0 -144.5 -18.667 -191.5 -56
s-70.5 -82.666 -70.5 -135.999c0 -47.333 14.667 -83.5 44 -108.5s73.666 -37.5 132.999 -37.5zM863.002 1288v-25h-161l-147 148l-145 -148h-160v26l246 237h119z" />
    <glyph glyph-name="atilde" unicode="&#xe3;" horiz-adv-x="1128" 
d="M795 0c-6 29.333 -10.666 55.667 -13.999 79s-5.66602 46.666 -6.99902 69.999c-38 -48.667 -85.5 -89.167 -142.5 -121.5s-117.833 -48.5 -182.5 -48.5c-112.667 0 -198.334 27.5 -257.001 82.5s-88 132.5 -88 232.5c0 102.667 41.5 181.834 124.5 237.501
s196.833 83.5 341.5 83.5h203v126c0 63.333 -20 113.5 -60 150.5s-95.667 55.5 -167 55.5c-49.333 0 -92.833 -6.33301 -130.5 -19s-68.167 -30 -91.5 -52l-21 -114h-152v210c49.333 39.333 109 70.833 179 94.5s146 35.5 228 35.5c122.667 0 222 -31.333 298 -94
s114 -152.334 114 -269.001v-521c0 -14 0.166992 -27.667 0.5 -41s1.16602 -26.666 2.49902 -39.999l80 -11v-126h-258zM478.001 144.001c65.333 0 125.001 15.666 179.001 46.999s92.667 69 116 113v178h-210c-80.667 0 -144.5 -18.667 -191.5 -56
s-70.5 -82.666 -70.5 -135.999c0 -47.333 14.667 -83.5 44 -108.5s73.666 -37.5 132.999 -37.5zM893.002 1519c0 -62.667 -19.834 -115.666 -59.501 -158.999s-89.5 -65 -149.5 -65c-47.333 0 -96.666 15.5 -147.999 46.5s-94 46.5 -128 46.5
c-28 0 -51.833 -10.833 -71.5 -32.5s-29.5 -47.834 -29.5 -78.501l-107 26c0 62 19.5 115.833 58.5 161.5s88.833 68.5 149.5 68.5c37.333 0 84 -15.667 140 -47s101.333 -47 136 -47c27.333 0 51 10.833 71 32.5s30 48.167 30 79.5z" />
    <glyph glyph-name="adieresis" unicode="&#xe4;" horiz-adv-x="1128" 
d="M795 0c-6 29.333 -10.666 55.667 -13.999 79s-5.66602 46.666 -6.99902 69.999c-38 -48.667 -85.5 -89.167 -142.5 -121.5s-117.833 -48.5 -182.5 -48.5c-112.667 0 -198.334 27.5 -257.001 82.5s-88 132.5 -88 232.5c0 102.667 41.5 181.834 124.5 237.501
s196.833 83.5 341.5 83.5h203v126c0 63.333 -20 113.5 -60 150.5s-95.667 55.5 -167 55.5c-49.333 0 -92.833 -6.33301 -130.5 -19s-68.167 -30 -91.5 -52l-21 -114h-152v210c49.333 39.333 109 70.833 179 94.5s146 35.5 228 35.5c122.667 0 222 -31.333 298 -94
s114 -152.334 114 -269.001v-521c0 -14 0.166992 -27.667 0.5 -41s1.16602 -26.666 2.49902 -39.999l80 -11v-126h-258zM478.001 144.001c65.333 0 125.001 15.666 179.001 46.999s92.667 69 116 113v178h-210c-80.667 0 -144.5 -18.667 -191.5 -56
s-70.5 -82.666 -70.5 -135.999c0 -47.333 14.667 -83.5 44 -108.5s73.666 -37.5 132.999 -37.5zM881.002 1280h-218v200h218v-200zM411.002 1280h-218v200h218v-200z" />
    <glyph glyph-name="aring" unicode="&#xe5;" horiz-adv-x="1128" 
d="M795 0c-6 29.333 -10.666 55.667 -13.999 79s-5.66602 46.666 -6.99902 69.999c-38 -48.667 -85.5 -89.167 -142.5 -121.5s-117.833 -48.5 -182.5 -48.5c-112.667 0 -198.334 27.5 -257.001 82.5s-88 132.5 -88 232.5c0 102.667 41.5 181.834 124.5 237.501
s196.833 83.5 341.5 83.5h203v126c0 63.333 -20 113.5 -60 150.5s-95.667 55.5 -167 55.5c-49.333 0 -92.833 -6.33301 -130.5 -19s-68.167 -30 -91.5 -52l-21 -114h-152v210c49.333 39.333 109 70.833 179 94.5s146 35.5 228 35.5c122.667 0 222 -31.333 298 -94
s114 -152.334 114 -269.001v-521c0 -14 0.166992 -27.667 0.5 -41s1.16602 -26.666 2.49902 -39.999l80 -11v-126h-258zM478.001 144.001c65.333 0 125.001 15.666 179.001 46.999s92.667 69 116 113v178h-210c-80.667 0 -144.5 -18.667 -191.5 -56
s-70.5 -82.666 -70.5 -135.999c0 -47.333 14.667 -83.5 44 -108.5s73.666 -37.5 132.999 -37.5zM353.002 1411c0 56 20.167 103.001 60.5 141.001s89.5 57 147.5 57c56.667 0 105 -18.833 145 -56.5s60 -84.834 60 -141.501c0 -57.333 -20 -104 -60 -140
s-88.333 -54 -145 -54c-58 0 -107.167 18 -147.5 54s-60.5 82.667 -60.5 140zM456.002 1411c0 -28.667 10.3311 -53.167 30.998 -73.5s45.334 -30.5 74.001 -30.5c28 0 52 9.83301 72 29.5s30 44.5 30 74.5s-10 55.333 -30 76s-44 31 -72 31
c-29.333 0 -54.166 -10.333 -74.499 -31s-30.5 -46 -30.5 -76z" />
    <glyph glyph-name="ae" unicode="&#xe6;" horiz-adv-x="1795" 
d="M1300 -21c-90 0 -169.666 16.1689 -238.999 48.502s-126 78.166 -170 137.499c-37.333 -52.667 -93.333 -96.834 -168 -132.501s-165 -53.5 -271 -53.5c-113.333 0 -200.833 29 -262.5 87s-92.5 137.333 -92.5 238c0 105.333 38.167 186.833 114.5 244.5
s187.833 86.5 334.5 86.5h229v85c0 70.667 -17.167 126.167 -51.5 166.5s-84.166 60.5 -149.499 60.5c-68.667 0 -123.334 -18.333 -164.001 -55s-61 -81 -61 -133l-188 18l-2 6c-3.33301 92 33.334 168.167 110.001 228.5s178.334 90.5 305.001 90.5
c76.667 0 144 -13.5 202 -40.5s103.667 -66.167 137 -117.5c42.667 50 93.167 88.833 151.5 116.5s121.5 41.5 189.5 41.5c142.667 0 252.5 -43.333 329.5 -130s115.5 -206 115.5 -358v-119h-710l-2 -5c0.666992 -106 27.167 -192 79.5 -258s130.166 -99 233.499 -99
c69.333 0 126 9.16699 170 27.5s92 44.5 144 78.5l68 -138c-36.667 -30 -86.334 -57.833 -149.001 -83.5s-140.334 -38.5 -233.001 -38.5zM491.001 133.002c50.667 0 103.5 14.333 158.5 43s96.833 62 125.5 100v217h-227c-80 0 -142.333 -18.667 -187 -56s-67 -83 -67 -137
c0 -49.333 16.667 -89.5 50 -120.5s82.333 -46.5 147 -46.5zM1254 947.002c-76 0 -137 -28.166 -183 -84.499s-72.667 -128.833 -80 -217.5l2 -5h509v31c0 81.333 -20 147.666 -60 198.999s-102.667 77 -188 77z" />
    <glyph glyph-name="ccedilla" unicode="&#xe7;" horiz-adv-x="1104" 
d="M575 133c65.333 0 122.832 20.167 172.499 60.5s74.5 89.833 74.5 148.5h177l2 -6c3.33301 -93.333 -38.167 -176.166 -124.5 -248.499s-186.833 -108.5 -301.5 -108.5c-157.333 0 -277.5 51.333 -360.5 154s-124.5 231.667 -124.5 387v42c0 154 41.667 282.5 125 385.5
s203.333 154.5 360 154.5c86.667 0 164.5 -14.333 233.5 -43s126.167 -68 171.5 -118l9 -240h-157l-43 170c-23.333 22.667 -53.333 41 -90 55s-78 21 -124 21c-103.333 0 -177.166 -37.167 -221.499 -111.5s-66.5 -165.5 -66.5 -273.5v-42
c0 -110.667 22 -202.834 66 -276.501s118 -110.5 222 -110.5zM582.999 -9l-12 -52.0029c43.333 -7.33301 79.333 -24.666 108 -51.999s43 -67.666 43 -120.999c0 -64 -26.333 -115 -79 -153s-128 -57 -226 -57l-7 109c48 0 86.5 8.16699 115.5 24.5s43.5 40.833 43.5 73.5
c0 32 -12 54.333 -36 67s-65 21.334 -123 26.001l32 135h141z" />
    <glyph glyph-name="egrave" unicode="&#xe8;" horiz-adv-x="1101" 
d="M583 -21c-150.667 0 -270.499 50.167 -359.499 150.5s-133.5 230.5 -133.5 390.5v44c0 154 45.833 282.167 137.5 384.5s200.167 153.5 325.5 153.5c145.333 0 255.5 -44 330.5 -132s112.5 -205.333 112.5 -352v-123h-702l-3 -5c2 -104 28.333 -189.5 79 -256.5
s121.667 -100.5 213 -100.5c66.667 0 125.167 9.5 175.5 28.5s93.833 45.167 130.5 78.5l77 -128c-38.667 -37.333 -89.834 -68.833 -153.501 -94.5s-140.167 -38.5 -229.5 -38.5zM553.001 947c-66 0 -122.333 -27.833 -169 -83.5s-75.334 -125.5 -86.001 -209.5l2 -5h499
v26c0 77.333 -20.667 142 -62 194s-102.666 78 -183.999 78zM641.001 1235h-159l-249 260l3 6h230z" />
    <glyph glyph-name="eacute" unicode="&#xe9;" horiz-adv-x="1101" 
d="M583 -21c-150.667 0 -270.499 50.167 -359.499 150.5s-133.5 230.5 -133.5 390.5v44c0 154 45.833 282.167 137.5 384.5s200.167 153.5 325.5 153.5c145.333 0 255.5 -44 330.5 -132s112.5 -205.333 112.5 -352v-123h-702l-3 -5c2 -104 28.333 -189.5 79 -256.5
s121.667 -100.5 213 -100.5c66.667 0 125.167 9.5 175.5 28.5s93.833 45.167 130.5 78.5l77 -128c-38.667 -37.333 -89.834 -68.833 -153.501 -94.5s-140.167 -38.5 -229.5 -38.5zM553.001 947c-66 0 -122.333 -27.833 -169 -83.5s-75.334 -125.5 -86.001 -209.5l2 -5h499
v26c0 77.333 -20.667 142 -62 194s-102.666 78 -183.999 78zM613.001 1498h230l2 -6l-269 -260h-147z" />
    <glyph glyph-name="ecircumflex" unicode="&#xea;" horiz-adv-x="1101" 
d="M583 -21c-150.667 0 -270.499 50.167 -359.499 150.5s-133.5 230.5 -133.5 390.5v44c0 154 45.833 282.167 137.5 384.5s200.167 153.5 325.5 153.5c145.333 0 255.5 -44 330.5 -132s112.5 -205.333 112.5 -352v-123h-702l-3 -5c2 -104 28.333 -189.5 79 -256.5
s121.667 -100.5 213 -100.5c66.667 0 125.167 9.5 175.5 28.5s93.833 45.167 130.5 78.5l77 -128c-38.667 -37.333 -89.834 -68.833 -153.501 -94.5s-140.167 -38.5 -229.5 -38.5zM553.001 947c-66 0 -122.333 -27.833 -169 -83.5s-75.334 -125.5 -86.001 -209.5l2 -5h499
v26c0 77.333 -20.667 142 -62 194s-102.666 78 -183.999 78zM863.001 1288v-25h-161l-147 148l-145 -148h-160v26l246 237h119z" />
    <glyph glyph-name="edieresis" unicode="&#xeb;" horiz-adv-x="1101" 
d="M583 -21c-150.667 0 -270.499 50.167 -359.499 150.5s-133.5 230.5 -133.5 390.5v44c0 154 45.833 282.167 137.5 384.5s200.167 153.5 325.5 153.5c145.333 0 255.5 -44 330.5 -132s112.5 -205.333 112.5 -352v-123h-702l-3 -5c2 -104 28.333 -189.5 79 -256.5
s121.667 -100.5 213 -100.5c66.667 0 125.167 9.5 175.5 28.5s93.833 45.167 130.5 78.5l77 -128c-38.667 -37.333 -89.834 -68.833 -153.501 -94.5s-140.167 -38.5 -229.5 -38.5zM553.001 947c-66 0 -122.333 -27.833 -169 -83.5s-75.334 -125.5 -86.001 -209.5l2 -5h499
v26c0 77.333 -20.667 142 -62 194s-102.666 78 -183.999 78zM881.001 1280h-218v200h218v-200zM411.001 1280h-218v200h218v-200z" />
    <glyph glyph-name="igrave" unicode="&#xec;" horiz-adv-x="672" 
d="M90 955v127h360v-928l163 -28v-126h-523v126l163 28v773zM432 1234h-159l-249 260l3 6h230z" />
    <glyph glyph-name="iacute" unicode="&#xed;" horiz-adv-x="672" 
d="M90 955v127h360v-928l163 -28v-126h-523v126l163 28v773zM403 1497h230l2 -6l-269 -260h-147z" />
    <glyph glyph-name="icircumflex" unicode="&#xee;" horiz-adv-x="672" 
d="M90 955v127h360v-928l163 -28v-126h-523v126l163 28v773zM654 1287v-25h-161l-147 148l-145 -148h-160v26l246 237h119z" />
    <glyph glyph-name="idieresis" unicode="&#xef;" horiz-adv-x="672" 
d="M90 955v127h360v-928l163 -28v-126h-523v126l163 28v773zM672 1279h-218v200h218v-200zM202 1279h-218v200h218v-200z" />
    <glyph glyph-name="eth" unicode="&#xf0;" horiz-adv-x="1191" 
d="M859 1286c69.333 -80.667 123.166 -176.331 161.499 -286.998s57.5 -232.667 57.5 -366v-98c0 -163.333 -48 -296.833 -144 -400.5s-215.667 -155.5 -359 -155.5c-145.333 0 -264.5 46.667 -357.5 140s-139.5 209 -139.5 347c0 152 46 275.333 138 370s209 142 351 142
c55.333 0 107.833 -10.667 157.5 -32s91.834 -49.333 126.501 -84l4 5c-13.333 65.333 -34 125.166 -62 179.499s-61.667 102.166 -101 143.499l-272 -155l-77 102l245 140c-24 15.333 -48.833 29.166 -74.5 41.499s-52.5 23.833 -80.5 34.5l60 164
c50 -14.667 97.667 -33.667 143 -57s88 -50.666 128 -81.999l233 133l77 -102zM881 635.003c0 5.33301 -0.166992 13.666 -0.5 24.999s-0.5 19.666 -0.5 24.999c-23.333 38.667 -61.833 71.334 -115.5 98.001s-119.5 40 -197.5 40c-87.333 0 -157.833 -34.667 -211.5 -104
s-80.5 -153.666 -80.5 -252.999c0 -88 27.333 -165.5 82 -232.5s128.667 -100.5 222 -100.5c88.667 0 161.167 38 217.5 114s84.5 172 84.5 288v100z" />
    <glyph glyph-name="ntilde" unicode="&#xf1;" horiz-adv-x="1318" 
d="M60 126l163.002 27.999v773l-163 28v127h339l14 -161c36 57.333 81.167 101.833 135.5 133.5s116.166 47.5 185.499 47.5c116.667 0 207 -34.167 271 -102.5s96 -173.833 96 -316.5v-529l163 -28v-126h-523v126l163 28v525c0 95.333 -18.833 163 -56.5 203
s-95.167 60 -172.5 60c-56.667 0 -106.834 -13.667 -150.501 -41s-78.5 -64.666 -104.5 -111.999v-635l163 -28v-126h-523v126zM1007 1519c0 -62.667 -19.834 -115.666 -59.501 -158.999s-89.5 -65 -149.5 -65c-47.333 0 -96.666 15.5 -147.999 46.5s-94 46.5 -128 46.5
c-28 0 -51.833 -10.833 -71.5 -32.5s-29.5 -47.834 -29.5 -78.501l-107 26c0 62 19.5 115.833 58.5 161.5s88.833 68.5 149.5 68.5c37.333 0 84 -15.667 140 -47s101.333 -47 136 -47c27.333 0 51 10.833 71 32.5s30 48.167 30 79.5z" />
    <glyph glyph-name="ograve" unicode="&#xf2;" horiz-adv-x="1149" 
d="M90 551c0 160 43.333 291.833 130 395.5s204.334 155.5 353.001 155.5c149.333 0 267.5 -51.667 354.5 -155s130.5 -235.333 130.5 -396v-22c0 -161.333 -43.333 -293.333 -130 -396s-204.334 -154 -353.001 -154c-150 0 -268.333 51.5 -355 154.5
s-130 234.833 -130 395.5v22zM287 529c0 -114.667 24.1689 -209.334 72.502 -284.001s120.166 -112 215.499 -112c93.333 0 164.333 37.333 213 112s73 169.334 73 284.001v22c0 113.333 -24.333 207.666 -73 282.999s-120.334 113 -215.001 113s-166 -37.667 -214 -113
s-72 -169.666 -72 -282.999v-22zM659.002 1235h-159l-249 260l3 6h230z" />
    <glyph glyph-name="oacute" unicode="&#xf3;" horiz-adv-x="1149" 
d="M90 551c0 160 43.333 291.833 130 395.5s204.334 155.5 353.001 155.5c149.333 0 267.5 -51.667 354.5 -155s130.5 -235.333 130.5 -396v-22c0 -161.333 -43.333 -293.333 -130 -396s-204.334 -154 -353.001 -154c-150 0 -268.333 51.5 -355 154.5
s-130 234.833 -130 395.5v22zM287 529c0 -114.667 24.1689 -209.334 72.502 -284.001s120.166 -112 215.499 -112c93.333 0 164.333 37.333 213 112s73 169.334 73 284.001v22c0 113.333 -24.333 207.666 -73 282.999s-120.334 113 -215.001 113s-166 -37.667 -214 -113
s-72 -169.666 -72 -282.999v-22zM631.002 1498h230l2 -6l-269 -260h-147z" />
    <glyph glyph-name="ocircumflex" unicode="&#xf4;" horiz-adv-x="1149" 
d="M90 551c0 160 43.333 291.833 130 395.5s204.334 155.5 353.001 155.5c149.333 0 267.5 -51.667 354.5 -155s130.5 -235.333 130.5 -396v-22c0 -161.333 -43.333 -293.333 -130 -396s-204.334 -154 -353.001 -154c-150 0 -268.333 51.5 -355 154.5
s-130 234.833 -130 395.5v22zM287 529c0 -114.667 24.1689 -209.334 72.502 -284.001s120.166 -112 215.499 -112c93.333 0 164.333 37.333 213 112s73 169.334 73 284.001v22c0 113.333 -24.333 207.666 -73 282.999s-120.334 113 -215.001 113s-166 -37.667 -214 -113
s-72 -169.666 -72 -282.999v-22zM881.002 1288v-25h-161l-147 148l-145 -148h-160v26l246 237h119z" />
    <glyph glyph-name="otilde" unicode="&#xf5;" horiz-adv-x="1149" 
d="M90 551c0 160 43.333 291.833 130 395.5s204.334 155.5 353.001 155.5c149.333 0 267.5 -51.667 354.5 -155s130.5 -235.333 130.5 -396v-22c0 -161.333 -43.333 -293.333 -130 -396s-204.334 -154 -353.001 -154c-150 0 -268.333 51.5 -355 154.5
s-130 234.833 -130 395.5v22zM287 529c0 -114.667 24.1689 -209.334 72.502 -284.001s120.166 -112 215.499 -112c93.333 0 164.333 37.333 213 112s73 169.334 73 284.001v22c0 113.333 -24.333 207.666 -73 282.999s-120.334 113 -215.001 113s-166 -37.667 -214 -113
s-72 -169.666 -72 -282.999v-22zM911.002 1519c0 -62.667 -19.834 -115.666 -59.501 -158.999s-89.5 -65 -149.5 -65c-47.333 0 -96.666 15.5 -147.999 46.5s-94 46.5 -128 46.5c-28 0 -51.833 -10.833 -71.5 -32.5s-29.5 -47.834 -29.5 -78.501l-107 26
c0 62 19.5 115.833 58.5 161.5s88.833 68.5 149.5 68.5c37.333 0 84 -15.667 140 -47s101.333 -47 136 -47c27.333 0 51 10.833 71 32.5s30 48.167 30 79.5z" />
    <glyph glyph-name="odieresis" unicode="&#xf6;" horiz-adv-x="1149" 
d="M90 551c0 160 43.333 291.833 130 395.5s204.334 155.5 353.001 155.5c149.333 0 267.5 -51.667 354.5 -155s130.5 -235.333 130.5 -396v-22c0 -161.333 -43.333 -293.333 -130 -396s-204.334 -154 -353.001 -154c-150 0 -268.333 51.5 -355 154.5
s-130 234.833 -130 395.5v22zM287 529c0 -114.667 24.1689 -209.334 72.502 -284.001s120.166 -112 215.499 -112c93.333 0 164.333 37.333 213 112s73 169.334 73 284.001v22c0 113.333 -24.333 207.666 -73 282.999s-120.334 113 -215.001 113s-166 -37.667 -214 -113
s-72 -169.666 -72 -282.999v-22zM899.002 1280h-218v200h218v-200zM429.002 1280h-218v200h218v-200z" />
    <glyph glyph-name="divide" unicode="&#xf7;" horiz-adv-x="1148" 
d="M1072 597h-998v188h998v-188zM673 999h-198v203h198v-203zM673 180h-198v203h198v-203z" />
    <glyph glyph-name="oslash" unicode="&#xf8;" horiz-adv-x="1149" 
d="M90 551c0 160 43.332 291.832 129.999 395.499s204.334 155.5 353.001 155.5c36.667 0 71.834 -3.66699 105.501 -11s66.167 -17.333 97.5 -30l73 148h129l-104 -210c58.667 -49.333 104 -112.666 136 -189.999s48 -163.333 48 -258v-22
c0 -161.333 -43.333 -293.333 -130 -396s-204.334 -154 -353.001 -154c-34.667 0 -67.667 3 -99 9s-61 14.333 -89 25l-73 -148h-129l101 206c-63.333 48 -111.833 111.667 -145.5 191s-50.5 168.333 -50.5 267v22zM286.999 528.999c0 -59.333 6.5 -114.002 19.5 -164.002
s32.5 -91 58.5 -123h6l332 672c-18.667 10.667 -39 18.834 -61 24.501s-45 8.5 -69 8.5c-94.667 0 -166 -37.667 -214 -113s-72 -169.666 -72 -282.999v-22zM860.999 550.997c0 54 -5.83301 104.666 -17.5 151.999s-28.5 87 -50.5 119h-6l-328 -664
c16.667 -8.66699 34.667 -15 54 -19s40 -6 62 -6c93.333 0 164.333 37.333 213 112s73 169.334 73 284.001v22z" />
    <glyph glyph-name="ugrave" unicode="&#xf9;" horiz-adv-x="1244" 
d="M863 160c-34 -58 -77.833 -102.667 -131.5 -134s-115.5 -47 -185.5 -47c-117.333 0 -209 37.667 -275 113s-99 192.666 -99 351.999v483l-124 28v127h124h197v-640c0 -115.333 17 -194.666 51 -237.999s87 -65 159 -65c70 0 127.833 14.167 173.5 42.5
s80.167 68.5 103.5 120.5v625l-145 28v127h145h197v-928l124 -28v-126h-301zM671 1234h-159l-249 260l3 6h230z" />
    <glyph glyph-name="uacute" unicode="&#xfa;" horiz-adv-x="1244" 
d="M863 160c-34 -58 -77.833 -102.667 -131.5 -134s-115.5 -47 -185.5 -47c-117.333 0 -209 37.667 -275 113s-99 192.666 -99 351.999v483l-124 28v127h124h197v-640c0 -115.333 17 -194.666 51 -237.999s87 -65 159 -65c70 0 127.833 14.167 173.5 42.5
s80.167 68.5 103.5 120.5v625l-145 28v127h145h197v-928l124 -28v-126h-301zM643 1497h230l2 -6l-269 -260h-147z" />
    <glyph glyph-name="ucircumflex" unicode="&#xfb;" horiz-adv-x="1244" 
d="M863 160c-34 -58 -77.833 -102.667 -131.5 -134s-115.5 -47 -185.5 -47c-117.333 0 -209 37.667 -275 113s-99 192.666 -99 351.999v483l-124 28v127h124h197v-640c0 -115.333 17 -194.666 51 -237.999s87 -65 159 -65c70 0 127.833 14.167 173.5 42.5
s80.167 68.5 103.5 120.5v625l-145 28v127h145h197v-928l124 -28v-126h-301zM893 1287v-25h-161l-147 148l-145 -148h-160v26l246 237h119z" />
    <glyph glyph-name="udieresis" unicode="&#xfc;" horiz-adv-x="1244" 
d="M863 160c-34 -58 -77.833 -102.667 -131.5 -134s-115.5 -47 -185.5 -47c-117.333 0 -209 37.667 -275 113s-99 192.666 -99 351.999v483l-124 28v127h124h197v-640c0 -115.333 17 -194.666 51 -237.999s87 -65 159 -65c70 0 127.833 14.167 173.5 42.5
s80.167 68.5 103.5 120.5v625l-145 28v127h145h197v-928l124 -28v-126h-301zM911 1279h-218v200h218v-200zM441 1279h-218v200h218v-200z" />
    <glyph glyph-name="yacute" unicode="&#xfd;" horiz-adv-x="1162" 
d="M1117 955l-97.001 -14.999l-412 -1106c-27.333 -72.667 -66.666 -136 -117.999 -190s-120.333 -81 -207 -81c-15.333 0 -35.333 1.83301 -60 5.5s-43.667 7.16699 -57 10.5l20 155c-4 0.666992 7.83301 0 35.5 -2s45.167 -3 52.5 -3c42 0 76 18.167 102 54.5
s48.667 78.166 68 125.499l47 112l-357 918l-99 16v127h437v-127l-122 -20l187 -534l36 -138h6l225 672l-123 20v127h436v-127zM634.999 1497h230l2 -6l-269 -260h-147z" />
    <glyph glyph-name="thorn" unicode="&#xfe;" horiz-adv-x="1273" 
d="M25 1433l0.00292969 127h360v-598c35.333 45.333 78.166 80 128.499 104s108.166 36 173.499 36c133.333 0 237.166 -53.167 311.499 -159.5s111.5 -246.833 111.5 -421.5v-21c0 -156 -37.167 -281.833 -111.5 -377.5s-177.166 -143.5 -308.499 -143.5
c-66.667 0 -125.334 11.167 -176.001 33.5s-93.667 55.833 -129 100.5v-374l163 -28v-127h-523v127l163 28v1666zM913.003 521c0 123.333 -24 224.334 -72 303.001s-119.333 118 -214 118c-56.667 0 -105 -12.833 -145 -38.5s-72.333 -60.834 -97 -105.501v-523
c24.667 -44.667 57 -79.5 97 -104.5s89 -37.5 147 -37.5c93.333 0 164 34 212 102s72 156.333 72 265v21z" />
    <glyph glyph-name="ydieresis" unicode="&#xff;" horiz-adv-x="1162" 
d="M1117 955l-97.001 -14.999l-412 -1106c-27.333 -72.667 -66.666 -136 -117.999 -190s-120.333 -81 -207 -81c-15.333 0 -35.333 1.83301 -60 5.5s-43.667 7.16699 -57 10.5l20 155c-4 0.666992 7.83301 0 35.5 -2s45.167 -3 52.5 -3c42 0 76 18.167 102 54.5
s48.667 78.166 68 125.499l47 112l-357 918l-99 16v127h437v-127l-122 -20l187 -534l36 -138h6l225 672l-123 20v127h436v-127zM902.999 1279h-218v200h218v-200zM432.999 1279h-218v200h218v-200z" />
    <glyph glyph-name="Amacron" unicode="&#x100;" 
d="M55 126l108 15l509 1315h169l500 -1315l107 -15v-126h-418v126l110 19l-96 268h-583l-99 -268l110 -19v-126h-417v126zM522 578h462l-226 625h-6zM1115 1649h-721v146h721v-146z" />
    <glyph glyph-name="amacron" unicode="&#x101;" horiz-adv-x="1128" 
d="M795 0c-6 29.333 -10.666 55.667 -13.999 79s-5.66602 46.666 -6.99902 69.999c-38 -48.667 -85.5 -89.167 -142.5 -121.5s-117.833 -48.5 -182.5 -48.5c-112.667 0 -198.334 27.5 -257.001 82.5s-88 132.5 -88 232.5c0 102.667 41.5 181.834 124.5 237.501
s196.833 83.5 341.5 83.5h203v126c0 63.333 -20 113.5 -60 150.5s-95.667 55.5 -167 55.5c-49.333 0 -92.833 -6.33301 -130.5 -19s-68.167 -30 -91.5 -52l-21 -114h-152v210c49.333 39.333 109 70.833 179 94.5s146 35.5 228 35.5c122.667 0 222 -31.333 298 -94
s114 -152.334 114 -269.001v-521c0 -14 0.166992 -27.667 0.5 -41s1.16602 -26.666 2.49902 -39.999l80 -11v-126h-258zM478.001 144.001c65.333 0 125.001 15.666 179.001 46.999s92.667 69 116 113v178h-210c-80.667 0 -144.5 -18.667 -191.5 -56
s-70.5 -82.666 -70.5 -135.999c0 -47.333 14.667 -83.5 44 -108.5s73.666 -37.5 132.999 -37.5zM913.002 1325h-721v146h721v-146z" />
    <glyph glyph-name="Abreve" unicode="&#x102;" 
d="M55 126l108 15l509 1315h169l500 -1315l107 -15v-126h-418v126l110 19l-96 268h-583l-99 -268l110 -19v-126h-417v126zM522 578h462l-226 625h-6zM1042 1867l2 -6c2.66699 -77.333 -23 -140.333 -77 -189s-126.667 -73 -218 -73c-92 0 -165 24.333 -219 73
s-79.333 111.667 -76 189l2 6h150c0 -43.333 11.5 -78.833 34.5 -106.5s59.167 -41.5 108.5 -41.5c48 0 83.667 13.833 107 41.5s35 63.167 35 106.5h151z" />
    <glyph glyph-name="abreve" unicode="&#x103;" horiz-adv-x="1128" 
d="M795 0c-6 29.333 -10.666 55.667 -13.999 79s-5.66602 46.666 -6.99902 69.999c-38 -48.667 -85.5 -89.167 -142.5 -121.5s-117.833 -48.5 -182.5 -48.5c-112.667 0 -198.334 27.5 -257.001 82.5s-88 132.5 -88 232.5c0 102.667 41.5 181.834 124.5 237.501
s196.833 83.5 341.5 83.5h203v126c0 63.333 -20 113.5 -60 150.5s-95.667 55.5 -167 55.5c-49.333 0 -92.833 -6.33301 -130.5 -19s-68.167 -30 -91.5 -52l-21 -114h-152v210c49.333 39.333 109 70.833 179 94.5s146 35.5 228 35.5c122.667 0 222 -31.333 298 -94
s114 -152.334 114 -269.001v-521c0 -14 0.166992 -27.667 0.5 -41s1.16602 -26.666 2.49902 -39.999l80 -11v-126h-258zM478.001 144.001c65.333 0 125.001 15.666 179.001 46.999s92.667 69 116 113v178h-210c-80.667 0 -144.5 -18.667 -191.5 -56
s-70.5 -82.666 -70.5 -135.999c0 -47.333 14.667 -83.5 44 -108.5s73.666 -37.5 132.999 -37.5zM840.002 1543l2 -6c2.66699 -77.333 -23 -140.333 -77 -189s-126.667 -73 -218 -73c-92 0 -165 24.333 -219 73s-79.333 111.667 -76 189l2 6h150
c0 -43.333 11.5 -78.833 34.5 -106.5s59.167 -41.5 108.5 -41.5c48 0 83.667 13.833 107 41.5s35 63.167 35 106.5h151z" />
    <glyph glyph-name="Aogonek" unicode="&#x104;" 
d="M55 126l108 15l509 1315h169l500 -1315l107 -15v-126h-418v126l110 19l-96 268h-583l-99 -268l110 -19v-126h-417v126zM522 578h462l-226 625h-6zM1448 0c-46.667 -34.667 -83.166 -67.833 -109.499 -99.5s-39.5 -65.5 -39.5 -101.5c0 -28 7.5 -50 22.5 -66
s39.5 -24 73.5 -24c18 0 34.667 2.5 50 7.5s31.666 11.167 48.999 18.5l33 -123c-24 -12.667 -50.5 -23.167 -79.5 -31.5s-63.5 -12.5 -103.5 -12.5c-62.667 0 -114.167 18.333 -154.5 55s-60.5 88 -60.5 154c0 53.333 20.167 104 60.5 152s102.833 90.667 187.5 128z" />
    <glyph glyph-name="aogonek" unicode="&#x105;" horiz-adv-x="1128" 
d="M795 0c-6 29.333 -10.666 55.667 -13.999 79s-5.66602 46.666 -6.99902 69.999c-38 -48.667 -85.5 -89.167 -142.5 -121.5s-117.833 -48.5 -182.5 -48.5c-112.667 0 -198.334 27.5 -257.001 82.5s-88 132.5 -88 232.5c0 102.667 41.5 181.834 124.5 237.501
s196.833 83.5 341.5 83.5h203v126c0 63.333 -20 113.5 -60 150.5s-95.667 55.5 -167 55.5c-49.333 0 -92.833 -6.33301 -130.5 -19s-68.167 -30 -91.5 -52l-21 -114h-152v210c49.333 39.333 109 70.833 179 94.5s146 35.5 228 35.5c122.667 0 222 -31.333 298 -94
s114 -152.334 114 -269.001v-521c0 -14 0.166992 -27.667 0.5 -41s1.16602 -26.666 2.49902 -39.999l80 -11v-126h-258zM478.001 144.001c65.333 0 125.001 15.666 179.001 46.999s92.667 69 116 113v178h-210c-80.667 0 -144.5 -18.667 -191.5 -56
s-70.5 -82.666 -70.5 -135.999c0 -47.333 14.667 -83.5 44 -108.5s73.666 -37.5 132.999 -37.5zM1053 0c-46.667 -34.667 -83.166 -67.833 -109.499 -99.5s-39.5 -65.5 -39.5 -101.5c0 -28 7.5 -50 22.5 -66s39.5 -24 73.5 -24c18 0 34.667 2.5 50 7.5
s31.666 11.167 48.999 18.5l33 -123c-24 -12.667 -50.5 -23.167 -79.5 -31.5s-63.5 -12.5 -103.5 -12.5c-62.667 0 -114.167 18.333 -154.5 55s-60.5 88 -60.5 154c0 53.333 20.167 104 60.5 152s102.833 90.667 187.5 128z" />
    <glyph glyph-name="Cacute" unicode="&#x106;" horiz-adv-x="1321" 
d="M1200 1009l-139 0.000976562l-37 206c-32 31.333 -71.333 57 -118 77s-102.334 30 -167.001 30c-151.333 0 -267.666 -54.833 -348.999 -164.5s-122 -248.834 -122 -417.501v-23c0 -168.667 39.833 -308.167 119.5 -418.5s190.167 -165.5 331.5 -165.5
c66 0 126 10.333 180 31s95.667 46 125 76l37 206h139v-259c-42 -54 -105 -102.167 -189 -144.5s-181.333 -63.5 -292 -63.5c-189.333 0 -344.666 70 -465.999 210s-182 316 -182 528v21c0 213.333 59.667 389.833 179 529.5s275.666 209.5 468.999 209.5
c110.667 0 208 -21.5 292 -64.5s147 -91.167 189 -144.5v-259zM772 1844h230l2 -6l-269 -260h-147z" />
    <glyph glyph-name="cacute" unicode="&#x107;" horiz-adv-x="1104" 
d="M575 133c65.333 0 122.832 20.167 172.499 60.5s74.5 89.833 74.5 148.5h177l2 -6c3.33301 -93.333 -38.167 -176.166 -124.5 -248.499s-186.833 -108.5 -301.5 -108.5c-157.333 0 -277.5 51.333 -360.5 154s-124.5 231.667 -124.5 387v42c0 154 41.667 282.5 125 385.5
s203.333 154.5 360 154.5c86.667 0 164.5 -14.333 233.5 -43s126.167 -68 171.5 -118l9 -240h-157l-43 170c-23.333 22.667 -53.333 41 -90 55s-78 21 -124 21c-103.333 0 -177.166 -37.167 -221.499 -111.5s-66.5 -165.5 -66.5 -273.5v-42
c0 -110.667 22 -202.834 66 -276.501s118 -110.5 222 -110.5zM629.999 1498h230l2 -6l-269 -260h-147z" />
    <glyph glyph-name="Ccircumflex" unicode="&#x108;" horiz-adv-x="1321" 
d="M1200 1009l-139 0.000976562l-37 206c-32 31.333 -71.333 57 -118 77s-102.334 30 -167.001 30c-151.333 0 -267.666 -54.833 -348.999 -164.5s-122 -248.834 -122 -417.501v-23c0 -168.667 39.833 -308.167 119.5 -418.5s190.167 -165.5 331.5 -165.5
c66 0 126 10.333 180 31s95.667 46 125 76l37 206h139v-259c-42 -54 -105 -102.167 -189 -144.5s-181.333 -63.5 -292 -63.5c-189.333 0 -344.666 70 -465.999 210s-182 316 -182 528v21c0 213.333 59.667 389.833 179 529.5s275.666 209.5 468.999 209.5
c110.667 0 208 -21.5 292 -64.5s147 -91.167 189 -144.5v-259zM1022 1634v-25h-161l-147 148l-145 -148h-160v26l246 237h119z" />
    <glyph glyph-name="ccircumflex" unicode="&#x109;" horiz-adv-x="1104" 
d="M575 133c65.333 0 122.832 20.167 172.499 60.5s74.5 89.833 74.5 148.5h177l2 -6c3.33301 -93.333 -38.167 -176.166 -124.5 -248.499s-186.833 -108.5 -301.5 -108.5c-157.333 0 -277.5 51.333 -360.5 154s-124.5 231.667 -124.5 387v42c0 154 41.667 282.5 125 385.5
s203.333 154.5 360 154.5c86.667 0 164.5 -14.333 233.5 -43s126.167 -68 171.5 -118l9 -240h-157l-43 170c-23.333 22.667 -53.333 41 -90 55s-78 21 -124 21c-103.333 0 -177.166 -37.167 -221.499 -111.5s-66.5 -165.5 -66.5 -273.5v-42
c0 -110.667 22 -202.834 66 -276.501s118 -110.5 222 -110.5zM879.999 1288v-25h-161l-147 148l-145 -148h-160v26l246 237h119z" />
    <glyph glyph-name="uni010A" unicode="&#x10a;" horiz-adv-x="1321" 
d="M1200 1009l-139 0.000976562l-37 206c-32 31.333 -71.333 57 -118 77s-102.334 30 -167.001 30c-151.333 0 -267.666 -54.833 -348.999 -164.5s-122 -248.834 -122 -417.501v-23c0 -168.667 39.833 -308.167 119.5 -418.5s190.167 -165.5 331.5 -165.5
c66 0 126 10.333 180 31s95.667 46 125 76l37 206h139v-259c-42 -54 -105 -102.167 -189 -144.5s-181.333 -63.5 -292 -63.5c-189.333 0 -344.666 70 -465.999 210s-182 316 -182 528v21c0 213.333 59.667 389.833 179 529.5s275.666 209.5 468.999 209.5
c110.667 0 208 -21.5 292 -64.5s147 -91.167 189 -144.5v-259zM814 1624h-217v201h217v-201z" />
    <glyph glyph-name="uni010B" unicode="&#x10b;" horiz-adv-x="1104" 
d="M575 133c65.333 0 122.832 20.167 172.499 60.5s74.5 89.833 74.5 148.5h177l2 -6c3.33301 -93.333 -38.167 -176.166 -124.5 -248.499s-186.833 -108.5 -301.5 -108.5c-157.333 0 -277.5 51.333 -360.5 154s-124.5 231.667 -124.5 387v42c0 154 41.667 282.5 125 385.5
s203.333 154.5 360 154.5c86.667 0 164.5 -14.333 233.5 -43s126.167 -68 171.5 -118l9 -240h-157l-43 170c-23.333 22.667 -53.333 41 -90 55s-78 21 -124 21c-103.333 0 -177.166 -37.167 -221.499 -111.5s-66.5 -165.5 -66.5 -273.5v-42
c0 -110.667 22 -202.834 66 -276.501s118 -110.5 222 -110.5zM671.999 1278h-217v201h217v-201z" />
    <glyph glyph-name="Ccaron" unicode="&#x10c;" horiz-adv-x="1321" 
d="M1200 1009l-139 0.000976562l-37 206c-32 31.333 -71.333 57 -118 77s-102.334 30 -167.001 30c-151.333 0 -267.666 -54.833 -348.999 -164.5s-122 -248.834 -122 -417.501v-23c0 -168.667 39.833 -308.167 119.5 -418.5s190.167 -165.5 331.5 -165.5
c66 0 126 10.333 180 31s95.667 46 125 76l37 206h139v-259c-42 -54 -105 -102.167 -189 -144.5s-181.333 -63.5 -292 -63.5c-189.333 0 -344.666 70 -465.999 210s-182 316 -182 528v21c0 213.333 59.667 389.833 179 529.5s275.666 209.5 468.999 209.5
c110.667 0 208 -21.5 292 -64.5s147 -91.167 189 -144.5v-259zM712 1718l147 148h170v-18l-257 -245h-119l-253 243v20h166z" />
    <glyph glyph-name="ccaron" unicode="&#x10d;" horiz-adv-x="1104" 
d="M575 133c65.333 0 122.832 20.167 172.499 60.5s74.5 89.833 74.5 148.5h177l2 -6c3.33301 -93.333 -38.167 -176.166 -124.5 -248.499s-186.833 -108.5 -301.5 -108.5c-157.333 0 -277.5 51.333 -360.5 154s-124.5 231.667 -124.5 387v42c0 154 41.667 282.5 125 385.5
s203.333 154.5 360 154.5c86.667 0 164.5 -14.333 233.5 -43s126.167 -68 171.5 -118l9 -240h-157l-43 170c-23.333 22.667 -53.333 41 -90 55s-78 21 -124 21c-103.333 0 -177.166 -37.167 -221.499 -111.5s-66.5 -165.5 -66.5 -273.5v-42
c0 -110.667 22 -202.834 66 -276.501s118 -110.5 222 -110.5zM569.999 1372l147 148h170v-18l-257 -245h-119l-253 243v20h166z" />
    <glyph glyph-name="Dcaron" unicode="&#x10e;" horiz-adv-x="1419" 
d="M681 1456c190 0 342.833 -58.5 458.5 -175.5s173.5 -268.167 173.5 -453.5v-199c0 -186 -57.833 -337.167 -173.5 -453.5s-268.5 -174.5 -458.5 -174.5h-610v126l163 28v1147l-163 28v127h163h447zM431 1301v-1147h250c134.667 0 240.834 44.333 318.501 133
s116.5 202.334 116.5 341.001v201c0 137.333 -38.833 250.333 -116.5 339s-183.834 133 -318.501 133h-250zM640 1697l147 148h170v-18l-257 -245h-119l-253 243v20h166z" />
    <glyph glyph-name="dcaron" unicode="&#x10f;" horiz-adv-x="1379" 
d="M818 129c-35.333 -49.333 -78.499 -86.666 -129.499 -111.999s-110.167 -38 -177.5 -38c-132 0 -235.167 47.833 -309.5 143.5s-111.5 221.5 -111.5 377.5v21c0 174 37.167 314.333 111.5 421s178.166 160 311.499 160c64 0 120.5 -11.833 169.5 -35.5
s90.833 -57.834 125.5 -102.501v441l-163 28v127h163h197v-1406l163 -28v-126h-334zM287.001 500c0 -108.667 22.334 -196.001 67.001 -262.001s113.667 -99 207 -99c58.667 0 108 13.333 148 40s73 64.334 99 113.001v502c-25.333 45.333 -58.333 81.333 -99 108
s-89.334 40 -146.001 40c-94 0 -163.5 -39 -208.5 -117s-67.5 -179.333 -67.5 -304v-21zM1324 1444c0 -68 -14.832 -137 -44.499 -207s-71.834 -128 -126.501 -174l-111 74c31.333 47.333 54.833 95.5 70.5 144.5s23.5 102.167 23.5 159.5v119h188v-116z" />
    <glyph glyph-name="Dcroat" unicode="&#x110;" horiz-adv-x="1449" 
d="M711 1456c190 0 342.833 -58.5 458.5 -175.5s173.5 -268.167 173.5 -453.5v-199c0 -186 -57.833 -337.167 -173.5 -453.5s-268.5 -174.5 -458.5 -174.5h-610v126l163 28v509h-198v155h198v483l-163 28v127h610zM707 663l-246 -0.000976562v-509h250
c134.667 0 240.834 44.333 318.501 133s116.5 202.334 116.5 341.001v201c0 137.333 -38.833 250.333 -116.5 339s-183.834 133 -318.501 133h-250v-483h246v-155z" />
    <glyph glyph-name="dcroat" unicode="&#x111;" horiz-adv-x="1259" 
d="M818 129c-35.333 -49.333 -78.499 -86.666 -129.499 -111.999s-110.167 -38 -177.5 -38c-132 0 -235.167 47.833 -309.5 143.5s-111.5 221.5 -111.5 377.5v21c0 174 37.167 314.333 111.5 421s178.166 160 311.499 160c64 0 120.5 -11.833 169.5 -35.5
s90.833 -57.834 125.5 -102.501v199h-251v155h251v87l-163 28v127h360v-242h193v-155h-193v-1009l163 -28v-126h-334zM287.001 500c0 -108.667 22.334 -196.001 67.001 -262.001s113.667 -99 207 -99c58.667 0 108 13.333 148 40s73 64.334 99 113.001v502
c-25.333 45.333 -58.333 81.333 -99 108s-89.334 40 -146.001 40c-94 0 -163.5 -39 -208.5 -117s-67.5 -179.333 -67.5 -304v-21z" />
    <glyph glyph-name="Emacron" unicode="&#x112;" horiz-adv-x="1306" 
d="M71 0v126l163 28v1147l-163 28v127h1118v-350h-169l-16 195h-573v-471h557v-155h-557v-521h585l16 195h168v-349h-1129zM1009 1650h-721v146h721v-146z" />
    <glyph glyph-name="emacron" unicode="&#x113;" horiz-adv-x="1101" 
d="M583 -21c-150.667 0 -270.499 50.167 -359.499 150.5s-133.5 230.5 -133.5 390.5v44c0 154 45.833 282.167 137.5 384.5s200.167 153.5 325.5 153.5c145.333 0 255.5 -44 330.5 -132s112.5 -205.333 112.5 -352v-123h-702l-3 -5c2 -104 28.333 -189.5 79 -256.5
s121.667 -100.5 213 -100.5c66.667 0 125.167 9.5 175.5 28.5s93.833 45.167 130.5 78.5l77 -128c-38.667 -37.333 -89.834 -68.833 -153.501 -94.5s-140.167 -38.5 -229.5 -38.5zM553.001 947c-66 0 -122.333 -27.833 -169 -83.5s-75.334 -125.5 -86.001 -209.5l2 -5h499
v26c0 77.333 -20.667 142 -62 194s-102.666 78 -183.999 78zM913.001 1325h-721v146h721v-146z" />
    <glyph glyph-name="Ebreve" unicode="&#x114;" horiz-adv-x="1306" 
d="M71 0v126l163 28v1147l-163 28v127h1118v-350h-169l-16 195h-573v-471h557v-155h-557v-521h585l16 195h168v-349h-1129zM936 1868l2 -6c2.66699 -77.333 -23 -140.333 -77 -189s-126.667 -73 -218 -73c-92 0 -165 24.333 -219 73s-79.333 111.667 -76 189l2 6h150
c0 -43.333 11.5 -78.833 34.5 -106.5s59.167 -41.5 108.5 -41.5c48 0 83.667 13.833 107 41.5s35 63.167 35 106.5h151z" />
    <glyph glyph-name="ebreve" unicode="&#x115;" horiz-adv-x="1101" 
d="M583 -21c-150.667 0 -270.499 50.167 -359.499 150.5s-133.5 230.5 -133.5 390.5v44c0 154 45.833 282.167 137.5 384.5s200.167 153.5 325.5 153.5c145.333 0 255.5 -44 330.5 -132s112.5 -205.333 112.5 -352v-123h-702l-3 -5c2 -104 28.333 -189.5 79 -256.5
s121.667 -100.5 213 -100.5c66.667 0 125.167 9.5 175.5 28.5s93.833 45.167 130.5 78.5l77 -128c-38.667 -37.333 -89.834 -68.833 -153.501 -94.5s-140.167 -38.5 -229.5 -38.5zM553.001 947c-66 0 -122.333 -27.833 -169 -83.5s-75.334 -125.5 -86.001 -209.5l2 -5h499
v26c0 77.333 -20.667 142 -62 194s-102.666 78 -183.999 78zM840.001 1543l2 -6c2.66699 -77.333 -23 -140.333 -77 -189s-126.667 -73 -218 -73c-92 0 -165 24.333 -219 73s-79.333 111.667 -76 189l2 6h150c0 -43.333 11.5 -78.833 34.5 -106.5s59.167 -41.5 108.5 -41.5
c48 0 83.667 13.833 107 41.5s35 63.167 35 106.5h151z" />
    <glyph glyph-name="Edotaccent" unicode="&#x116;" horiz-adv-x="1306" 
d="M71 0v126l163 28v1147l-163 28v127h1118v-350h-169l-16 195h-573v-471h557v-155h-557v-521h585l16 195h168v-349h-1129zM751 1603h-217v201h217v-201z" />
    <glyph glyph-name="edotaccent" unicode="&#x117;" horiz-adv-x="1101" 
d="M583 -21c-150.667 0 -270.499 50.167 -359.499 150.5s-133.5 230.5 -133.5 390.5v44c0 154 45.833 282.167 137.5 384.5s200.167 153.5 325.5 153.5c145.333 0 255.5 -44 330.5 -132s112.5 -205.333 112.5 -352v-123h-702l-3 -5c2 -104 28.333 -189.5 79 -256.5
s121.667 -100.5 213 -100.5c66.667 0 125.167 9.5 175.5 28.5s93.833 45.167 130.5 78.5l77 -128c-38.667 -37.333 -89.834 -68.833 -153.501 -94.5s-140.167 -38.5 -229.5 -38.5zM553.001 947c-66 0 -122.333 -27.833 -169 -83.5s-75.334 -125.5 -86.001 -209.5l2 -5h499
v26c0 77.333 -20.667 142 -62 194s-102.666 78 -183.999 78zM655.001 1278h-217v201h217v-201z" />
    <glyph glyph-name="Eogonek" unicode="&#x118;" horiz-adv-x="1306" 
d="M71 0v126l163 28v1147l-163 28v127h1118v-350h-169l-16 195h-573v-471h557v-155h-557v-521h585l16 195h168v-349h-1129zM718 9c-46.667 -34.667 -83.166 -67.833 -109.499 -99.5s-39.5 -65.5 -39.5 -101.5c0 -28 7.5 -50 22.5 -66s39.5 -24 73.5 -24
c18 0 34.667 2.5 50 7.5s31.666 11.167 48.999 18.5l33 -123c-24 -12.667 -50.5 -23.167 -79.5 -31.5s-63.5 -12.5 -103.5 -12.5c-62.667 0 -114.167 18.333 -154.5 55s-60.5 88 -60.5 154c0 53.333 20.167 104 60.5 152s102.833 90.667 187.5 128z" />
    <glyph glyph-name="eogonek" unicode="&#x119;" horiz-adv-x="1101" 
d="M583 -21c-150.667 0 -270.499 50.167 -359.499 150.5s-133.5 230.5 -133.5 390.5v44c0 154 45.833 282.167 137.5 384.5s200.167 153.5 325.5 153.5c145.333 0 255.5 -44 330.5 -132s112.5 -205.333 112.5 -352v-123h-702l-3 -5c2 -104 28.333 -189.5 79 -256.5
s121.667 -100.5 213 -100.5c66.667 0 125.167 9.5 175.5 28.5s93.833 45.167 130.5 78.5l77 -128c-38.667 -37.333 -89.834 -68.833 -153.501 -94.5s-140.167 -38.5 -229.5 -38.5zM553.001 947c-66 0 -122.333 -27.833 -169 -83.5s-75.334 -125.5 -86.001 -209.5l2 -5h499
v26c0 77.333 -20.667 142 -62 194s-102.666 78 -183.999 78zM853.001 58c-46.667 -34.667 -83.166 -67.833 -109.499 -99.5s-39.5 -65.5 -39.5 -101.5c0 -28 7.5 -50 22.5 -66s39.5 -24 73.5 -24c18 0 34.667 2.5 50 7.5s31.666 11.167 48.999 18.5l33 -123
c-24 -12.667 -50.5 -23.167 -79.5 -31.5s-63.5 -12.5 -103.5 -12.5c-62.667 0 -114.167 18.333 -154.5 55s-60.5 88 -60.5 154c0 53.333 20.167 104 60.5 152s102.833 90.667 187.5 128z" />
    <glyph glyph-name="Ecaron" unicode="&#x11a;" horiz-adv-x="1306" 
d="M71 0v126l163 28v1147l-163 28v127h1118v-350h-169l-16 195h-573v-471h557v-155h-557v-521h585l16 195h168v-349h-1129zM649 1697l147 148h170v-18l-257 -245h-119l-253 243v20h166z" />
    <glyph glyph-name="ecaron" unicode="&#x11b;" horiz-adv-x="1101" 
d="M583 -21c-150.667 0 -270.499 50.167 -359.499 150.5s-133.5 230.5 -133.5 390.5v44c0 154 45.833 282.167 137.5 384.5s200.167 153.5 325.5 153.5c145.333 0 255.5 -44 330.5 -132s112.5 -205.333 112.5 -352v-123h-702l-3 -5c2 -104 28.333 -189.5 79 -256.5
s121.667 -100.5 213 -100.5c66.667 0 125.167 9.5 175.5 28.5s93.833 45.167 130.5 78.5l77 -128c-38.667 -37.333 -89.834 -68.833 -153.501 -94.5s-140.167 -38.5 -229.5 -38.5zM553.001 947c-66 0 -122.333 -27.833 -169 -83.5s-75.334 -125.5 -86.001 -209.5l2 -5h499
v26c0 77.333 -20.667 142 -62 194s-102.666 78 -183.999 78zM553.001 1372l147 148h170v-18l-257 -245h-119l-253 243v20h166z" />
    <glyph glyph-name="Gcircumflex" unicode="&#x11c;" horiz-adv-x="1387" 
d="M1230 165c-42.667 -44.667 -105.669 -86.833 -189.002 -126.5s-191.666 -59.5 -324.999 -59.5c-194.667 0 -353.5 68.333 -476.5 205s-184.5 314 -184.5 532v24c0 219.333 60.833 397 182.5 533s283.5 204 485.5 204c108 0 202.833 -16.833 284.5 -50.5
s150.5 -78.167 206.5 -133.5v-264h-138l-48 201c-32.667 26.667 -72.167 48.667 -118.5 66s-101.833 26 -166.5 26c-157.333 0 -278.5 -53.833 -363.5 -161.5s-127.5 -247.167 -127.5 -418.5v-26c0 -174 41.167 -314.667 123.5 -422s195.833 -161 340.5 -161
c79.333 0 144.333 8.33301 195 25s91.334 35 122.001 55v319l-239 10v145h436v-522zM1026 1612v-25h-161l-147 148l-145 -148h-160v26l246 237h119z" />
    <glyph glyph-name="gcircumflex" unicode="&#x11d;" horiz-adv-x="1159" 
d="M90 521c0 174 37.999 314.334 113.999 421.001s181 160 315 160c68 0 127.667 -13.333 179 -40s94.333 -65.334 129 -116.001l18 136h166v-1068c0 -140 -39 -250.167 -117 -330.5s-189 -120.5 -333 -120.5c-52 0 -108.333 7.16699 -169 21.5s-114 33.833 -160 58.5
l51 153c36.667 -19.333 80 -35.333 130 -48s98.667 -19 146 -19c88 0 152.5 24.667 193.5 74s61.5 119.666 61.5 210.999v103c-35.333 -45.333 -77.666 -79.666 -126.999 -102.999s-106 -35 -170 -35c-132.667 0 -237 48 -313 144s-114 221.667 -114 377v21z
M286.999 500.001c0 -108.667 23 -196 69 -262s116 -99 210 -99c59.333 0 109 13.5 149 40.5s73 65.167 99 114.5v498c-25.333 46 -58.333 82.5 -99 109.5s-89.667 40.5 -147 40.5c-94 0 -164.333 -39.333 -211 -118s-70 -179.667 -70 -303v-21zM896.999 1288v-25h-161
l-147 148l-145 -148h-160v26l246 237h119z" />
    <glyph glyph-name="Gbreve" unicode="&#x11e;" horiz-adv-x="1387" 
d="M1230 165c-42.667 -44.667 -105.669 -86.833 -189.002 -126.5s-191.666 -59.5 -324.999 -59.5c-194.667 0 -353.5 68.333 -476.5 205s-184.5 314 -184.5 532v24c0 219.333 60.833 397 182.5 533s283.5 204 485.5 204c108 0 202.833 -16.833 284.5 -50.5
s150.5 -78.167 206.5 -133.5v-264h-138l-48 201c-32.667 26.667 -72.167 48.667 -118.5 66s-101.833 26 -166.5 26c-157.333 0 -278.5 -53.833 -363.5 -161.5s-127.5 -247.167 -127.5 -418.5v-26c0 -174 41.167 -314.667 123.5 -422s195.833 -161 340.5 -161
c79.333 0 144.333 8.33301 195 25s91.334 35 122.001 55v319l-239 10v145h436v-522zM1003 1867l2 -6c2.66699 -77.333 -23 -140.333 -77 -189s-126.667 -73 -218 -73c-92 0 -165 24.333 -219 73s-79.333 111.667 -76 189l2 6h150c0 -43.333 11.5 -78.833 34.5 -106.5
s59.167 -41.5 108.5 -41.5c48 0 83.667 13.833 107 41.5s35 63.167 35 106.5h151z" />
    <glyph glyph-name="gbreve" unicode="&#x11f;" horiz-adv-x="1159" 
d="M90 521c0 174 37.999 314.334 113.999 421.001s181 160 315 160c68 0 127.667 -13.333 179 -40s94.333 -65.334 129 -116.001l18 136h166v-1068c0 -140 -39 -250.167 -117 -330.5s-189 -120.5 -333 -120.5c-52 0 -108.333 7.16699 -169 21.5s-114 33.833 -160 58.5
l51 153c36.667 -19.333 80 -35.333 130 -48s98.667 -19 146 -19c88 0 152.5 24.667 193.5 74s61.5 119.666 61.5 210.999v103c-35.333 -45.333 -77.666 -79.666 -126.999 -102.999s-106 -35 -170 -35c-132.667 0 -237 48 -313 144s-114 221.667 -114 377v21z
M286.999 500.001c0 -108.667 23 -196 69 -262s116 -99 210 -99c59.333 0 109 13.5 149 40.5s73 65.167 99 114.5v498c-25.333 46 -58.333 82.5 -99 109.5s-89.667 40.5 -147 40.5c-94 0 -164.333 -39.333 -211 -118s-70 -179.667 -70 -303v-21zM873.999 1543l2 -6
c2.66699 -77.333 -23 -140.333 -77 -189s-126.667 -73 -218 -73c-92 0 -165 24.333 -219 73s-79.333 111.667 -76 189l2 6h150c0 -43.333 11.5 -78.833 34.5 -106.5s59.167 -41.5 108.5 -41.5c48 0 83.667 13.833 107 41.5s35 63.167 35 106.5h151z" />
    <glyph glyph-name="uni0120" unicode="&#x120;" horiz-adv-x="1387" 
d="M1230 165c-42.667 -44.667 -105.669 -86.833 -189.002 -126.5s-191.666 -59.5 -324.999 -59.5c-194.667 0 -353.5 68.333 -476.5 205s-184.5 314 -184.5 532v24c0 219.333 60.833 397 182.5 533s283.5 204 485.5 204c108 0 202.833 -16.833 284.5 -50.5
s150.5 -78.167 206.5 -133.5v-264h-138l-48 201c-32.667 26.667 -72.167 48.667 -118.5 66s-101.833 26 -166.5 26c-157.333 0 -278.5 -53.833 -363.5 -161.5s-127.5 -247.167 -127.5 -418.5v-26c0 -174 41.167 -314.667 123.5 -422s195.833 -161 340.5 -161
c79.333 0 144.333 8.33301 195 25s91.334 35 122.001 55v319l-239 10v145h436v-522zM817.998 1602h-217v201h217v-201z" />
    <glyph glyph-name="uni0121" unicode="&#x121;" horiz-adv-x="1159" 
d="M90 521c0 174 37.999 314.334 113.999 421.001s181 160 315 160c68 0 127.667 -13.333 179 -40s94.333 -65.334 129 -116.001l18 136h166v-1068c0 -140 -39 -250.167 -117 -330.5s-189 -120.5 -333 -120.5c-52 0 -108.333 7.16699 -169 21.5s-114 33.833 -160 58.5
l51 153c36.667 -19.333 80 -35.333 130 -48s98.667 -19 146 -19c88 0 152.5 24.667 193.5 74s61.5 119.666 61.5 210.999v103c-35.333 -45.333 -77.666 -79.666 -126.999 -102.999s-106 -35 -170 -35c-132.667 0 -237 48 -313 144s-114 221.667 -114 377v21z
M286.999 500.001c0 -108.667 23 -196 69 -262s116 -99 210 -99c59.333 0 109 13.5 149 40.5s73 65.167 99 114.5v498c-25.333 46 -58.333 82.5 -99 109.5s-89.667 40.5 -147 40.5c-94 0 -164.333 -39.333 -211 -118s-70 -179.667 -70 -303v-21zM688.999 1278h-217v201h217
v-201z" />
    <glyph glyph-name="Gcommaaccent" unicode="&#x122;" horiz-adv-x="1387" 
d="M1230 165c-42.667 -44.667 -105.669 -86.833 -189.002 -126.5s-191.666 -59.5 -324.999 -59.5c-194.667 0 -353.5 68.333 -476.5 205s-184.5 314 -184.5 532v24c0 219.333 60.833 397 182.5 533s283.5 204 485.5 204c108 0 202.833 -16.833 284.5 -50.5
s150.5 -78.167 206.5 -133.5v-264h-138l-48 201c-32.667 26.667 -72.167 48.667 -118.5 66s-101.833 26 -166.5 26c-157.333 0 -278.5 -53.833 -363.5 -161.5s-127.5 -247.167 -127.5 -418.5v-26c0 -174 41.167 -314.667 123.5 -422s195.833 -161 340.5 -161
c79.333 0 144.333 8.33301 195 25s91.334 35 122.001 55v319l-239 10v145h436v-522zM767.998 -233.999c0 -68 -14.832 -137 -44.499 -207s-71.834 -128 -126.501 -174l-111 74c31.333 47.333 54.833 95.5 70.5 144.5s23.5 102.167 23.5 159.5v119h188v-116z" />
    <glyph glyph-name="gcommaaccent" unicode="&#x123;" horiz-adv-x="1159" 
d="M90 521c0 174 37.999 314.334 113.999 421.001s181 160 315 160c68 0 127.667 -13.333 179 -40s94.333 -65.334 129 -116.001l18 136h166v-1068c0 -140 -39 -250.167 -117 -330.5s-189 -120.5 -333 -120.5c-52 0 -108.333 7.16699 -169 21.5s-114 33.833 -160 58.5
l51 153c36.667 -19.333 80 -35.333 130 -48s98.667 -19 146 -19c88 0 152.5 24.667 193.5 74s61.5 119.666 61.5 210.999v103c-35.333 -45.333 -77.666 -79.666 -126.999 -102.999s-106 -35 -170 -35c-132.667 0 -237 48 -313 144s-114 221.667 -114 377v21z
M286.999 500.001c0 -108.667 23 -196 69 -262s116 -99 210 -99c59.333 0 109 13.5 149 40.5s73 65.167 99 114.5v498c-25.333 46 -58.333 82.5 -99 109.5s-89.667 40.5 -147 40.5c-94 0 -164.333 -39.333 -211 -118s-70 -179.667 -70 -303v-21zM483.999 1398l121 247h97
l-21 -257v-138h-197v148z" />
    <glyph glyph-name="Hcircumflex" unicode="&#x124;" horiz-adv-x="1573" 
d="M71 1329v127h523v-127l-163 -28v-503h706v503l-163 28v127h163h197h163v-127l-163 -28v-1147l163 -28v-126h-523v126l163 28v489h-706v-489l163 -28v-126h-523v126l163 28v1147zM1084 1611v-25h-161l-147 148l-145 -148h-160v26l246 237h119z" />
    <glyph glyph-name="hcircumflex" unicode="&#x125;" horiz-adv-x="1322" 
d="M62 126l163 28v1251l-163 28v127h360v-622c37.333 52 83 92.333 137 121s114 43 180 43c116 0 206 -34.667 270 -104s96 -176 96 -320v-524l163 -28v-126h-523v126l163 28v526c0 89.333 -19.167 155.333 -57.5 198s-95.5 64 -171.5 64
c-54 0 -103.167 -12.833 -147.5 -38.5s-80.833 -60.5 -109.5 -104.5v-645l163 -28v-126h-523v126zM864 1612v-25h-161l-147 148l-145 -148h-160v26l246 237h119z" />
    <glyph glyph-name="Hbar" unicode="&#x126;" horiz-adv-x="1527" 
d="M1472 1456v-127l-163 -28v-201h131v-145h-131v-801l163 -28v-126h-523v126l163 28v489h-706v-489l163 -28v-126h-523v126l163 28v801h-161v145h161v201l-163 28v127h523v-127l-163 -28v-201h706v201l-163 28v127h163h197h163zM406 798h706v157h-706v-157z" />
    <glyph glyph-name="hbar" unicode="&#x127;" horiz-adv-x="1352" 
d="M92 126l163 28v1000h-204v155h204v96l-163 28v127h360v-251h240v-155h-240v-216c37.333 52 83 92.333 137 121s114 43 180 43c116 0 206 -34.667 270 -104s96 -176 96 -320v-524l163 -28v-126h-523v126l163 28v526c0 89.333 -19.167 155.333 -57.5 198
s-95.5 64 -171.5 64c-54 0 -103.167 -12.833 -147.5 -38.5s-80.833 -60.5 -109.5 -104.5v-645l163 -28v-126h-523v126z" />
    <glyph glyph-name="Itilde" unicode="&#x128;" horiz-adv-x="662" 
d="M70 1329v127h523v-127l-163 -28v-1147l163 -28v-126h-523v126l163 28v1147zM676 1842c0 -62.667 -19.834 -115.666 -59.501 -158.999s-89.5 -65 -149.5 -65c-47.333 0 -96.666 15.5 -147.999 46.5s-94 46.5 -128 46.5c-28 0 -51.833 -10.833 -71.5 -32.5
s-29.5 -47.834 -29.5 -78.501l-107 26c0 62 19.5 115.833 58.5 161.5s88.833 68.5 149.5 68.5c37.333 0 84 -15.667 140 -47s101.333 -47 136 -47c27.333 0 51 10.833 71 32.5s30 48.167 30 79.5z" />
    <glyph glyph-name="itilde" unicode="&#x129;" horiz-adv-x="672" 
d="M90 955v127h360v-928l163 -28v-126h-523v126l163 28v773zM684 1518c0 -62.667 -19.834 -115.666 -59.501 -158.999s-89.5 -65 -149.5 -65c-47.333 0 -96.666 15.5 -147.999 46.5s-94 46.5 -128 46.5c-28 0 -51.833 -10.833 -71.5 -32.5s-29.5 -47.834 -29.5 -78.501
l-107 26c0 62 19.5 115.833 58.5 161.5s88.833 68.5 149.5 68.5c37.333 0 84 -15.667 140 -47s101.333 -47 136 -47c27.333 0 51 10.833 71 32.5s30 48.167 30 79.5z" />
    <glyph glyph-name="Imacron" unicode="&#x12a;" horiz-adv-x="662" 
d="M70 1329v127h523v-127l-163 -28v-1147l163 -28v-126h-523v126l163 28v1147zM696 1648h-721v146h721v-146z" />
    <glyph glyph-name="imacron" unicode="&#x12b;" horiz-adv-x="672" 
d="M90 955v127h360v-928l163 -28v-126h-523v126l163 28v773zM704 1324h-721v146h721v-146z" />
    <glyph glyph-name="Ibreve" unicode="&#x12c;" horiz-adv-x="662" 
d="M70 1329v127h523v-127l-163 -28v-1147l163 -28v-126h-523v126l163 28v1147zM623 1866l2 -6c2.66699 -77.333 -23 -140.333 -77 -189s-126.667 -73 -218 -73c-92 0 -165 24.333 -219 73s-79.333 111.667 -76 189l2 6h150c0 -43.333 11.5 -78.833 34.5 -106.5
s59.167 -41.5 108.5 -41.5c48 0 83.667 13.833 107 41.5s35 63.167 35 106.5h151z" />
    <glyph glyph-name="ibreve" unicode="&#x12d;" horiz-adv-x="672" 
d="M90 955v127h360v-928l163 -28v-126h-523v126l163 28v773zM631 1542l2 -6c2.66699 -77.333 -23 -140.333 -77 -189s-126.667 -73 -218 -73c-92 0 -165 24.333 -219 73s-79.333 111.667 -76 189l2 6h150c0 -43.333 11.5 -78.833 34.5 -106.5s59.167 -41.5 108.5 -41.5
c48 0 83.667 13.833 107 41.5s35 63.167 35 106.5h151z" />
    <glyph glyph-name="Iogonek" unicode="&#x12e;" horiz-adv-x="662" 
d="M70 1329v127h523v-127l-163 -28v-1147l163 -28v-126h-523v126l163 28v1147zM593 0c-46.667 -34.667 -83.166 -67.833 -109.499 -99.5s-39.5 -65.5 -39.5 -101.5c0 -28 7.5 -50 22.5 -66s39.5 -24 73.5 -24c18 0 34.667 2.5 50 7.5s31.666 11.167 48.999 18.5l33 -123
c-24 -12.667 -50.5 -23.167 -79.5 -31.5s-63.5 -12.5 -103.5 -12.5c-62.667 0 -114.167 18.333 -154.5 55s-60.5 88 -60.5 154c0 53.333 20.167 104 60.5 152s102.833 90.667 187.5 128z" />
    <glyph glyph-name="iogonek" unicode="&#x12f;" horiz-adv-x="673" 
d="M89 126l163 28v773l-163 28v127h360v-928l163 -28v-126h-523v126zM449 1359h-197v201h197v-201zM612 0c-46.667 -34.667 -83.166 -67.833 -109.499 -99.5s-39.5 -65.5 -39.5 -101.5c0 -28 7.5 -50 22.5 -66s39.5 -24 73.5 -24c18 0 34.667 2.5 50 7.5
s31.666 11.167 48.999 18.5l33 -123c-24 -12.667 -50.5 -23.167 -79.5 -31.5s-63.5 -12.5 -103.5 -12.5c-62.667 0 -114.167 18.333 -154.5 55s-60.5 88 -60.5 154c0 53.333 20.167 104 60.5 152s102.833 90.667 187.5 128z" />
    <glyph glyph-name="Idotaccent" unicode="&#x130;" horiz-adv-x="662" 
d="M70 1329v127h523v-127l-163 -28v-1147l163 -28v-126h-523v126l163 28v1147zM437 1601h-217v201h217v-201z" />
    <glyph glyph-name="dotlessi" unicode="&#x131;" horiz-adv-x="672" 
d="M90 955v127h360v-928l163 -28v-126h-523v126l163 28v773z" />
    <glyph glyph-name="IJ" unicode="&#x132;" horiz-adv-x="1845" 
d="M70 1329v127h523v-127l-163 -28v-1147l163 -28v-126h-523v126l163 28v1147zM1786 1456v-127l-163 -28v-898c0 -130 -41.167 -233.167 -123.5 -309.5s-189.166 -114.5 -320.499 -114.5c-140 0 -251.333 35.5 -334 106.5s-122.334 174.167 -119.001 309.5l2 6h189
c0 -90 22.833 -157.167 68.5 -201.5s110.167 -66.5 193.5 -66.5c72.667 0 132 24.5 178 73.5s69 114.5 69 196.5v898l-163 28v127h360h163z" />
    <glyph glyph-name="ij" unicode="&#x133;" horiz-adv-x="1244" 
d="M89 126l163 28v773l-163 28v127h360v-928l163 -28v-126h-523v126zM449 1359h-197v201h197v-201zM1097 -89c0 -111.333 -28.668 -197.168 -86.001 -257.501s-137 -90.5 -239 -90.5c-21.333 0 -40.666 1.5 -57.999 4.5s-35.333 7.5 -54 13.5l13 155
c9.33301 -3.33301 23 -6.16602 41 -8.49902s32.667 -3.5 44 -3.5c43.333 0 77.833 14.667 103.5 44s38.5 77 38.5 143v1016l-163 28v127h360v-1171zM1091 1363h-197v197h197v-197z" />
    <glyph glyph-name="Jcircumflex" unicode="&#x134;" horiz-adv-x="1183" 
d="M1124 1456v-127l-163 -28v-898c0 -130 -41.167 -233.167 -123.5 -309.5s-189.166 -114.5 -320.499 -114.5c-140 0 -251.333 35.5 -334 106.5s-122.334 174.167 -119.001 309.5l2 6h189c0 -90 22.833 -157.167 68.5 -201.5s110.167 -66.5 193.5 -66.5
c72.667 0 132 24.5 178 73.5s69 114.5 69 196.5v898l-163 28v127h360h163zM1164 1601v-25h-161l-147 148l-145 -148h-160v26l246 237h119z" />
    <glyph glyph-name="jcircumflex" unicode="&#x135;" horiz-adv-x="579" 
d="M433 -89c0 -111.333 -28.667 -197.167 -86 -257.5s-137 -90.5 -239 -90.5c-21.333 0 -40.666 1.5 -57.999 4.5s-35.333 7.5 -54 13.5l13 150c9.33301 -3.33301 25.166 -6.33301 47.499 -9s39.5 -4 51.5 -4c39.333 0 70.5 17.167 93.5 51.5s34.5 81.5 34.5 141.5v1016
l-163 28v127h360v-1171zM637 1286v-25h-161l-147 148l-145 -148h-160v26l246 237h119z" />
    <glyph glyph-name="Kcommaaccent" unicode="&#x136;" horiz-adv-x="1452" 
d="M71 126l163 28v1147l-163 28v127h523v-127l-163 -28v-489h151l407 503l-109 14v127h462v-127l-137 -25l-445 -552l486 -601l137 -25v-126h-478v126l111 14l-415 517h-170v-503l163 -28v-126h-523v126zM758 -218c0 -68 -14.832 -137 -44.499 -207
s-71.834 -128 -126.501 -174l-111 74c31.333 47.333 54.833 95.5 70.5 144.5s23.5 102.167 23.5 159.5v119h188v-116z" />
    <glyph glyph-name="kcommaaccent" unicode="&#x137;" horiz-adv-x="1245" 
d="M62 1433v127h360v-904h126l231 286l-99 13v127h453v-127l-132 -26l-285 -340l347 -439l123 -24v-126h-449v126l101 13l-287 360h-129v-345l163 -28v-126h-523v126l163 28v1251zM684 -215c0 -68 -14.832 -137 -44.499 -207s-71.834 -128 -126.501 -174l-111 74
c31.333 47.333 54.833 95.5 70.5 144.5s23.5 102.167 23.5 159.5v119h188v-116z" />
    <glyph glyph-name="kgreenlandic" unicode="&#x138;" horiz-adv-x="1257" 
d="M62 126l163 28v773l-154 28v126h351v-425h126l252 287l-90 12v127h452v-127l-132 -26l-311 -343l344 -436l123 -24v-126h-237l-398 499h-129v-345l163 -28v-126h-523v126z" />
    <glyph glyph-name="Lacute" unicode="&#x139;" horiz-adv-x="1199" 
d="M71 0v126l163 28v1147l-163 28v127h163h197h163v-127l-163 -28v-1147h506l15 167h168v-321h-1049zM394 1817h230l2 -6l-269 -260h-147z" />
    <glyph glyph-name="lacute" unicode="&#x13a;" horiz-adv-x="645" 
d="M62 1433v127h360v-1406l163 -28v-126h-523v126l163 28v1251zM370 1884h230l2 -6l-269 -260h-147z" />
    <glyph glyph-name="Lcommaaccent" unicode="&#x13b;" horiz-adv-x="1199" 
d="M71 0v126l163 28v1147l-163 28v127h163h197h163v-127l-163 -28v-1147h506l15 167h168v-321h-1049zM751 -215c0 -68 -14.832 -137 -44.499 -207s-71.834 -128 -126.501 -174l-111 74c31.333 47.333 54.833 95.5 70.5 144.5s23.5 102.167 23.5 159.5v119h188v-116z" />
    <glyph glyph-name="lcommaaccent" unicode="&#x13c;" horiz-adv-x="645" 
d="M62 1433v127h360v-1406l163 -28v-126h-523v126l163 28v1251zM417 -225c0 -68 -14.832 -137 -44.499 -207s-71.834 -128 -126.501 -174l-111 74c31.333 47.333 54.833 95.5 70.5 144.5s23.5 102.167 23.5 159.5v119h188v-116z" />
    <glyph glyph-name="Lcaron" unicode="&#x13d;" horiz-adv-x="1199" 
d="M71 0v126l163 28v1147l-163 28v127h163h197h163v-127l-163 -28v-1147h506l15 167h168v-321h-1049zM853 1341c0 -68 -14.832 -137 -44.499 -207s-71.834 -128 -126.501 -174l-111 74c31.333 47.333 54.833 95.5 70.5 144.5s23.5 102.167 23.5 159.5v119h188v-116z" />
    <glyph glyph-name="lcaron" unicode="&#x13e;" horiz-adv-x="795" 
d="M62 1433v127h360v-1406l163 -28v-126h-523v126l163 28v1251zM735 1444c0 -68 -14.832 -137 -44.499 -207s-71.834 -128 -126.501 -174l-111 74c31.333 47.333 54.833 95.5 70.5 144.5s23.5 102.167 23.5 159.5v119h188v-116z" />
    <glyph glyph-name="Ldot" unicode="&#x13f;" horiz-adv-x="1199" 
d="M71 0v126l163 28v1147l-163 28v127h163h197h163v-127l-163 -28v-1147h506l15 167h168v-321h-1049zM845 687h-217v201h217v-201z" />
    <glyph glyph-name="ldot" unicode="&#x140;" horiz-adv-x="865" 
d="M62 1433v127h360v-1406l163 -28v-126h-523v126l163 28v1251zM728 670h-217v201h217v-201z" />
    <glyph glyph-name="Lslash" unicode="&#x141;" horiz-adv-x="1199" 
d="M594 1329l-163 -28v-449l238 76v-165l-238 -76v-533h506l15 167h168v-321h-1049v126l163 28v471l-154 -49v165l154 49v511l-163 28v127h523v-127z" />
    <glyph glyph-name="lslash" unicode="&#x142;" horiz-adv-x="645" 
d="M422 873l149 57v-165l-149 -57v-554l163 -28v-126h-523v126l163 28v479l-144 -55v165l144 55v607l-163 28v127h163h197v-687z" />
    <glyph glyph-name="Nacute" unicode="&#x143;" horiz-adv-x="1560" 
d="M1497 1456v-127l-163 -28v-1301h-197l-700 1124l-6 -2v-968l163 -28v-126h-523v126l163 28v1147l-163 28v127h163h197l700 -1123l6 2v966l-163 28v127h360h163zM809 1823h230l2 -6l-269 -260h-147z" />
    <glyph glyph-name="nacute" unicode="&#x144;" horiz-adv-x="1318" 
d="M60 126l163.002 27.999v773l-163 28v127h339l14 -161c36 57.333 81.167 101.833 135.5 133.5s116.166 47.5 185.499 47.5c116.667 0 207 -34.167 271 -102.5s96 -173.833 96 -316.5v-529l163 -28v-126h-523v126l163 28v525c0 95.333 -18.833 163 -56.5 203
s-95.167 60 -172.5 60c-56.667 0 -106.834 -13.667 -150.501 -41s-78.5 -64.666 -104.5 -111.999v-635l163 -28v-126h-523v126zM727.002 1498h230l2 -6l-269 -260h-147z" />
    <glyph glyph-name="Ncommaaccent" unicode="&#x145;" horiz-adv-x="1560" 
d="M1497 1456v-127l-163 -28v-1301h-197l-700 1124l-6 -2v-968l163 -28v-126h-523v126l163 28v1147l-163 28v127h163h197l700 -1123l6 2v966l-163 28v127h360h163zM851 -215c0 -68 -14.832 -137 -44.499 -207s-71.834 -128 -126.501 -174l-111 74
c31.333 47.333 54.833 95.5 70.5 144.5s23.5 102.167 23.5 159.5v119h188v-116z" />
    <glyph glyph-name="ncommaaccent" unicode="&#x146;" horiz-adv-x="1318" 
d="M60 126l163.002 27.999v773l-163 28v127h339l14 -161c36 57.333 81.167 101.833 135.5 133.5s116.166 47.5 185.499 47.5c116.667 0 207 -34.167 271 -102.5s96 -173.833 96 -316.5v-529l163 -28v-126h-523v126l163 28v525c0 95.333 -18.833 163 -56.5 203
s-95.167 60 -172.5 60c-56.667 0 -106.834 -13.667 -150.501 -41s-78.5 -64.666 -104.5 -111.999v-635l163 -28v-126h-523v126zM745.002 -220.001c0 -68 -14.832 -137 -44.499 -207s-71.834 -128 -126.501 -174l-111 74c31.333 47.333 54.833 95.5 70.5 144.5
s23.5 102.167 23.5 159.5v119h188v-116z" />
    <glyph glyph-name="Ncaron" unicode="&#x147;" horiz-adv-x="1560" 
d="M1497 1456v-127l-163 -28v-1301h-197l-700 1124l-6 -2v-968l163 -28v-126h-523v126l163 28v1147l-163 28v127h163h197l700 -1123l6 2v966l-163 28v127h360h163zM749 1697l147 148h170v-18l-257 -245h-119l-253 243v20h166z" />
    <glyph glyph-name="ncaron" unicode="&#x148;" horiz-adv-x="1318" 
d="M60 126l163.002 27.999v773l-163 28v127h339l14 -161c36 57.333 81.167 101.833 135.5 133.5s116.166 47.5 185.499 47.5c116.667 0 207 -34.167 271 -102.5s96 -173.833 96 -316.5v-529l163 -28v-126h-523v126l163 28v525c0 95.333 -18.833 163 -56.5 203
s-95.167 60 -172.5 60c-56.667 0 -106.834 -13.667 -150.501 -41s-78.5 -64.666 -104.5 -111.999v-635l163 -28v-126h-523v126zM667.002 1372l147 148h170v-18l-257 -245h-119l-253 243v20h166z" />
    <glyph glyph-name="napostrophe" unicode="&#x149;" horiz-adv-x="1318" 
d="M60 126l163.002 27.999v773l-163 28v127h339l14 -161c36 57.333 81.167 101.833 135.5 133.5s116.166 47.5 185.499 47.5c116.667 0 207 -34.167 271 -102.5s96 -173.833 96 -316.5v-529l163 -28v-126h-523v126l163 28v525c0 95.333 -18.833 163 -56.5 203
s-95.167 60 -172.5 60c-56.667 0 -106.834 -13.667 -150.501 -41s-78.5 -64.666 -104.5 -111.999v-635l163 -28v-126h-523v126zM199.002 1444c0 -68 -14.832 -137 -44.499 -207s-71.834 -128 -126.501 -174l-111 74c31.333 47.333 54.833 95.5 70.5 144.5
s23.5 102.167 23.5 159.5v119h188v-116z" />
    <glyph glyph-name="Eng" unicode="&#x14a;" horiz-adv-x="1559" 
d="M70 126l162.997 27.999v1147l-163 28v127h360l700 -1112l6 2v955l-163 28v127h163h197h163v-127l-163 -28v-1390c0 -111.333 -28.667 -197.166 -86 -257.499s-137.333 -90.5 -240 -90.5c-20.667 0 -39.667 1.5 -57 4.5s-35.666 7.5 -54.999 13.5l14 150
c8.66699 -3.33301 24.334 -6.33301 47.001 -9s39.667 -4 51 -4c40.667 0 72.334 17.167 95.001 51.5s34 81.5 34 141.5v89l-700 1112l-6 -2v-956l163 -28v-126h-523v126z" />
    <glyph glyph-name="eng" unicode="&#x14b;" horiz-adv-x="1263" 
d="M90 955v126.998h339l13 -149c36 53.333 80.667 94.833 134 124.5s113.333 44.5 180 44.5c116 0 206.167 -34.167 270.5 -102.5s96.5 -173.833 96.5 -316.5v-772c0 -111.333 -28.833 -197.166 -86.5 -257.499s-137.5 -90.5 -239.5 -90.5c-21.333 0 -40.833 1.5 -58.5 4.5
s-35.834 7.5 -54.501 13.5l14 160c8.66699 -3.33301 24.334 -6.16602 47.001 -8.49902s40 -3.5 52 -3.5c40.667 0 72.334 15.667 95.001 47s34 76.333 34 135v768c0 95.333 -19 163 -57 203s-96 60 -174 60c-56.667 0 -105.334 -10.833 -146.001 -32.5
s-73.667 -52.167 -99 -91.5v-664l163 -28v-126h-523v126l163 28v773z" />
    <glyph glyph-name="Omacron" unicode="&#x14c;" horiz-adv-x="1445" 
d="M1368 717c0 -212 -60.833 -388 -182.5 -528s-279.167 -210 -472.5 -210c-188 0 -340.667 70 -458 210s-176 316 -176 528v21c0 211.333 58.667 387.333 176 528s270 211 458 211c193.333 0 350.833 -70.333 472.5 -211s182.5 -316.667 182.5 -528v-21zM1171 740
c0 169.333 -40.5 307.5 -121.5 414.5s-193.167 160.5 -336.5 160.5c-137.333 0 -244.5 -53.667 -321.5 -161s-115.5 -245.333 -115.5 -414v-23c0 -170.667 38.5 -309.5 115.5 -416.5s184.167 -160.5 321.5 -160.5c145.333 0 258 53.333 338 160s120 245.667 120 417v23z
M1077 1649h-721v146h721v-146z" />
    <glyph glyph-name="omacron" unicode="&#x14d;" horiz-adv-x="1149" 
d="M90 551c0 160 43.333 291.833 130 395.5s204.334 155.5 353.001 155.5c149.333 0 267.5 -51.667 354.5 -155s130.5 -235.333 130.5 -396v-22c0 -161.333 -43.333 -293.333 -130 -396s-204.334 -154 -353.001 -154c-150 0 -268.333 51.5 -355 154.5
s-130 234.833 -130 395.5v22zM287 529c0 -114.667 24.1689 -209.334 72.502 -284.001s120.166 -112 215.499 -112c93.333 0 164.333 37.333 213 112s73 169.334 73 284.001v22c0 113.333 -24.333 207.666 -73 282.999s-120.334 113 -215.001 113s-166 -37.667 -214 -113
s-72 -169.666 -72 -282.999v-22zM931.002 1325h-721v146h721v-146z" />
    <glyph glyph-name="Obreve" unicode="&#x14e;" horiz-adv-x="1445" 
d="M1368 717c0 -212 -60.833 -388 -182.5 -528s-279.167 -210 -472.5 -210c-188 0 -340.667 70 -458 210s-176 316 -176 528v21c0 211.333 58.667 387.333 176 528s270 211 458 211c193.333 0 350.833 -70.333 472.5 -211s182.5 -316.667 182.5 -528v-21zM1171 740
c0 169.333 -40.5 307.5 -121.5 414.5s-193.167 160.5 -336.5 160.5c-137.333 0 -244.5 -53.667 -321.5 -161s-115.5 -245.333 -115.5 -414v-23c0 -170.667 38.5 -309.5 115.5 -416.5s184.167 -160.5 321.5 -160.5c145.333 0 258 53.333 338 160s120 245.667 120 417v23z
M1004 1867l2 -6c2.66699 -77.333 -23 -140.333 -77 -189s-126.667 -73 -218 -73c-92 0 -165 24.333 -219 73s-79.333 111.667 -76 189l2 6h150c0 -43.333 11.5 -78.833 34.5 -106.5s59.167 -41.5 108.5 -41.5c48 0 83.667 13.833 107 41.5s35 63.167 35 106.5h151z" />
    <glyph glyph-name="obreve" unicode="&#x14f;" horiz-adv-x="1149" 
d="M90 551c0 160 43.333 291.833 130 395.5s204.334 155.5 353.001 155.5c149.333 0 267.5 -51.667 354.5 -155s130.5 -235.333 130.5 -396v-22c0 -161.333 -43.333 -293.333 -130 -396s-204.334 -154 -353.001 -154c-150 0 -268.333 51.5 -355 154.5
s-130 234.833 -130 395.5v22zM287 529c0 -114.667 24.1689 -209.334 72.502 -284.001s120.166 -112 215.499 -112c93.333 0 164.333 37.333 213 112s73 169.334 73 284.001v22c0 113.333 -24.333 207.666 -73 282.999s-120.334 113 -215.001 113s-166 -37.667 -214 -113
s-72 -169.666 -72 -282.999v-22zM858.002 1543l2 -6c2.66699 -77.333 -23 -140.333 -77 -189s-126.667 -73 -218 -73c-92 0 -165 24.333 -219 73s-79.333 111.667 -76 189l2 6h150c0 -43.333 11.5 -78.833 34.5 -106.5s59.167 -41.5 108.5 -41.5
c48 0 83.667 13.833 107 41.5s35 63.167 35 106.5h151z" />
    <glyph glyph-name="Ohungarumlaut" unicode="&#x150;" horiz-adv-x="1445" 
d="M1368 717c0 -212 -60.833 -388 -182.5 -528s-279.167 -210 -472.5 -210c-188 0 -340.667 70 -458 210s-176 316 -176 528v21c0 211.333 58.667 387.333 176 528s270 211 458 211c193.333 0 350.833 -70.333 472.5 -211s182.5 -316.667 182.5 -528v-21zM1171 740
c0 169.333 -40.5 307.5 -121.5 414.5s-193.167 160.5 -336.5 160.5c-137.333 0 -244.5 -53.667 -321.5 -161s-115.5 -245.333 -115.5 -414v-23c0 -170.667 38.5 -309.5 115.5 -416.5s184.167 -160.5 321.5 -160.5c145.333 0 258 53.333 338 160s120 245.667 120 417v23z
M997 1866h228l3 -6l-299 -260h-171l-2 5zM671 1866h211l2 -5l-240 -261h-157z" />
    <glyph glyph-name="ohungarumlaut" unicode="&#x151;" horiz-adv-x="1149" 
d="M90 551c0 160 43.333 291.833 130 395.5s204.334 155.5 353.001 155.5c149.333 0 267.5 -51.667 354.5 -155s130.5 -235.333 130.5 -396v-22c0 -161.333 -43.333 -293.333 -130 -396s-204.334 -154 -353.001 -154c-150 0 -268.333 51.5 -355 154.5
s-130 234.833 -130 395.5v22zM287 529c0 -114.667 24.1689 -209.334 72.502 -284.001s120.166 -112 215.499 -112c93.333 0 164.333 37.333 213 112s73 169.334 73 284.001v22c0 113.333 -24.333 207.666 -73 282.999s-120.334 113 -215.001 113s-166 -37.667 -214 -113
s-72 -169.666 -72 -282.999v-22zM851.002 1542h228l3 -6l-299 -260h-171l-2 5zM525.002 1542h211l2 -5l-240 -261h-157z" />
    <glyph glyph-name="OE" unicode="&#x152;" horiz-adv-x="1969" 
d="M963 0c-60.667 -6.66699 -112.833 -11.835 -156.5 -15.502s-87.834 -5.5 -132.501 -5.5c-166 0 -300.833 55.333 -404.5 166s-155.5 254.334 -155.5 431.001v304c0 176.667 51.5 320.334 154.5 431.001s237.5 166 403.5 166c46 0 92.833 -2 140.5 -6
s97.834 -9 150.501 -15h910v-350h-169l-16 195h-573v-471h557v-155h-557v-521h585l16 195h168v-349h-921zM674.001 133.999c35.333 0 70.999 1.16895 106.999 3.50195s71.667 6.16602 107 11.499l30 5v1147l-53 9c-33.333 3.33301 -66 6.16602 -98 8.49902
s-63.667 3.5 -95 3.5c-112.667 0 -201 -37.833 -265 -113.5s-96 -184.5 -96 -326.5v-306c0 -142.667 32.333 -252 97 -328s153.334 -114 266.001 -114z" />
    <glyph glyph-name="oe" unicode="&#x153;" horiz-adv-x="1898" 
d="M104 551c0 160 43.166 291.833 129.499 395.5s203.833 155.5 352.5 155.5c86.667 0 163.5 -18.333 230.5 -55s121.833 -88 164.5 -154c42.667 65.333 96.5 116.5 161.5 153.5s133.833 55.5 206.5 55.5c145.333 0 255.5 -44 330.5 -132s112.5 -205.333 112.5 -352v-123
h-702l-3 -5c2 -104 28.167 -189.5 78.5 -256.5s121.5 -100.5 213.5 -100.5c66.667 0 125.167 9.5 175.5 28.5s93.833 45.167 130.5 78.5l77 -128c-39.333 -38 -90.5 -69.667 -153.5 -95s-139.5 -38 -229.5 -38c-88 0 -166 17.667 -234 53s-123.333 85.333 -166 150
c-42.667 -64.667 -97.167 -114.667 -163.5 -150s-142.166 -53 -227.499 -53c-149.333 0 -267.333 51.5 -354 154.5s-130 234.833 -130 395.5v22zM300.999 529c0 -114.667 24 -209.334 72 -284.001s119.667 -112 215 -112c94 0 165.333 37.333 214 112s73 169.334 73 284.001
v22c0 113.333 -24.5 207.666 -73.5 282.999s-120.833 113 -215.5 113c-94 0 -165 -37.667 -213 -113s-72 -169.666 -72 -282.999v-22zM1349 947c-66 0 -122.333 -27.833 -169 -83.5s-75.334 -125.5 -86.001 -209.5l2 -5h499v26c0 77.333 -20.667 142 -62 194
s-102.666 78 -183.999 78z" />
    <glyph glyph-name="Racute" unicode="&#x154;" horiz-adv-x="1386" 
d="M710 1455c158.667 0 280.332 -35.167 364.999 -105.5s127 -170.166 127 -299.499c0 -70.667 -19.667 -133.334 -59 -188.001s-95.666 -97.667 -168.999 -129c79.333 -26 136.5 -68.333 171.5 -127s52.5 -131 52.5 -217v-117c0 -44.667 5.66699 -77.667 17 -99
s30 -34 56 -38l48 -6v-129h-106c-76.667 0 -131.167 26.667 -163.5 80s-48.5 118 -48.5 194v113c0 79.333 -23 143 -69 191s-107.667 72 -185 72h-316v-496l163 -28v-126h-523v126l163 28v1147l-163 28v126h163h476zM430.998 805l259 -0.000976562c110 0 190 21 240 63
s75 103.333 75 184c0 76.667 -24 137.334 -72 182.001s-122.333 67 -223 67h-279v-496zM700.998 1823h230l2 -6l-269 -260h-147z" />
    <glyph glyph-name="racute" unicode="&#x155;" horiz-adv-x="847" 
d="M89 955v127.001h339l19 -157c30.667 55.333 68.5 98.666 113.5 129.999s96.5 47 154.5 47c15.333 0 31.166 -1.16699 47.499 -3.5s28.833 -4.83301 37.5 -7.5l-26 -183l-112 6c-52 0 -95.667 -12.167 -131 -36.5s-62.666 -58.5 -81.999 -102.5v-621l163 -28v-126h-523
v126l163 28v773zM520 1501h230l2 -6l-269 -260h-147z" />
    <glyph glyph-name="Rcommaaccent" unicode="&#x156;" horiz-adv-x="1386" 
d="M710 1455c158.667 0 280.332 -35.167 364.999 -105.5s127 -170.166 127 -299.499c0 -70.667 -19.667 -133.334 -59 -188.001s-95.666 -97.667 -168.999 -129c79.333 -26 136.5 -68.333 171.5 -127s52.5 -131 52.5 -217v-117c0 -44.667 5.66699 -77.667 17 -99
s30 -34 56 -38l48 -6v-129h-106c-76.667 0 -131.167 26.667 -163.5 80s-48.5 118 -48.5 194v113c0 79.333 -23 143 -69 191s-107.667 72 -185 72h-316v-496l163 -28v-126h-523v126l163 28v1147l-163 28v126h163h476zM430.998 805l259 -0.000976562c110 0 190 21 240 63
s75 103.333 75 184c0 76.667 -24 137.334 -72 182.001s-122.333 67 -223 67h-279v-496zM839.998 -215.001c0 -68 -14.832 -137 -44.499 -207s-71.834 -128 -126.501 -174l-111 74c31.333 47.333 54.833 95.5 70.5 144.5s23.5 102.167 23.5 159.5v119h188v-116z" />
    <glyph glyph-name="rcommaaccent" unicode="&#x157;" horiz-adv-x="847" 
d="M89 955v127.001h339l19 -157c30.667 55.333 68.5 98.666 113.5 129.999s96.5 47 154.5 47c15.333 0 31.166 -1.16699 47.499 -3.5s28.833 -4.83301 37.5 -7.5l-26 -183l-112 6c-52 0 -95.667 -12.167 -131 -36.5s-62.666 -58.5 -81.999 -102.5v-621l163 -28v-126h-523
v126l163 28v773zM406 -214.999c0 -68 -14.832 -137 -44.499 -207s-71.834 -128 -126.501 -174l-111 74c31.333 47.333 54.833 95.5 70.5 144.5s23.5 102.167 23.5 159.5v119h188v-116z" />
    <glyph glyph-name="Rcaron" unicode="&#x158;" horiz-adv-x="1386" 
d="M710 1455c158.667 0 280.332 -35.167 364.999 -105.5s127 -170.166 127 -299.499c0 -70.667 -19.667 -133.334 -59 -188.001s-95.666 -97.667 -168.999 -129c79.333 -26 136.5 -68.333 171.5 -127s52.5 -131 52.5 -217v-117c0 -44.667 5.66699 -77.667 17 -99
s30 -34 56 -38l48 -6v-129h-106c-76.667 0 -131.167 26.667 -163.5 80s-48.5 118 -48.5 194v113c0 79.333 -23 143 -69 191s-107.667 72 -185 72h-316v-496l163 -28v-126h-523v126l163 28v1147l-163 28v126h163h476zM430.998 805l259 -0.000976562c110 0 190 21 240 63
s75 103.333 75 184c0 76.667 -24 137.334 -72 182.001s-122.333 67 -223 67h-279v-496zM640.998 1697l147 148h170v-18l-257 -245h-119l-253 243v20h166z" />
    <glyph glyph-name="rcaron" unicode="&#x159;" horiz-adv-x="847" 
d="M89 955v127.001h339l19 -157c30.667 55.333 68.5 98.666 113.5 129.999s96.5 47 154.5 47c15.333 0 31.166 -1.16699 47.499 -3.5s28.833 -4.83301 37.5 -7.5l-26 -183l-112 6c-52 0 -95.667 -12.167 -131 -36.5s-62.666 -58.5 -81.999 -102.5v-621l163 -28v-126h-523
v126l163 28v773zM460 1375l147 148h170v-18l-257 -245h-119l-253 243v20h166z" />
    <glyph glyph-name="Sacute" unicode="&#x15a;" horiz-adv-x="1247" 
d="M1125 1026l-149.001 -0.00292969l-37 208c-30 25.333 -70 46.333 -120 63s-108 25 -174 25c-104.667 0 -185 -22.167 -241 -66.5s-84 -102.166 -84 -173.499c0 -63.333 28.5 -116.166 85.5 -158.499s149.167 -79.5 276.5 -111.5c153.333 -38 269.833 -94 349.5 -168
s119.5 -165.667 119.5 -275c0 -117.333 -47.833 -211.666 -143.5 -282.999s-220.834 -107 -375.501 -107c-112 0 -211.5 18.333 -298.5 55s-157.833 84.667 -212.5 144v271h148l38 -209c38 -31.333 83.333 -57 136 -77s115.667 -30 189 -30c99.333 0 177.833 21 235.5 63
s86.5 99 86.5 171c0 66.667 -25 122.5 -75 167.5s-138.333 82.833 -265 113.5c-154 36.667 -274.333 90.667 -361 162s-130 161 -130 269c0 114 48.333 208.833 145 284.5s222.334 113.5 377.001 113.5c102 0 194.833 -17.5 278.5 -52.5s150.834 -77.5 201.501 -127.5v-271z
M682.999 1822h230l2 -6l-269 -260h-147z" />
    <glyph glyph-name="sacute" unicode="&#x15b;" horiz-adv-x="1044" 
d="M917 742l-148.001 -0.000976562l-32 130c-24 22.667 -54.167 40.834 -90.5 54.501s-77.5 20.5 -123.5 20.5c-70 0 -122 -15.333 -156 -46s-51 -67.667 -51 -111c0 -42.667 15 -76.334 45 -101.001s91 -46.667 183 -66c136.667 -29.333 238.334 -69.166 305.001 -119.499
s100 -117.833 100 -202.5c0 -96 -38.833 -173.667 -116.5 -233s-179.167 -89 -304.5 -89c-82 0 -155.667 9.5 -221 28.5s-123.666 46.5 -174.999 82.5l-1 247h148l37 -145c22.667 -20.667 53.5 -35.667 92.5 -45s78.833 -14 119.5 -14c70 0 124.833 14.167 164.5 42.5
s59.5 65.5 59.5 111.5c0 43.333 -16.5 79 -49.5 107s-95.5 52.333 -187.5 73c-131.333 28.667 -230.333 67.667 -297 117s-100 116 -100 200c0 88 37.5 163 112.5 225s172.5 93 292.5 93c82 0 155.667 -10.667 221 -32s119.666 -51 162.999 -89zM592.999 1501h230l2 -6
l-269 -260h-147z" />
    <glyph glyph-name="Scircumflex" unicode="&#x15c;" horiz-adv-x="1247" 
d="M1125 1026l-149.001 -0.00292969l-37 208c-30 25.333 -70 46.333 -120 63s-108 25 -174 25c-104.667 0 -185 -22.167 -241 -66.5s-84 -102.166 -84 -173.499c0 -63.333 28.5 -116.166 85.5 -158.499s149.167 -79.5 276.5 -111.5c153.333 -38 269.833 -94 349.5 -168
s119.5 -165.667 119.5 -275c0 -117.333 -47.833 -211.666 -143.5 -282.999s-220.834 -107 -375.501 -107c-112 0 -211.5 18.333 -298.5 55s-157.833 84.667 -212.5 144v271h148l38 -209c38 -31.333 83.333 -57 136 -77s115.667 -30 189 -30c99.333 0 177.833 21 235.5 63
s86.5 99 86.5 171c0 66.667 -25 122.5 -75 167.5s-138.333 82.833 -265 113.5c-154 36.667 -274.333 90.667 -361 162s-130 161 -130 269c0 114 48.333 208.833 145 284.5s222.334 113.5 377.001 113.5c102 0 194.833 -17.5 278.5 -52.5s150.834 -77.5 201.501 -127.5v-271z
M932.999 1612v-25h-161l-147 148l-145 -148h-160v26l246 237h119z" />
    <glyph glyph-name="scircumflex" unicode="&#x15d;" horiz-adv-x="1044" 
d="M917 742l-148.001 -0.000976562l-32 130c-24 22.667 -54.167 40.834 -90.5 54.501s-77.5 20.5 -123.5 20.5c-70 0 -122 -15.333 -156 -46s-51 -67.667 -51 -111c0 -42.667 15 -76.334 45 -101.001s91 -46.667 183 -66c136.667 -29.333 238.334 -69.166 305.001 -119.499
s100 -117.833 100 -202.5c0 -96 -38.833 -173.667 -116.5 -233s-179.167 -89 -304.5 -89c-82 0 -155.667 9.5 -221 28.5s-123.666 46.5 -174.999 82.5l-1 247h148l37 -145c22.667 -20.667 53.5 -35.667 92.5 -45s78.833 -14 119.5 -14c70 0 124.833 14.167 164.5 42.5
s59.5 65.5 59.5 111.5c0 43.333 -16.5 79 -49.5 107s-95.5 52.333 -187.5 73c-131.333 28.667 -230.333 67.667 -297 117s-100 116 -100 200c0 88 37.5 163 112.5 225s172.5 93 292.5 93c82 0 155.667 -10.667 221 -32s119.666 -51 162.999 -89zM842.999 1291v-25h-161
l-147 148l-145 -148h-160v26l246 237h119z" />
    <glyph glyph-name="Scedilla" unicode="&#x15e;" horiz-adv-x="1247" 
d="M1125 1026l-149.001 -0.00292969l-37 208c-30 25.333 -70 46.333 -120 63s-108 25 -174 25c-104.667 0 -185 -22.167 -241 -66.5s-84 -102.166 -84 -173.499c0 -63.333 28.5 -116.166 85.5 -158.499s149.167 -79.5 276.5 -111.5c153.333 -38 269.833 -94 349.5 -168
s119.5 -165.667 119.5 -275c0 -117.333 -47.833 -211.666 -143.5 -282.999s-220.834 -107 -375.501 -107c-112 0 -211.5 18.333 -298.5 55s-157.833 84.667 -212.5 144v271h148l38 -209c38 -31.333 83.333 -57 136 -77s115.667 -30 189 -30c99.333 0 177.833 21 235.5 63
s86.5 99 86.5 171c0 66.667 -25 122.5 -75 167.5s-138.333 82.833 -265 113.5c-154 36.667 -274.333 90.667 -361 162s-130 161 -130 269c0 114 48.333 208.833 145 284.5s222.334 113.5 377.001 113.5c102 0 194.833 -17.5 278.5 -52.5s150.834 -77.5 201.501 -127.5v-271z
M667.999 -9.00293l-12 -52.0029c43.333 -7.33301 79.333 -24.666 108 -51.999s43 -67.666 43 -120.999c0 -64 -26.333 -115 -79 -153s-128 -57 -226 -57l-7 109c48 0 86.5 8.16699 115.5 24.5s43.5 40.833 43.5 73.5c0 32 -12 54.333 -36 67s-65 21.334 -123 26.001l32 135
h141z" />
    <glyph glyph-name="scedilla" unicode="&#x15f;" horiz-adv-x="1044" 
d="M917 742l-148.001 -0.000976562l-32 130c-24 22.667 -54.167 40.834 -90.5 54.501s-77.5 20.5 -123.5 20.5c-70 0 -122 -15.333 -156 -46s-51 -67.667 -51 -111c0 -42.667 15 -76.334 45 -101.001s91 -46.667 183 -66c136.667 -29.333 238.334 -69.166 305.001 -119.499
s100 -117.833 100 -202.5c0 -96 -38.833 -173.667 -116.5 -233s-179.167 -89 -304.5 -89c-82 0 -155.667 9.5 -221 28.5s-123.666 46.5 -174.999 82.5l-1 247h148l37 -145c22.667 -20.667 53.5 -35.667 92.5 -45s78.833 -14 119.5 -14c70 0 124.833 14.167 164.5 42.5
s59.5 65.5 59.5 111.5c0 43.333 -16.5 79 -49.5 107s-95.5 52.333 -187.5 73c-131.333 28.667 -230.333 67.667 -297 117s-100 116 -100 200c0 88 37.5 163 112.5 225s172.5 93 292.5 93c82 0 155.667 -10.667 221 -32s119.666 -51 162.999 -89zM594.999 -8.00098
l-12 -52.0029c43.333 -7.33301 79.333 -24.666 108 -51.999s43 -67.666 43 -120.999c0 -64 -26.333 -115 -79 -153s-128 -57 -226 -57l-7 109c48 0 86.5 8.16699 115.5 24.5s43.5 40.833 43.5 73.5c0 32 -12 54.333 -36 67s-65 21.334 -123 26.001l32 135h141z" />
    <glyph glyph-name="Scaron" unicode="&#x160;" horiz-adv-x="1247" 
d="M1125 1026l-149.001 -0.00292969l-37 208c-30 25.333 -70 46.333 -120 63s-108 25 -174 25c-104.667 0 -185 -22.167 -241 -66.5s-84 -102.166 -84 -173.499c0 -63.333 28.5 -116.166 85.5 -158.499s149.167 -79.5 276.5 -111.5c153.333 -38 269.833 -94 349.5 -168
s119.5 -165.667 119.5 -275c0 -117.333 -47.833 -211.666 -143.5 -282.999s-220.834 -107 -375.501 -107c-112 0 -211.5 18.333 -298.5 55s-157.833 84.667 -212.5 144v271h148l38 -209c38 -31.333 83.333 -57 136 -77s115.667 -30 189 -30c99.333 0 177.833 21 235.5 63
s86.5 99 86.5 171c0 66.667 -25 122.5 -75 167.5s-138.333 82.833 -265 113.5c-154 36.667 -274.333 90.667 -361 162s-130 161 -130 269c0 114 48.333 208.833 145 284.5s222.334 113.5 377.001 113.5c102 0 194.833 -17.5 278.5 -52.5s150.834 -77.5 201.501 -127.5v-271z
M622.999 1696l147 148h170v-18l-257 -245h-119l-253 243v20h166z" />
    <glyph glyph-name="scaron" unicode="&#x161;" horiz-adv-x="1044" 
d="M917 742l-148.001 -0.000976562l-32 130c-24 22.667 -54.167 40.834 -90.5 54.501s-77.5 20.5 -123.5 20.5c-70 0 -122 -15.333 -156 -46s-51 -67.667 -51 -111c0 -42.667 15 -76.334 45 -101.001s91 -46.667 183 -66c136.667 -29.333 238.334 -69.166 305.001 -119.499
s100 -117.833 100 -202.5c0 -96 -38.833 -173.667 -116.5 -233s-179.167 -89 -304.5 -89c-82 0 -155.667 9.5 -221 28.5s-123.666 46.5 -174.999 82.5l-1 247h148l37 -145c22.667 -20.667 53.5 -35.667 92.5 -45s78.833 -14 119.5 -14c70 0 124.833 14.167 164.5 42.5
s59.5 65.5 59.5 111.5c0 43.333 -16.5 79 -49.5 107s-95.5 52.333 -187.5 73c-131.333 28.667 -230.333 67.667 -297 117s-100 116 -100 200c0 88 37.5 163 112.5 225s172.5 93 292.5 93c82 0 155.667 -10.667 221 -32s119.666 -51 162.999 -89zM532.999 1375l147 148h170
v-18l-257 -245h-119l-253 243v20h166z" />
    <glyph glyph-name="uni0162" unicode="&#x162;" horiz-adv-x="1284" 
d="M1247 1456v-322h-168l-15 167h-323v-1147l163 -28v-126h-523v126l163 28v1147h-324l-14 -167h-169v322h1210zM700 0l-12 -52.0029c43.333 -7.33301 79.333 -24.666 108 -51.999s43 -67.666 43 -120.999c0 -64 -26.333 -115 -79 -153s-128 -57 -226 -57l-7 109
c48 0 86.5 8.16699 115.5 24.5s43.5 40.833 43.5 73.5c0 32 -12 54.333 -36 67s-65 21.334 -123 26.001l32 135h141z" />
    <glyph glyph-name="uni0163" unicode="&#x163;" horiz-adv-x="750" 
d="M433 1343l-0.000976562 -260.998h205v-146h-205v-657c0 -50.667 10.5 -86.334 31.5 -107.001s48.833 -31 83.5 -31c17.333 0 36.833 1.5 58.5 4.5s39.834 6.16699 54.501 9.5l27 -135c-18.667 -12 -46 -21.833 -82 -29.5s-72 -11.5 -108 -11.5
c-80 0 -143.667 24.167 -191 72.5s-71 124.166 -71 227.499v657h-171v146h171v261h197zM520.999 0.00195312l-12 -52.0029c43.333 -7.33301 79.333 -24.666 108 -51.999s43 -67.666 43 -120.999c0 -64 -26.333 -115 -79 -153s-128 -57 -226 -57l-7 109
c48 0 86.5 8.16699 115.5 24.5s43.5 40.833 43.5 73.5c0 32 -12 54.333 -36 67s-65 21.334 -123 26.001l32 135h141z" />
    <glyph glyph-name="Tcaron" unicode="&#x164;" horiz-adv-x="1284" 
d="M1247 1456v-322h-168l-15 167h-323v-1147l163 -28v-126h-523v126l163 28v1147h-324l-14 -167h-169v322h1210zM639 1694l147 148h170v-18l-257 -245h-119l-253 243v20h166z" />
    <glyph glyph-name="tcaron" unicode="&#x165;" horiz-adv-x="790" 
d="M433 1343l-0.000976562 -260.998h205v-146h-205v-657c0 -50.667 10.5 -86.334 31.5 -107.001s48.833 -31 83.5 -31c17.333 0 36.833 1.5 58.5 4.5s39.834 6.16699 54.501 9.5l27 -135c-18.667 -12 -46 -21.833 -82 -29.5s-72 -11.5 -108 -11.5
c-80 0 -143.667 24.167 -191 72.5s-71 124.166 -71 227.499v657h-171v146h171v261h197zM833.999 1492c0 -68 -14.832 -137 -44.499 -207s-71.834 -128 -126.501 -174l-111 74c31.333 47.333 54.833 95.5 70.5 144.5s23.5 102.167 23.5 159.5v119h188v-116z" />
    <glyph glyph-name="Tbar" unicode="&#x166;" horiz-adv-x="1284" 
d="M1247 1456v-322h-168l-15 167h-323v-402h230v-155h-230v-590l163 -28v-126h-523v126l163 28v590h-214v155h214v402h-324l-14 -167h-169v322h1210z" />
    <glyph glyph-name="tbar" unicode="&#x167;" horiz-adv-x="750" 
d="M433 1343l-0.000976562 -260.998h205v-146h-205v-181h206v-155h-206v-321c0 -50.667 10.5 -86.334 31.5 -107.001s48.833 -31 83.5 -31c17.333 0 36.833 1.5 58.5 4.5s39.834 6.16699 54.501 9.5l27 -135c-18.667 -12 -46 -21.833 -82 -29.5s-72 -11.5 -108 -11.5
c-80 0 -143.667 24.167 -191 72.5s-71 124.166 -71 227.499v321h-238v155h238v181h-171v146h171v261h197z" />
    <glyph glyph-name="Utilde" unicode="&#x168;" horiz-adv-x="1541" 
d="M583 1456l-0.000976562 -127.001l-163 -28v-832c0 -110 31.333 -193.5 94 -250.5s145.334 -85.5 248.001 -85.5c108 0 195 28.333 261 85s99 140.334 99 251.001v832l-163 28v127h360h163v-127l-163 -28v-832c0 -158 -51.5 -279.167 -154.5 -363.5
s-237.167 -126.5 -402.5 -126.5c-160.667 0 -290.667 42.167 -390 126.5s-149 205.5 -149 363.5v832l-163 28v127h163h360zM1090 1843c0 -62.667 -19.834 -115.666 -59.501 -158.999s-89.5 -65 -149.5 -65c-47.333 0 -96.666 15.5 -147.999 46.5s-94 46.5 -128 46.5
c-28 0 -51.833 -10.833 -71.5 -32.5s-29.5 -47.834 -29.5 -78.501l-107 26c0 62 19.5 115.833 58.5 161.5s88.833 68.5 149.5 68.5c37.333 0 84 -15.667 140 -47s101.333 -47 136 -47c27.333 0 51 10.833 71 32.5s30 48.167 30 79.5z" />
    <glyph glyph-name="utilde" unicode="&#x169;" horiz-adv-x="1244" 
d="M863 160c-34 -58 -77.833 -102.667 -131.5 -134s-115.5 -47 -185.5 -47c-117.333 0 -209 37.667 -275 113s-99 192.666 -99 351.999v483l-124 28v127h124h197v-640c0 -115.333 17 -194.666 51 -237.999s87 -65 159 -65c70 0 127.833 14.167 173.5 42.5
s80.167 68.5 103.5 120.5v625l-145 28v127h145h197v-928l124 -28v-126h-301zM923 1518c0 -62.667 -19.834 -115.666 -59.501 -158.999s-89.5 -65 -149.5 -65c-47.333 0 -96.666 15.5 -147.999 46.5s-94 46.5 -128 46.5c-28 0 -51.833 -10.833 -71.5 -32.5
s-29.5 -47.834 -29.5 -78.501l-107 26c0 62 19.5 115.833 58.5 161.5s88.833 68.5 149.5 68.5c37.333 0 84 -15.667 140 -47s101.333 -47 136 -47c27.333 0 51 10.833 71 32.5s30 48.167 30 79.5z" />
    <glyph glyph-name="Umacron" unicode="&#x16a;" horiz-adv-x="1541" 
d="M583 1456l-0.000976562 -127.001l-163 -28v-832c0 -110 31.333 -193.5 94 -250.5s145.334 -85.5 248.001 -85.5c108 0 195 28.333 261 85s99 140.334 99 251.001v832l-163 28v127h360h163v-127l-163 -28v-832c0 -158 -51.5 -279.167 -154.5 -363.5
s-237.167 -126.5 -402.5 -126.5c-160.667 0 -290.667 42.167 -390 126.5s-149 205.5 -149 363.5v832l-163 28v127h163h360zM1110 1649h-721v146h721v-146z" />
    <glyph glyph-name="umacron" unicode="&#x16b;" horiz-adv-x="1244" 
d="M863 160c-34 -58 -77.833 -102.667 -131.5 -134s-115.5 -47 -185.5 -47c-117.333 0 -209 37.667 -275 113s-99 192.666 -99 351.999v483l-124 28v127h124h197v-640c0 -115.333 17 -194.666 51 -237.999s87 -65 159 -65c70 0 127.833 14.167 173.5 42.5
s80.167 68.5 103.5 120.5v625l-145 28v127h145h197v-928l124 -28v-126h-301zM943 1324h-721v146h721v-146z" />
    <glyph glyph-name="Ubreve" unicode="&#x16c;" horiz-adv-x="1541" 
d="M583 1456l-0.000976562 -127.001l-163 -28v-832c0 -110 31.333 -193.5 94 -250.5s145.334 -85.5 248.001 -85.5c108 0 195 28.333 261 85s99 140.334 99 251.001v832l-163 28v127h360h163v-127l-163 -28v-832c0 -158 -51.5 -279.167 -154.5 -363.5
s-237.167 -126.5 -402.5 -126.5c-160.667 0 -290.667 42.167 -390 126.5s-149 205.5 -149 363.5v832l-163 28v127h163h360zM1037 1867l2 -6c2.66699 -77.333 -23 -140.333 -77 -189s-126.667 -73 -218 -73c-92 0 -165 24.333 -219 73s-79.333 111.667 -76 189l2 6h150
c0 -43.333 11.5 -78.833 34.5 -106.5s59.167 -41.5 108.5 -41.5c48 0 83.667 13.833 107 41.5s35 63.167 35 106.5h151z" />
    <glyph glyph-name="ubreve" unicode="&#x16d;" horiz-adv-x="1244" 
d="M863 160c-34 -58 -77.833 -102.667 -131.5 -134s-115.5 -47 -185.5 -47c-117.333 0 -209 37.667 -275 113s-99 192.666 -99 351.999v483l-124 28v127h124h197v-640c0 -115.333 17 -194.666 51 -237.999s87 -65 159 -65c70 0 127.833 14.167 173.5 42.5
s80.167 68.5 103.5 120.5v625l-145 28v127h145h197v-928l124 -28v-126h-301zM870 1542l2 -6c2.66699 -77.333 -23 -140.333 -77 -189s-126.667 -73 -218 -73c-92 0 -165 24.333 -219 73s-79.333 111.667 -76 189l2 6h150c0 -43.333 11.5 -78.833 34.5 -106.5
s59.167 -41.5 108.5 -41.5c48 0 83.667 13.833 107 41.5s35 63.167 35 106.5h151z" />
    <glyph glyph-name="Uring" unicode="&#x16e;" horiz-adv-x="1541" 
d="M583 1456l-0.000976562 -127.001l-163 -28v-832c0 -110 31.333 -193.5 94 -250.5s145.334 -85.5 248.001 -85.5c108 0 195 28.333 261 85s99 140.334 99 251.001v832l-163 28v127h360h163v-127l-163 -28v-832c0 -158 -51.5 -279.167 -154.5 -363.5
s-237.167 -126.5 -402.5 -126.5c-160.667 0 -290.667 42.167 -390 126.5s-149 205.5 -149 363.5v832l-163 28v127h163h360zM549.999 1735c0 56 20.167 103.001 60.5 141.001s89.5 57 147.5 57c56.667 0 105 -18.833 145 -56.5s60 -84.834 60 -141.501
c0 -57.333 -20 -104 -60 -140s-88.333 -54 -145 -54c-58 0 -107.167 18 -147.5 54s-60.5 82.667 -60.5 140zM652.999 1735c0 -28.667 10.3311 -53.167 30.998 -73.5s45.334 -30.5 74.001 -30.5c28 0 52 9.83301 72 29.5s30 44.5 30 74.5s-10 55.333 -30 76s-44 31 -72 31
c-29.333 0 -54.166 -10.333 -74.499 -31s-30.5 -46 -30.5 -76z" />
    <glyph glyph-name="uring" unicode="&#x16f;" horiz-adv-x="1244" 
d="M863 160c-34 -58 -77.833 -102.667 -131.5 -134s-115.5 -47 -185.5 -47c-117.333 0 -209 37.667 -275 113s-99 192.666 -99 351.999v483l-124 28v127h124h197v-640c0 -115.333 17 -194.666 51 -237.999s87 -65 159 -65c70 0 127.833 14.167 173.5 42.5
s80.167 68.5 103.5 120.5v625l-145 28v127h145h197v-928l124 -28v-126h-301zM383 1410c0 56 20.167 103.001 60.5 141.001s89.5 57 147.5 57c56.667 0 105 -18.833 145 -56.5s60 -84.834 60 -141.501c0 -57.333 -20 -104 -60 -140s-88.333 -54 -145 -54
c-58 0 -107.167 18 -147.5 54s-60.5 82.667 -60.5 140zM486 1410c0 -28.667 10.3311 -53.167 30.998 -73.5s45.334 -30.5 74.001 -30.5c28 0 52 9.83301 72 29.5s30 44.5 30 74.5s-10 55.333 -30 76s-44 31 -72 31c-29.333 0 -54.166 -10.333 -74.499 -31
s-30.5 -46 -30.5 -76z" />
    <glyph glyph-name="Uhungarumlaut" unicode="&#x170;" horiz-adv-x="1541" 
d="M583 1456l-0.000976562 -127.001l-163 -28v-832c0 -110 31.333 -193.5 94 -250.5s145.334 -85.5 248.001 -85.5c108 0 195 28.333 261 85s99 140.334 99 251.001v832l-163 28v127h360h163v-127l-163 -28v-832c0 -158 -51.5 -279.167 -154.5 -363.5
s-237.167 -126.5 -402.5 -126.5c-160.667 0 -290.667 42.167 -390 126.5s-149 205.5 -149 363.5v832l-163 28v127h163h360zM1030 1866h228l3 -6l-299 -260h-171l-2 5zM703.999 1866h211l2 -5l-240 -261h-157z" />
    <glyph glyph-name="uhungarumlaut" unicode="&#x171;" horiz-adv-x="1244" 
d="M863 160c-34 -58 -77.833 -102.667 -131.5 -134s-115.5 -47 -185.5 -47c-117.333 0 -209 37.667 -275 113s-99 192.666 -99 351.999v483l-124 28v127h124h197v-640c0 -115.333 17 -194.666 51 -237.999s87 -65 159 -65c70 0 127.833 14.167 173.5 42.5
s80.167 68.5 103.5 120.5v625l-145 28v127h145h197v-928l124 -28v-126h-301zM863 1541h228l3 -6l-299 -260h-171l-2 5zM537 1541h211l2 -5l-240 -261h-157z" />
    <glyph glyph-name="Uogonek" unicode="&#x172;" horiz-adv-x="1541" 
d="M583 1456l-0.000976562 -127.001l-163 -28v-832c0 -110 31.333 -193.5 94 -250.5s145.334 -85.5 248.001 -85.5c108 0 195 28.333 261 85s99 140.334 99 251.001v832l-163 28v127h360h163v-127l-163 -28v-832c0 -158 -51.5 -279.167 -154.5 -363.5
s-237.167 -126.5 -402.5 -126.5c-160.667 0 -290.667 42.167 -390 126.5s-149 205.5 -149 363.5v832l-163 28v127h163h360zM818.999 -8.00098c-46.667 -34.667 -83.166 -67.833 -109.499 -99.5s-39.5 -65.5 -39.5 -101.5c0 -28 7.5 -50 22.5 -66s39.5 -24 73.5 -24
c18 0 34.667 2.5 50 7.5s31.666 11.167 48.999 18.5l33 -123c-24 -12.667 -50.5 -23.167 -79.5 -31.5s-63.5 -12.5 -103.5 -12.5c-62.667 0 -114.167 18.333 -154.5 55s-60.5 88 -60.5 154c0 53.333 20.167 104 60.5 152s102.833 90.667 187.5 128z" />
    <glyph glyph-name="uogonek" unicode="&#x173;" horiz-adv-x="1244" 
d="M863 160c-34 -58 -77.833 -102.667 -131.5 -134s-115.5 -47 -185.5 -47c-117.333 0 -209 37.667 -275 113s-99 192.666 -99 351.999v483l-124 28v127h124h197v-640c0 -115.333 17 -194.666 51 -237.999s87 -65 159 -65c70 0 127.833 14.167 173.5 42.5
s80.167 68.5 103.5 120.5v625l-145 28v127h145h197v-928l124 -28v-126h-301zM1177 0c-46.667 -34.667 -83.166 -67.833 -109.499 -99.5s-39.5 -65.5 -39.5 -101.5c0 -28 7.5 -50 22.5 -66s39.5 -24 73.5 -24c18 0 34.667 2.5 50 7.5s31.666 11.167 48.999 18.5l33 -123
c-24 -12.667 -50.5 -23.167 -79.5 -31.5s-63.5 -12.5 -103.5 -12.5c-62.667 0 -114.167 18.333 -154.5 55s-60.5 88 -60.5 154c0 53.333 20.167 104 60.5 152s102.833 90.667 187.5 128z" />
    <glyph glyph-name="Wcircumflex" unicode="&#x174;" horiz-adv-x="1910" 
d="M489 1329l-148 -23l187 -802l27 -182l6 -1l39 183l268 952h174l269 -952l40 -187h6l29 187l183 802l-149 23v127h463v-127l-117 -15l-317 -1314h-176l-288 1010l-26 131h-6l-25 -131l-292 -1010h-175l-317 1314l-117 15v127h462v-127zM1246 1613v-25h-161l-147 148
l-145 -148h-160v26l246 237h119z" />
    <glyph glyph-name="wcircumflex" unicode="&#x175;" horiz-adv-x="1693" 
d="M473 955l-124 -22l141 -539l23 -131h6l28 131l216 688h158l217 -688l31 -146h6l29 146l133 539l-126 22v127h412v-127l-94 -14l-273 -941h-159l-210 659l-45 182l-6 -1l-42 -181l-206 -659h-159l-273 941l-95 14v127h412v-127zM1139 1287v-25h-161l-147 148l-145 -148
h-160v26l246 237h119z" />
    <glyph glyph-name="Ycircumflex" unicode="&#x176;" horiz-adv-x="1416" 
d="M555 1329l-157 -19l305 -594l305 594l-156 19v127h500v-127l-123 -19l-432 -798v-358l163 -28v-126h-522v126l163 28v373l-424 783l-122 19v127h500v-127zM1007 1612v-25h-161l-147 148l-145 -148h-160v26l246 237h119z" />
    <glyph glyph-name="ycircumflex" unicode="&#x177;" horiz-adv-x="1162" 
d="M1117 955l-97.001 -14.999l-412 -1106c-27.333 -72.667 -66.666 -136 -117.999 -190s-120.333 -81 -207 -81c-15.333 0 -35.333 1.83301 -60 5.5s-43.667 7.16699 -57 10.5l20 155c-4 0.666992 7.83301 0 35.5 -2s45.167 -3 52.5 -3c42 0 76 18.167 102 54.5
s48.667 78.166 68 125.499l47 112l-357 918l-99 16v127h437v-127l-122 -20l187 -534l36 -138h6l225 672l-123 20v127h436v-127zM884.999 1287v-25h-161l-147 148l-145 -148h-160v26l246 237h119z" />
    <glyph glyph-name="Ydieresis" unicode="&#x178;" horiz-adv-x="1416" 
d="M555 1329l-157 -19l305 -594l305 594l-156 19v127h500v-127l-123 -19l-432 -798v-358l163 -28v-126h-522v126l163 28v373l-424 783l-122 19v127h500v-127zM1025 1604h-218v200h218v-200zM555 1604h-218v200h218v-200z" />
    <glyph glyph-name="Zacute" unicode="&#x179;" horiz-adv-x="1220" 
d="M313 154h631l16 167h168v-321h-1036v146l777 1155h-584l-14 -167h-169v322h993v-141zM667 1823h230l2 -6l-269 -260h-147z" />
    <glyph glyph-name="zacute" unicode="&#x17a;" horiz-adv-x="1084" 
d="M346 154h442l16 167h167v-321h-859v138l585 788h-396l-15 -166h-168v322h820v-134zM605 1497h230l2 -6l-269 -260h-147z" />
    <glyph glyph-name="Zdotaccent" unicode="&#x17b;" horiz-adv-x="1220" 
d="M313 154h631l16 167h168v-321h-1036v146l777 1155h-584l-14 -167h-169v322h993v-141zM709 1603h-217v201h217v-201z" />
    <glyph glyph-name="zdotaccent" unicode="&#x17c;" horiz-adv-x="1084" 
d="M346 154h442l16 167h167v-321h-859v138l585 788h-396l-15 -166h-168v322h820v-134zM647 1277h-217v201h217v-201z" />
    <glyph glyph-name="Zcaron" unicode="&#x17d;" horiz-adv-x="1220" 
d="M313 154h631l16 167h168v-321h-1036v146l777 1155h-584l-14 -167h-169v322h993v-141zM607 1697l147 148h170v-18l-257 -245h-119l-253 243v20h166z" />
    <glyph glyph-name="zcaron" unicode="&#x17e;" horiz-adv-x="1084" 
d="M346 154h442l16 167h167v-321h-859v138l585 788h-396l-15 -166h-168v322h820v-134zM545 1371l147 148h170v-18l-257 -245h-119l-253 243v20h166z" />
    <glyph glyph-name="longs" unicode="&#x17f;" horiz-adv-x="734" 
d="M57 126l163.002 28v1065c0 115.333 30.167 204.5 90.5 267.5s144.5 94.5 252.5 94.5c22.667 0 45.5 -1.83301 68.5 -5.5s48.5 -8.83398 76.5 -15.501l-25 -145c-12.667 3.33301 -26.334 6 -41.001 8s-30.334 3 -47.001 3c-58 0 -102.167 -18.167 -132.5 -54.5
s-45.5 -87.166 -45.5 -152.499v-1065l163 -28v-126h-523v126z" />
    <glyph glyph-name="florin" unicode="&#x192;" horiz-adv-x="767" 
d="M630 936l-196 -0.000976562v-1025c0 -111.333 -28.667 -197.166 -86 -257.499s-137 -90.5 -239 -90.5c-21.333 0 -40.666 1.5 -57.999 4.5s-35.333 7.5 -54 13.5l13 150c9.33301 -3.33301 25.166 -6.33301 47.499 -9s39.5 -4 51.5 -4c39.333 0 70.5 17.167 93.5 51.5
s34.5 81.5 34.5 141.5v1025h-170v146h170v137c0 115.333 30 204.5 90 267.5s144 94.5 252 94.5c22.667 0 45.5 -1.83301 68.5 -5.5s48.5 -8.83398 76.5 -15.501l-24 -150c-12 2.66699 -26.5 5 -43.5 7s-34.5 3 -52.5 3c-58 0 -100.833 -17.167 -128.5 -51.5
s-41.5 -84.166 -41.5 -149.499v-137h196v-146z" />
    <glyph glyph-name="Ohorn" unicode="&#x1a0;" horiz-adv-x="1486" 
d="M1363 717c0 -212 -60.8311 -388.001 -182.498 -528.001s-279.167 -210 -472.5 -210c-188 0 -340.667 70 -458 210s-176 316 -176 528v21c0 211.333 58.667 387.333 176 528s270 211 458 211c79.333 0 153.666 -13 222.999 -39s131.666 -62.667 186.999 -110
c54 10 93.333 37.5 118 82.5s37 105.833 37 182.5h178c0 -100 -19.167 -182.5 -57.5 -247.5s-94.833 -110.167 -169.5 -135.5c44.667 -64.667 79 -137.167 103 -217.5s36 -165.166 36 -254.499v-21zM1166 739.999c0 169.333 -40.5 307.5 -121.5 414.5
s-193.167 160.5 -336.5 160.5c-137.333 0 -244.5 -53.667 -321.5 -161s-115.5 -245.333 -115.5 -414v-23c0 -170.667 38.5 -309.5 115.5 -416.5s184.167 -160.5 321.5 -160.5c145.333 0 258 53.333 338 160s120 245.667 120 417v23z" />
    <glyph glyph-name="ohorn" unicode="&#x1a1;" horiz-adv-x="1288" 
d="M104 551c0 160 43.333 291.832 130 395.499s204.334 155.5 353.001 155.5c68 0 130.333 -11.667 187 -35s106 -56.333 148 -99c43.333 10.667 72.333 34.834 87 72.501s22 91.167 22 160.5h158c0 -90.667 -15 -164.5 -45 -221.5s-78.333 -96.167 -145 -117.5
c23.333 -44 41.333 -92.333 54 -145s19 -108 19 -166v-22c0 -161.333 -43.333 -293.333 -130 -396s-204.334 -154 -353.001 -154c-150 0 -268.333 51.5 -355 154.5s-130 234.833 -130 395.5v22zM301 528.999c0 -114.667 24.1689 -209.334 72.502 -284.001
s120.166 -112 215.499 -112c93.333 0 164.333 37.333 213 112s73 169.334 73 284.001v22c0 113.333 -24.333 207.666 -73 282.999s-120.334 113 -215.001 113s-166 -37.667 -214 -113s-72 -169.666 -72 -282.999v-22z" />
    <glyph glyph-name="Uhorn" unicode="&#x1af;" horiz-adv-x="1715" 
d="M1274 1251l6 -1c82.667 0.666992 140.667 26 174 76s50 124.333 50 223h171l2 -5c2 -139.333 -29.5 -246.5 -94.5 -321.5s-167.833 -114.833 -308.5 -119.5v-634c0 -158 -51.5 -279.167 -154.5 -363.5s-237.167 -126.5 -402.5 -126.5
c-160.667 0 -290.834 42.167 -390.501 126.5s-149.5 205.5 -149.5 363.5v832l-163 28v127h163h361v-127l-163 -28v-832c0 -110 31.333 -193.5 94 -250.5s145.334 -85.5 248.001 -85.5c108 0 195 28.5 261 85.5s99 140.5 99 250.5v832l-163 28v127h360v-205z" />
    <glyph glyph-name="uhorn" unicode="&#x1b0;" horiz-adv-x="1439" 
d="M1068 952l6 -1.99805c68.667 -0.666992 112.5 15.166 131.5 47.499s28.5 89.166 28.5 170.499h134l2 -5c2 -109.333 -19.167 -190.5 -63.5 -243.5s-123.833 -81.167 -238.5 -84.5v-681l124 -28v-126h-301l-13 160c-34 -58 -77.833 -102.667 -131.5 -134
s-115.5 -47 -185.5 -47c-117.333 0 -209 37.667 -275 113s-99 192.666 -99 351.999v483l-124 28v127h124h197v-640c0 -115.333 17 -194.666 51 -237.999s87 -65 159 -65c70 0 127.833 14.167 173.5 42.5s80.167 68.5 103.5 120.5v625l-145 28v127h342v-130z" />
    <glyph glyph-name="uni01F0" unicode="&#x1f0;" horiz-adv-x="579" 
d="M433 -89c0 -111.333 -28.667 -197.167 -86 -257.5s-137 -90.5 -239 -90.5c-21.333 0 -40.666 1.5 -57.999 4.5s-35.333 7.5 -54 13.5l13 150c9.33301 -3.33301 25.166 -6.33301 47.499 -9s39.5 -4 51.5 -4c39.333 0 70.5 17.167 93.5 51.5s34.5 81.5 34.5 141.5v1016
l-163 28v127h360v-1171zM327 1370l147 148h170v-18l-257 -245h-119l-253 243v20h166z" />
    <glyph glyph-name="Aringacute" unicode="&#x1fa;" 
d="M55 126l108 15l509 1315h169l500 -1315l107 -15v-126h-418v126l110 19l-96 268h-583l-99 -268l110 -19v-126h-417v126zM522 578h462l-226 625h-6zM861 1952h190l2 -6l-216 -177h-119zM587 1553c0 48 17.001 87.833 51.001 119.5s75 47.5 123 47.5
c47.333 0 87.666 -15.833 120.999 -47.5s50 -71.5 50 -119.5s-16.667 -87.333 -50 -118s-73.666 -46 -120.999 -46c-48.667 0 -89.834 15.333 -123.501 46s-50.5 70 -50.5 118zM674.001 1553c0 -23.333 8.5 -43.167 25.5 -59.5s37.5 -24.5 61.5 -24.5
c22.667 0 42.167 8 58.5 24s24.5 36 24.5 60c0 24.667 -8.16699 45.5 -24.5 62.5s-35.833 25.5 -58.5 25.5c-24 0 -44.5 -8.5 -61.5 -25.5s-25.5 -37.833 -25.5 -62.5z" />
    <glyph glyph-name="aringacute" unicode="&#x1fb;" horiz-adv-x="1128" 
d="M795 0c-6 29.333 -10.666 55.667 -13.999 79s-5.66602 46.666 -6.99902 69.999c-38 -48.667 -85.5 -89.167 -142.5 -121.5s-117.833 -48.5 -182.5 -48.5c-112.667 0 -198.334 27.5 -257.001 82.5s-88 132.5 -88 232.5c0 102.667 41.5 181.834 124.5 237.501
s196.833 83.5 341.5 83.5h203v126c0 63.333 -20 113.5 -60 150.5s-95.667 55.5 -167 55.5c-49.333 0 -92.833 -6.33301 -130.5 -19s-68.167 -30 -91.5 -52l-21 -114h-152v210c49.333 39.333 109 70.833 179 94.5s146 35.5 228 35.5c122.667 0 222 -31.333 298 -94
s114 -152.334 114 -269.001v-521c0 -14 0.166992 -27.667 0.5 -41s1.16602 -26.666 2.49902 -39.999l80 -11v-126h-258zM478.001 144.001c65.333 0 125.001 15.666 179.001 46.999s92.667 69 116 113v178h-210c-80.667 0 -144.5 -18.667 -191.5 -56
s-70.5 -82.666 -70.5 -135.999c0 -47.333 14.667 -83.5 44 -108.5s73.666 -37.5 132.999 -37.5zM659.002 1629h190l2 -6l-216 -177h-119zM385.002 1230c0 48 17.001 87.833 51.001 119.5s75 47.5 123 47.5c47.333 0 87.666 -15.833 120.999 -47.5s50 -71.5 50 -119.5
s-16.667 -87.333 -50 -118s-73.666 -46 -120.999 -46c-48.667 0 -89.834 15.333 -123.501 46s-50.5 70 -50.5 118zM472.003 1230c0 -23.333 8.5 -43.167 25.5 -59.5s37.5 -24.5 61.5 -24.5c22.667 0 42.167 8 58.5 24s24.5 36 24.5 60c0 24.667 -8.16699 45.5 -24.5 62.5
s-35.833 25.5 -58.5 25.5c-24 0 -44.5 -8.5 -61.5 -25.5s-25.5 -37.833 -25.5 -62.5z" />
    <glyph glyph-name="AEacute" unicode="&#x1fc;" horiz-adv-x="2096" 
d="M51 126l141 20l793 1310h967v-322h-168l-15 167h-508l20 -466h590v-155h-584l22 -526h522l16 167h167v-321h-1058v126l156 27l-8 197h-556l-121 -210l82 -14v-126h-458v126zM651 529h446l-31 710l-5 2zM1201 1821h230l2 -6l-269 -260h-147z" />
    <glyph glyph-name="aeacute" unicode="&#x1fd;" horiz-adv-x="1795" 
d="M1300 -21c-90 0 -169.666 16.1689 -238.999 48.502s-126 78.166 -170 137.499c-37.333 -52.667 -93.333 -96.834 -168 -132.501s-165 -53.5 -271 -53.5c-113.333 0 -200.833 29 -262.5 87s-92.5 137.333 -92.5 238c0 105.333 38.167 186.833 114.5 244.5
s187.833 86.5 334.5 86.5h229v85c0 70.667 -17.167 126.167 -51.5 166.5s-84.166 60.5 -149.499 60.5c-68.667 0 -123.334 -18.333 -164.001 -55s-61 -81 -61 -133l-188 18l-2 6c-3.33301 92 33.334 168.167 110.001 228.5s178.334 90.5 305.001 90.5
c76.667 0 144 -13.5 202 -40.5s103.667 -66.167 137 -117.5c42.667 50 93.167 88.833 151.5 116.5s121.5 41.5 189.5 41.5c142.667 0 252.5 -43.333 329.5 -130s115.5 -206 115.5 -358v-119h-710l-2 -5c0.666992 -106 27.167 -192 79.5 -258s130.166 -99 233.499 -99
c69.333 0 126 9.16699 170 27.5s92 44.5 144 78.5l68 -138c-36.667 -30 -86.334 -57.833 -149.001 -83.5s-140.334 -38.5 -233.001 -38.5zM491.001 133.002c50.667 0 103.5 14.333 158.5 43s96.833 62 125.5 100v217h-227c-80 0 -142.333 -18.667 -187 -56s-67 -83 -67 -137
c0 -49.333 16.667 -89.5 50 -120.5s82.333 -46.5 147 -46.5zM1254 947.002c-76 0 -137 -28.166 -183 -84.499s-72.667 -128.833 -80 -217.5l2 -5h509v31c0 81.333 -20 147.666 -60 198.999s-102.667 77 -188 77zM928.001 1498h230l2 -6l-269 -260h-147z" />
    <glyph glyph-name="Oslashacute" unicode="&#x1fe;" horiz-adv-x="1404" 
d="M1368 717c0 -212 -60.833 -387.999 -182.5 -527.999s-279.167 -210 -472.5 -210c-60 0 -116.833 7.66699 -170.5 23s-103.5 37.666 -149.5 66.999l-97 -163h-149l144 244c-68 67.333 -120.333 149.833 -157 247.5s-55 204.167 -55 319.5v21
c0 211.333 58.667 387.333 176 528s270 211 458 211c58 0 113.5 -7.16699 166.5 -21.5s103.167 -34.833 150.5 -61.5l73 123h149l-118 -199c74 -68 131.5 -152.167 172.5 -252.5s61.5 -209.5 61.5 -327.5v-21zM1171 740.001c0 86 -11 164.832 -33 236.499
s-53.333 131.834 -94 180.501l-6 1l-560 -945c32 -24 67.667 -42.167 107 -54.5s82 -18.5 128 -18.5c145.333 0 258 53.333 338 160s120 245.667 120 417v23zM276 717c0 -82 9.16797 -157.5 27.501 -226.5s45.166 -127.167 80.499 -174.5h6l555 935
c-33.333 20.667 -69.333 36.5 -108 47.5s-80 16.5 -124 16.5c-137.333 0 -244.5 -53.667 -321.5 -161s-115.5 -245.333 -115.5 -414v-23zM744.001 1824h230l2 -6l-269 -260h-147z" />
    <glyph glyph-name="oslashacute" unicode="&#x1ff;" horiz-adv-x="1149" 
d="M90 551c0 160 43.332 291.832 129.999 395.499s204.334 155.5 353.001 155.5c36.667 0 71.834 -3.66699 105.501 -11s66.167 -17.333 97.5 -30l73 148h129l-104 -210c58.667 -49.333 104 -112.666 136 -189.999s48 -163.333 48 -258v-22
c0 -161.333 -43.333 -293.333 -130 -396s-204.334 -154 -353.001 -154c-34.667 0 -67.667 3 -99 9s-61 14.333 -89 25l-73 -148h-129l101 206c-63.333 48 -111.833 111.667 -145.5 191s-50.5 168.333 -50.5 267v22zM286.999 528.999c0 -59.333 6.5 -114.002 19.5 -164.002
s32.5 -91 58.5 -123h6l332 672c-18.667 10.667 -39 18.834 -61 24.501s-45 8.5 -69 8.5c-94.667 0 -166 -37.667 -214 -113s-72 -169.666 -72 -282.999v-22zM860.999 550.997c0 54 -5.83301 104.666 -17.5 151.999s-28.5 87 -50.5 119h-6l-328 -664
c16.667 -8.66699 34.667 -15 54 -19s40 -6 62 -6c93.333 0 164.333 37.333 213 112s73 169.334 73 284.001v22zM615.999 1498h230l2 -6l-269 -260h-147z" />
    <glyph glyph-name="uni0218" unicode="&#x218;" horiz-adv-x="1247" 
d="M1125 1026l-149.001 -0.00292969l-37 208c-30 25.333 -70 46.333 -120 63s-108 25 -174 25c-104.667 0 -185 -22.167 -241 -66.5s-84 -102.166 -84 -173.499c0 -63.333 28.5 -116.166 85.5 -158.499s149.167 -79.5 276.5 -111.5c153.333 -38 269.833 -94 349.5 -168
s119.5 -165.667 119.5 -275c0 -117.333 -47.833 -211.666 -143.5 -282.999s-220.834 -107 -375.501 -107c-112 0 -211.5 18.333 -298.5 55s-157.833 84.667 -212.5 144v271h148l38 -209c38 -31.333 83.333 -57 136 -77s115.667 -30 189 -30c99.333 0 177.833 21 235.5 63
s86.5 99 86.5 171c0 66.667 -25 122.5 -75 167.5s-138.333 82.833 -265 113.5c-154 36.667 -274.333 90.667 -361 162s-130 161 -130 269c0 114 48.333 208.833 145 284.5s222.334 113.5 377.001 113.5c102 0 194.833 -17.5 278.5 -52.5s150.834 -77.5 201.501 -127.5v-271z
M707.999 -235.003c0 -68 -14.832 -137 -44.499 -207s-71.834 -128 -126.501 -174l-111 74c31.333 47.333 54.833 95.5 70.5 144.5s23.5 102.167 23.5 159.5v119h188v-116z" />
    <glyph glyph-name="uni0219" unicode="&#x219;" horiz-adv-x="1044" 
d="M917 742l-148.001 -0.000976562l-32 130c-24 22.667 -54.167 40.834 -90.5 54.501s-77.5 20.5 -123.5 20.5c-70 0 -122 -15.333 -156 -46s-51 -67.667 -51 -111c0 -42.667 15 -76.334 45 -101.001s91 -46.667 183 -66c136.667 -29.333 238.334 -69.166 305.001 -119.499
s100 -117.833 100 -202.5c0 -96 -38.833 -173.667 -116.5 -233s-179.167 -89 -304.5 -89c-82 0 -155.667 9.5 -221 28.5s-123.666 46.5 -174.999 82.5l-1 247h148l37 -145c22.667 -20.667 53.5 -35.667 92.5 -45s78.833 -14 119.5 -14c70 0 124.833 14.167 164.5 42.5
s59.5 65.5 59.5 111.5c0 43.333 -16.5 79 -49.5 107s-95.5 52.333 -187.5 73c-131.333 28.667 -230.333 67.667 -297 117s-100 116 -100 200c0 88 37.5 163 112.5 225s172.5 93 292.5 93c82 0 155.667 -10.667 221 -32s119.666 -51 162.999 -89zM634.999 -234.001
c0 -68 -14.832 -137 -44.499 -207s-71.834 -128 -126.501 -174l-111 74c31.333 47.333 54.833 95.5 70.5 144.5s23.5 102.167 23.5 159.5v119h188v-116z" />
    <glyph glyph-name="uni021A" unicode="&#x21a;" horiz-adv-x="1284" 
d="M1247 1456v-322h-168l-15 167h-323v-1147l163 -28v-126h-523v126l163 28v1147h-324l-14 -167h-169v322h1210zM740 -225c0 -68 -14.832 -137 -44.499 -207s-71.834 -128 -126.501 -174l-111 74c31.333 47.333 54.833 95.5 70.5 144.5s23.5 102.167 23.5 159.5v119h188
v-116z" />
    <glyph glyph-name="uni021B" unicode="&#x21b;" horiz-adv-x="750" 
d="M433 1343l-0.000976562 -260.998h205v-146h-205v-657c0 -50.667 10.5 -86.334 31.5 -107.001s48.833 -31 83.5 -31c17.333 0 36.833 1.5 58.5 4.5s39.834 6.16699 54.501 9.5l27 -135c-18.667 -12 -46 -21.833 -82 -29.5s-72 -11.5 -108 -11.5
c-80 0 -143.667 24.167 -191 72.5s-71 124.166 -71 227.499v657h-171v146h171v261h197zM560.999 -224.998c0 -68 -14.832 -137 -44.499 -207s-71.834 -128 -126.501 -174l-111 74c31.333 47.333 54.833 95.5 70.5 144.5s23.5 102.167 23.5 159.5v119h188v-116z" />
    <glyph glyph-name="uni0237" unicode="&#x237;" horiz-adv-x="579" 
d="M433 -89c0 -111.333 -28.667 -197.167 -86 -257.5s-137 -90.5 -239 -90.5c-21.333 0 -40.666 1.5 -57.999 4.5s-35.333 7.5 -54 13.5l13 150c9.33301 -3.33301 25.166 -6.33301 47.499 -9s39.5 -4 51.5 -4c39.333 0 70.5 17.167 93.5 51.5s34.5 81.5 34.5 141.5v1016
l-163 28v127h360v-1171z" />
    <glyph glyph-name="schwa" unicode="&#x259;" horiz-adv-x="1115" 
d="M516 1103c150 0 269.668 -50.3301 359.001 -150.997s134 -230.667 134 -390v-44c0 -154.667 -45.833 -283 -137.5 -385s-199.834 -152.667 -324.501 -152c-146.667 0 -257.334 43.667 -332.001 131s-112 204.666 -112 351.999v123h701l3 5
c-2 103.333 -28.167 188.666 -78.5 255.999s-121.166 101 -212.499 101c-67.333 0 -126 -9.83301 -176 -29.5s-93.333 -45.834 -130 -78.501l-77 129c38.667 37.333 89.667 68.833 153 94.5s140 38.5 230 38.5zM547.001 135.003c64.667 0 120.332 27.5 166.999 82.5
s75.334 124.833 86.001 209.5l-2 5h-498v-25c0 -78 20.667 -142.833 62 -194.5s103 -77.5 185 -77.5z" />
    <glyph glyph-name="uni02BC" unicode="&#x2bc;" horiz-adv-x="418" 
d="M337 1376c0 -66.667 -16.168 -135.667 -48.501 -207s-76.166 -130 -131.499 -176l-112 74c31.333 47.333 55 95.833 71 145.5s24 103.167 24 160.5v187h197v-184z" />
    <glyph glyph-name="circumflex" unicode="&#x2c6;" horiz-adv-x="828" 
d="M717 1277v-25h-161l-147 148l-145 -148h-160v26l246 237h119z" />
    <glyph glyph-name="caron" unicode="&#x2c7;" horiz-adv-x="809" 
d="M402 1367l147 148h170v-18l-257 -245h-119l-253 243v20h166z" />
    <glyph glyph-name="breve" unicode="&#x2d8;" horiz-adv-x="836" 
d="M713 1456l2 -6c2.66699 -77.333 -23 -140.333 -77 -189s-126.667 -73 -218 -73c-92 0 -165 24.333 -219 73s-79.333 111.667 -76 189l2 6h150c0 -43.333 11.5 -78.833 34.5 -106.5s59.167 -41.5 108.5 -41.5c48 0 83.667 13.833 107 41.5s35 63.167 35 106.5h151z" />
    <glyph glyph-name="dotaccent" unicode="&#x2d9;" horiz-adv-x="528" 
d="M369 1255h-217v201h217v-201z" />
    <glyph glyph-name="ring" unicode="&#x2da;" horiz-adv-x="687" 
d="M138 1308c0 56 20.167 103.001 60.5 141.001s89.5 57 147.5 57c56.667 0 105 -18.833 145 -56.5s60 -84.834 60 -141.501c0 -57.333 -20 -104 -60 -140s-88.333 -54 -145 -54c-58 0 -107.167 18 -147.5 54s-60.5 82.667 -60.5 140zM241 1308
c0 -28.667 10.3311 -53.167 30.998 -73.5s45.334 -30.5 74.001 -30.5c28 0 52 9.83301 72 29.5s30 44.5 30 74.5s-10 55.333 -30 76s-44 31 -72 31c-29.333 0 -54.166 -10.333 -74.499 -31s-30.5 -46 -30.5 -76z" />
    <glyph glyph-name="ogonek" unicode="&#x2db;" horiz-adv-x="473" 
d="M373 0c-46.667 -34.667 -83.166 -67.833 -109.499 -99.5s-39.5 -65.5 -39.5 -101.5c0 -28 7.5 -50 22.5 -66s39.5 -24 73.5 -24c18 0 34.667 2.5 50 7.5s31.666 11.167 48.999 18.5l33 -123c-24 -12.667 -50.5 -23.167 -79.5 -31.5s-63.5 -12.5 -103.5 -12.5
c-62.667 0 -114.167 18.333 -154.5 55s-60.5 88 -60.5 154c0 53.333 20.167 104 60.5 152s102.833 90.667 187.5 128z" />
    <glyph glyph-name="tilde" unicode="&#x2dc;" horiz-adv-x="948" 
d="M820 1491c0 -62.667 -19.834 -115.666 -59.501 -158.999s-89.5 -65 -149.5 -65c-47.333 0 -96.666 15.5 -147.999 46.5s-94 46.5 -128 46.5c-28 0 -51.833 -10.833 -71.5 -32.5s-29.5 -47.834 -29.5 -78.501l-107 26c0 62 19.5 115.833 58.5 161.5
s88.833 68.5 149.5 68.5c37.333 0 84 -15.667 140 -47s101.333 -47 136 -47c27.333 0 51 10.833 71 32.5s30 48.167 30 79.5z" />
    <glyph glyph-name="hungarumlaut" unicode="&#x2dd;" horiz-adv-x="924" 
d="M614 1518h228l3 -6l-299 -260h-171l-2 5zM288 1518h211l2 -5l-240 -261h-157z" />
    <glyph glyph-name="uni02F3" unicode="&#x2f3;" horiz-adv-x="446" 
d="M72 -235c0 43.333 15.168 79.166 45.501 107.499s67.5 42.5 111.5 42.5c42 0 78 -14.167 108 -42.5s45 -64.166 45 -107.499c0 -42.667 -14.833 -77.667 -44.5 -105s-65.834 -41 -108.501 -41c-44 0 -81.167 13.667 -111.5 41s-45.5 62.333 -45.5 105zM161.001 -235
c0 -17.333 6.66699 -32.501 20 -45.501s29.333 -19.5 48 -19.5c17.333 0 32.333 6.33301 45 19s19 28 19 46c0 20 -6.33301 36.5 -19 49.5s-27.667 19.5 -45 19.5c-18.667 0 -34.667 -6.66699 -48 -20s-20 -29.666 -20 -48.999z" />
    <glyph glyph-name="gravecomb" unicode="&#x300;" horiz-adv-x="511" 
d="M394 1210h-131l-176 348h185z" />
    <glyph glyph-name="acutecomb" unicode="&#x301;" horiz-adv-x="505" 
d="M244 1559h182l-188 -349h-120z" />
    <glyph glyph-name="tildecomb" unicode="&#x303;" horiz-adv-x="922" 
d="M-197 1491c0 -62.667 -19.834 -115.666 -59.501 -158.999s-89.5 -65 -149.5 -65c-47.333 0 -96.666 15.5 -147.999 46.5s-94 46.5 -128 46.5c-28 0 -51.833 -10.833 -71.5 -32.5s-29.5 -47.834 -29.5 -78.501l-107 26c0 62 19.5 115.833 58.5 161.5
s88.833 68.5 149.5 68.5c37.333 0 84 -15.667 140 -47s101.333 -47 136 -47c27.333 0 51 10.833 71 32.5s30 48.167 30 79.5z" />
    <glyph glyph-name="hook" unicode="&#x309;" horiz-adv-x="573" 
d="M154 1242l-1.00195 154c50.667 2.66699 86.834 9.16699 108.501 19.5s32.5 28.166 32.5 53.499c0 26 -14.667 45.333 -44 58s-67.666 19 -114.999 19l7 108c97.333 0 172.333 -17.167 225 -51.5s79 -80.166 79 -137.499c0 -46.667 -14.5 -82.167 -43.5 -106.5
s-64.833 -39.5 -107.5 -45.5l-1 -71h-140z" />
    <glyph glyph-name="uni030F" unicode="&#x30f;" horiz-adv-x="924" 
d="M558 1257l-2 -5h-171l-299 260l3 6h228zM827 1252h-157l-240 261l2 5h211z" />
    <glyph glyph-name="dotbelow" unicode="&#x323;" horiz-adv-x="387" 
d="M299 -337h-218v200h218v-200z" />
    <glyph glyph-name="tonos" unicode="&#x384;" horiz-adv-x="493" 
d="M196 1660h208l-175 -390h-93z" />
    <glyph glyph-name="dieresistonos" unicode="&#x385;" horiz-adv-x="1009" 
d="M858 1256h-198v200h198v-200zM349 1256h-198v200h198v-200zM472 1673h218l-126 -265h-142z" />
    <glyph glyph-name="Alphatonos" unicode="&#x386;" 
d="M55 126l108 15l509 1315h169l500 -1315l107 -15v-126h-418v126l110 19l-96 268h-583l-99 -268l110 -19v-126h-417v126zM522 578h462l-226 625h-6zM294 1660h208l-175 -390h-93z" />
    <glyph glyph-name="anoteleia" unicode="&#x387;" horiz-adv-x="516" 
d="M357 624h-198v212h198v-212z" />
    <glyph glyph-name="Epsilontonos" unicode="&#x388;" horiz-adv-x="1406" 
d="M171 0v126l163 28v1147l-163 28v127h1118v-350h-169l-16 195h-573v-471h557v-155h-557v-521h585l16 195h168v-349h-1129zM-48 1662h208l-175 -390h-93z" />
    <glyph glyph-name="Etatonos" unicode="&#x389;" horiz-adv-x="1673" 
d="M171 1329v127h523v-127l-163 -28v-503h706v503l-163 28v127h163h197h163v-127l-163 -28v-1147l163 -28v-126h-523v126l163 28v489h-706v-489l163 -28v-126h-523v126l163 28v1147zM-53 1662h208l-175 -390h-93z" />
    <glyph glyph-name="Iotatonos" unicode="&#x38a;" horiz-adv-x="762" 
d="M170 1329v127h523v-127l-163 -28v-1147l163 -28v-126h-523v126l163 28v1147zM-58 1661h208l-175 -390h-93z" />
    <glyph glyph-name="Omicrontonos" unicode="&#x38c;" horiz-adv-x="1465" 
d="M1388 717c0 -212 -60.833 -388 -182.5 -528s-279.167 -210 -472.5 -210c-188 0 -340.667 70 -458 210s-176 316 -176 528v21c0 211.333 58.667 387.333 176 528s270 211 458 211c193.333 0 350.833 -70.333 472.5 -211s182.5 -316.667 182.5 -528v-21zM1191 740
c0 169.333 -40.5 307.5 -121.5 414.5s-193.167 160.5 -336.5 160.5c-137.333 0 -244.5 -53.667 -321.5 -161s-115.5 -245.333 -115.5 -414v-23c0 -170.667 38.5 -309.5 115.5 -416.5s184.167 -160.5 321.5 -160.5c145.333 0 258 53.333 338 160s120 245.667 120 417v23z
M69 1660h208l-175 -390h-93z" />
    <glyph glyph-name="Upsilontonos" unicode="&#x38e;" horiz-adv-x="1516" 
d="M655 1329l-157 -19l305 -594l305 594l-156 19v127h500v-127l-123 -19l-432 -798v-358l163 -28v-126h-522v126l163 28v373l-424 783l-122 19v127h500v-127zM-80 1654h208l-175 -390h-93z" />
    <glyph glyph-name="Omegatonos" unicode="&#x38f;" horiz-adv-x="1374" 
d="M757 197c100.667 16.667 178.998 73.168 234.998 169.501s84 228.166 84 395.499v57c0 162 -34.167 286.333 -102.5 373s-162.166 130 -281.499 130s-212.833 -43.333 -280.5 -130s-101.5 -211 -101.5 -373v-57c0 -168 28.667 -300.167 86 -396.5s137 -152.5 239 -168.5
v-197h-496v154h275c-92 61.333 -165.167 147.666 -219.5 258.999s-81.5 227.666 -81.5 348.999v55c0 194.667 53.5 353.334 160.5 476.001s246.5 184 418.5 184s311.833 -61.333 419.5 -184s161.5 -281.334 161.5 -476.001v-55c0 -121.333 -27.167 -237.666 -81.5 -348.999
s-127.166 -197.666 -218.499 -258.999h281v-154h-497v197zM59.998 1660h208l-175 -390h-93z" />
    <glyph glyph-name="iotadieresistonos" unicode="&#x390;" horiz-adv-x="669" 
d="M392 268c0 -49.333 8.66602 -83.166 25.999 -101.499s41 -27.5 71 -27.5c16.667 0 33 2.33301 49 7s30.333 11 43 19l44 -133c-30.667 -20.667 -60.667 -34.667 -90 -42s-62 -11 -98 -11c-79.333 0 -139.666 23.667 -180.999 71s-62 123.666 -62 228.999v648l-163 28v127
h361v-814zM659.999 1217h-198v200h198v-200zM150.999 1217h-198v200h198v-200zM273.999 1634h218l-126 -265h-142z" />
    <glyph glyph-name="Alpha" unicode="&#x391;" 
d="M55 126l108 15l509 1315h169l500 -1315l107 -15v-126h-418v126l110 19l-96 268h-583l-99 -268l110 -19v-126h-417v126zM522 578h462l-226 625h-6z" />
    <glyph glyph-name="Beta" unicode="&#x392;" horiz-adv-x="1345" 
d="M709 1456c152 0 270.833 -32.835 356.5 -98.502s128.5 -164.167 128.5 -295.5c0 -64.667 -20.5 -122.5 -61.5 -173.5s-95.167 -88.833 -162.5 -113.5c87.333 -18.667 156.333 -61.667 207 -129s76 -145.666 76 -234.999c0 -133.333 -43.333 -235.166 -130 -305.499
s-204 -105.5 -352 -105.5h-700v126l163 28v1147l-163 28v127h163h475zM431 682.998v-528.999h340c90 0 159.833 22.167 209.5 66.5s74.5 107.166 74.5 188.499c0 85.333 -20.833 152.333 -62.5 201s-105.5 73 -191.5 73h-370zM431 836.999h328.998
c70.667 2 127.834 23 171.501 63s65.5 95.333 65.5 166c0 78.667 -24.667 137.5 -74 176.5s-120.666 58.5 -213.999 58.5h-278v-464z" />
    <glyph glyph-name="Gamma" unicode="&#x393;" horiz-adv-x="1216" 
d="M77 126l163 28v1147l-163 28v127h1056v-322h-169l-15 167h-512v-1147l163 -28v-126h-523v126z" />
    <glyph glyph-name="Delta" unicode="&#x394;" horiz-adv-x="1432" 
d="M647 1456h169l576 -1456h-1361zM295 154h837l-400 1050h-6z" />
    <glyph glyph-name="Delta" unicode="&#x2206;" horiz-adv-x="1432" 
d="M647 1456h169l576 -1456h-1361zM295 154h837l-400 1050h-6z" />
    <glyph glyph-name="Epsilon" unicode="&#x395;" horiz-adv-x="1306" 
d="M71 0v126l163 28v1147l-163 28v127h1118v-350h-169l-16 195h-573v-471h557v-155h-557v-521h585l16 195h168v-349h-1129z" />
    <glyph glyph-name="Zeta" unicode="&#x396;" horiz-adv-x="1220" 
d="M313 154h631l16 167h168v-321h-1036v146l777 1155h-584l-14 -167h-169v322h993v-141z" />
    <glyph glyph-name="Eta" unicode="&#x397;" horiz-adv-x="1573" 
d="M71 1329v127h523v-127l-163 -28v-503h706v503l-163 28v127h163h197h163v-127l-163 -28v-1147l163 -28v-126h-523v126l163 28v489h-706v-489l163 -28v-126h-523v126l163 28v1147z" />
    <glyph glyph-name="Theta" unicode="&#x398;" horiz-adv-x="1403" 
d="M959 659h-509v154h509v-154zM1368 717c0 -212 -60.833 -388 -182.5 -528s-279.167 -210 -472.5 -210c-188 0 -340.667 70 -458 210s-176 316 -176 528v21c0 211.333 58.667 387.333 176 528s270 211 458 211c193.333 0 350.833 -70.333 472.5 -211
s182.5 -316.667 182.5 -528v-21zM1171 740c0 169.333 -40.5 307.5 -121.5 414.5s-193.167 160.5 -336.5 160.5c-137.333 0 -244.5 -53.667 -321.5 -161s-115.5 -245.333 -115.5 -414v-23c0 -170.667 38.5 -309.5 115.5 -416.5s184.167 -160.5 321.5 -160.5
c145.333 0 258 53.333 338 160s120 245.667 120 417v23z" />
    <glyph glyph-name="Iota" unicode="&#x399;" horiz-adv-x="662" 
d="M70 1329v127h523v-127l-163 -28v-1147l163 -28v-126h-523v126l163 28v1147z" />
    <glyph glyph-name="Kappa" unicode="&#x39a;" horiz-adv-x="1452" 
d="M71 126l163 28v1147l-163 28v127h523v-127l-163 -28v-489h151l407 503l-109 14v127h462v-127l-137 -25l-445 -552l486 -601l137 -25v-126h-478v126l111 14l-415 517h-170v-503l163 -28v-126h-523v126z" />
    <glyph glyph-name="Lambda" unicode="&#x39b;" horiz-adv-x="1450" 
d="M52 126l105 15l482 1315h170l482 -1315l106 -15v-126h-418v126l111 19l-363 1026h-6l-364 -1026l112 -19v-126h-417v126z" />
    <glyph glyph-name="Mu" unicode="&#x39c;" horiz-adv-x="1905" 
d="M1494 1166l-5 1l-471 -1167h-131l-471 1166l-5 -1l20 -589v-422l163 -28v-126h-523v126l163 28v1147l-163 28v127h163h252l464 -1183h6l463 1183h416v-127l-163 -28v-1147l163 -28v-126h-523v126l163 28v422z" />
    <glyph glyph-name="Nu" unicode="&#x39d;" horiz-adv-x="1560" 
d="M1497 1456v-127l-163 -28v-1301h-197l-700 1124l-6 -2v-968l163 -28v-126h-523v126l163 28v1147l-163 28v127h163h197l700 -1123l6 2v966l-163 28v127h360h163z" />
    <glyph glyph-name="Xi" unicode="&#x39e;" horiz-adv-x="1179" 
d="M66 321h168l15 -167h690l16 167h167v-321h-1056v321zM1111 1456v-322h-169l-15 167h-677l-15 -167h-169v322h1045zM278 833h623v-155h-623v155z" />
    <glyph glyph-name="Omicron" unicode="&#x39f;" horiz-adv-x="1445" 
d="M1368 717c0 -212 -60.833 -388 -182.5 -528s-279.167 -210 -472.5 -210c-188 0 -340.667 70 -458 210s-176 316 -176 528v21c0 211.333 58.667 387.333 176 528s270 211 458 211c193.333 0 350.833 -70.333 472.5 -211s182.5 -316.667 182.5 -528v-21zM1171 740
c0 169.333 -40.5 307.5 -121.5 414.5s-193.167 160.5 -336.5 160.5c-137.333 0 -244.5 -53.667 -321.5 -161s-115.5 -245.333 -115.5 -414v-23c0 -170.667 38.5 -309.5 115.5 -416.5s184.167 -160.5 321.5 -160.5c145.333 0 258 53.333 338 160s120 245.667 120 417v23z" />
    <glyph glyph-name="Pi" unicode="&#x3a0;" horiz-adv-x="1576" 
d="M77 126l163 28v1147l-163 28v127h1428v-127l-163 -28v-1147l163 -28v-126h-523v126l163 28v1147h-708v-1147l163 -28v-126h-523v126z" />
    <glyph glyph-name="Rho" unicode="&#x3a1;" horiz-adv-x="1301" 
d="M740 1456c155.333 0 276.166 -40 362.499 -120s129.5 -185.333 129.5 -316c0 -132 -43.167 -237.667 -129.5 -317s-207.166 -119 -362.499 -119h-309v-430l163 -28v-126h-523v126l163 28v1147l-163 28v127h163h506zM431 738h309c98.667 0 172.5 26.5 221.5 79.5
s73.5 119.833 73.5 200.5s-24.5 148 -73.5 202s-122.833 81 -221.5 81h-309v-563z" />
    <glyph glyph-name="Sigma" unicode="&#x3a3;" horiz-adv-x="1181" 
d="M767 715l-446 -555l3 -5h597l15 167h168v-322h-1025v147l479 581l-479 581v147h976v-322h-169l-15 167h-547l-3 -5l446 -557v-24z" />
    <glyph glyph-name="Tau" unicode="&#x3a4;" horiz-adv-x="1284" 
d="M1247 1456v-322h-168l-15 167h-323v-1147l163 -28v-126h-523v126l163 28v1147h-324l-14 -167h-169v322h1210z" />
    <glyph glyph-name="Upsilon" unicode="&#x3a5;" horiz-adv-x="1416" 
d="M555 1329l-157 -19l305 -594l305 594l-156 19v127h500v-127l-123 -19l-432 -798v-358l163 -28v-126h-522v126l163 28v373l-424 783l-122 19v127h500v-127z" />
    <glyph glyph-name="Phi" unicode="&#x3a6;" horiz-adv-x="1471" 
d="M629 213c-157.333 0 -288.331 47.499 -392.998 142.499s-157 217.167 -157 366.5c0 148.667 52.333 270.834 157 366.501s235.667 143.5 393 143.5h8v69l-163 28v127h163h360v-127l-163 -28v-69h6c157.333 0 288.666 -47.5 393.999 -142.5s158 -216.833 158 -365.5
c0 -149.333 -52.833 -271.833 -158.5 -367.5s-236.834 -143.5 -393.501 -143.5h-6v-59l163 -28v-126h-523v126l163 28v59h-8zM629.002 1078c-113.333 0 -200.833 -32 -262.5 -96s-92.5 -150.667 -92.5 -260c0 -110 30.667 -196.5 92 -259.5s149 -94.5 263 -94.5h8v710h-8z
M834.002 1078v-710.001h8c112 0 199 31.833 261 95.5s93 150.5 93 260.5c0 108.667 -31 194.834 -93 258.501s-149 95.5 -261 95.5h-8z" />
    <glyph glyph-name="Chi" unicode="&#x3a7;" horiz-adv-x="1404" 
d="M43 126l131 22l414 586l-404 573l-131 22v127h472v-127l-117 -13l291 -437l294 437l-117 13v127h475v-127l-131 -22l-404 -573l413 -586l132 -22v-126h-471v126l115 13l-302 448l-303 -448l117 -13v-126h-474v126z" />
    <glyph glyph-name="Psi" unicode="&#x3a8;" horiz-adv-x="1665" 
d="M1080 1456l-0.000976562 -127l-163 -28v-776l6 -2c96 12.667 172.833 54 230.5 124s86.5 162.667 86.5 278v531h360v-127l-163 -28v-376c0 -163.333 -47.667 -294.5 -143 -393.5s-221 -156.5 -377 -172.5v-205l163 -28v-126h-523v126l163 28v206
c-152 16 -273.667 73.333 -365 172s-137 229.667 -137 393v376l-163 28v127h163h196v-531c0 -113.333 27.333 -205 82 -275s127.334 -111.667 218.001 -125l6 1v775l-163 28v127h360h163z" />
    <glyph glyph-name="Omega" unicode="&#x3a9;" horiz-adv-x="1354" 
d="M737 197c100.667 16.667 178.998 73.168 234.998 169.501s84 228.166 84 395.499v57c0 162 -34.167 286.333 -102.5 373s-162.166 130 -281.499 130s-212.833 -43.333 -280.5 -130s-101.5 -211 -101.5 -373v-57c0 -168 28.667 -300.167 86 -396.5s137 -152.5 239 -168.5
v-197h-496v154h275c-92 61.333 -165.167 147.666 -219.5 258.999s-81.5 227.666 -81.5 348.999v55c0 194.667 53.5 353.334 160.5 476.001s246.5 184 418.5 184s311.833 -61.333 419.5 -184s161.5 -281.334 161.5 -476.001v-55c0 -121.333 -27.167 -237.666 -81.5 -348.999
s-127.166 -197.666 -218.499 -258.999h281v-154h-497v197z" />
    <glyph glyph-name="Omega" unicode="&#x2126;" horiz-adv-x="1354" 
d="M737 197c100.667 16.667 178.998 73.168 234.998 169.501s84 228.166 84 395.499v57c0 162 -34.167 286.333 -102.5 373s-162.166 130 -281.499 130s-212.833 -43.333 -280.5 -130s-101.5 -211 -101.5 -373v-57c0 -168 28.667 -300.167 86 -396.5s137 -152.5 239 -168.5
v-197h-496v154h275c-92 61.333 -165.167 147.666 -219.5 258.999s-81.5 227.666 -81.5 348.999v55c0 194.667 53.5 353.334 160.5 476.001s246.5 184 418.5 184s311.833 -61.333 419.5 -184s161.5 -281.334 161.5 -476.001v-55c0 -121.333 -27.167 -237.666 -81.5 -348.999
s-127.166 -197.666 -218.499 -258.999h281v-154h-497v197z" />
    <glyph glyph-name="Iotadieresis" unicode="&#x3aa;" horiz-adv-x="662" 
d="M70 1329v127h523v-127l-163 -28v-1147l163 -28v-126h-523v126l163 28v1147zM664 1603h-218v200h218v-200zM194 1603h-218v200h218v-200z" />
    <glyph glyph-name="Upsilondieresis" unicode="&#x3ab;" horiz-adv-x="1416" 
d="M555 1329l-157 -19l305 -594l305 594l-156 19v127h500v-127l-123 -19l-432 -798v-358l163 -28v-126h-522v126l163 28v373l-424 783l-122 19v127h500v-127zM1025 1604h-218v200h218v-200zM555 1604h-218v200h218v-200z" />
    <glyph glyph-name="alphatonos" unicode="&#x3ac;" horiz-adv-x="1208" 
d="M1017 1082l0.000976562 -786.001c0 -56 6.66699 -94.667 20 -116s32 -32 56 -32c5.33301 0 10.833 0.5 16.5 1.5s10.5 2.5 14.5 4.5l24 -141c-20 -13.333 -40 -22.333 -60 -27s-42.333 -7 -67 -7c-47.333 0 -86.333 12.5 -117 37.5s-53 64.833 -67 119.5
c-35.333 -52 -78.833 -91.167 -130.5 -117.5s-112.167 -39.5 -181.5 -39.5c-132 0 -235.167 47.833 -309.5 143.5s-111.5 221.5 -111.5 377.5v21c0 174 37.167 314.333 111.5 421s178.166 160 311.499 160c66.667 0 125.5 -13.167 176.5 -39.5
s94.167 -64.166 129.5 -113.499l17 133h167zM301.001 499.999c0 -110 22.334 -198.668 67.001 -266.001s113.667 -101 207 -101c58 0 106.833 15.333 146.5 46s72.5 74 98.5 130v460c-26.667 55.333 -59.834 98.833 -99.501 130.5s-87.5 47.5 -143.5 47.5
c-94 0 -163.5 -39.667 -208.5 -119s-67.5 -181.666 -67.5 -306.999v-21zM592.002 1645h208l-175 -390h-93z" />
    <glyph glyph-name="epsilontonos" unicode="&#x3ad;" horiz-adv-x="1097" 
d="M105 305c0 60.667 17.001 112.33 51.001 154.997s84 74.667 150 96c-57.333 23.333 -102 55.333 -134 96s-48 85.334 -48 134.001c0 100.667 38.667 178.167 116 232.5s183.333 81.5 318 81.5c122 0 224.5 -29.167 307.5 -87.5s122.833 -133.833 119.5 -226.5l-2 -6h-186
c0 46.667 -23.167 86.334 -69.5 119.001s-102.833 49 -169.5 49c-77.333 0 -136.166 -15.833 -176.499 -47.5s-60.5 -69.834 -60.5 -114.501c0 -49.333 18 -88.166 54 -116.499s92.333 -42.5 169 -42.5h210v-150h-210c-80 0 -140.167 -14.167 -180.5 -42.5
s-60.5 -71.5 -60.5 -129.5c0 -48.667 22.833 -89.667 68.5 -123s107.834 -50 186.501 -50c74.667 0 136.167 18.667 184.5 56s72.5 81.333 72.5 132h186l2 -6c3.33301 -108 -39.334 -190.5 -128.001 -247.5s-194.334 -85.5 -317.001 -85.5
c-134.667 0 -243.834 28.833 -327.501 86.5s-125.5 136.834 -125.5 237.501zM547.001 1647h208l-175 -390h-93z" />
    <glyph glyph-name="etatonos" unicode="&#x3ae;" horiz-adv-x="1208" 
d="M198 0l0.000976562 820.999c0 38 -6.66699 64.333 -20 79s-31.333 22 -54 22c-13.333 0 -28.5 -2.5 -45.5 -7.5s-29.833 -9.5 -38.5 -13.5l-44 141c27.333 18.667 58.333 33.334 93 44.001s69.667 16 105 16c54.667 0 98.667 -13.333 132 -40s54.666 -68.667 63.999 -126
c36 52.667 80.5 93.5 133.5 122.5s112.5 43.5 178.5 43.5c118 0 208.5 -32.5 271.5 -97.5s94.5 -172.167 94.5 -321.5v-1098h-197v1094c0 95.333 -19 163.833 -57 205.5s-95.667 62.5 -173 62.5c-56.667 0 -105.5 -11.167 -146.5 -33.5s-74.167 -53.5 -99.5 -93.5v-820h-197
zM622.001 1645h208l-175 -390h-93z" />
    <glyph glyph-name="iotatonos" unicode="&#x3af;" horiz-adv-x="669" 
d="M392 268c0 -49.333 8.66602 -83.166 25.999 -101.499s41 -27.5 71 -27.5c16.667 0 33 2.33301 49 7s30.333 11 43 19l44 -133c-30.667 -20.667 -60.667 -34.667 -90 -42s-62 -11 -98 -11c-79.333 0 -139.666 23.667 -180.999 71s-62 123.666 -62 228.999v648l-163 28v127
h361v-814zM299.999 1644h208l-175 -390h-93z" />
    <glyph glyph-name="upsilondieresistonos" unicode="&#x3b0;" horiz-adv-x="1220" 
d="M426 427c0 -102 17.332 -176.503 51.999 -223.503s82 -70.5 142 -70.5c89.333 0 160.333 43.667 213 131s79 187 79 299c-2 84 -14 168.833 -36 254.5s-51.333 173.834 -88 264.501h206c34 -70.667 61.667 -149 83 -235s32 -180.667 32 -284
c0 -165.333 -41 -304 -123 -416s-200.667 -168 -356 -168c-128 0 -226.833 36.833 -296.5 110.5s-104.5 186.834 -104.5 339.501v392c0 38.667 -6.66699 65.167 -20 79.5s-31.666 21.5 -54.999 21.5c-13.333 0 -28.5 -2.5 -45.5 -7.5s-29.833 -9.5 -38.5 -13.5l-45 141
c28 18.667 59.5 33.334 94.5 44.001s69.833 16 104.5 16c65.333 0 115.333 -18.667 150 -56s52 -97 52 -179v-440zM949.999 1217h-198v200h198v-200zM440.999 1217h-198v200h198v-200zM563.999 1634h218l-126 -265h-142z" />
    <glyph glyph-name="alpha" unicode="&#x3b1;" horiz-adv-x="1208" 
d="M1017 1082l0.000976562 -786.001c0 -56 6.66699 -94.667 20 -116s32 -32 56 -32c5.33301 0 10.833 0.5 16.5 1.5s10.5 2.5 14.5 4.5l24 -141c-20 -13.333 -40 -22.333 -60 -27s-42.333 -7 -67 -7c-47.333 0 -86.333 12.5 -117 37.5s-53 64.833 -67 119.5
c-35.333 -52 -78.833 -91.167 -130.5 -117.5s-112.167 -39.5 -181.5 -39.5c-132 0 -235.167 47.833 -309.5 143.5s-111.5 221.5 -111.5 377.5v21c0 174 37.167 314.333 111.5 421s178.166 160 311.499 160c66.667 0 125.5 -13.167 176.5 -39.5
s94.167 -64.166 129.5 -113.499l17 133h167zM301.001 499.999c0 -110 22.334 -198.668 67.001 -266.001s113.667 -101 207 -101c58 0 106.833 15.333 146.5 46s72.5 74 98.5 130v460c-26.667 55.333 -59.834 98.833 -99.501 130.5s-87.5 47.5 -143.5 47.5
c-94 0 -163.5 -39.667 -208.5 -119s-67.5 -181.666 -67.5 -306.999v-21z" />
    <glyph glyph-name="beta" unicode="&#x3b2;" horiz-adv-x="1172" 
d="M592 1477c130 0 234.333 -36.667 313 -110s118 -168 118 -284c0 -60.667 -16.5 -116.334 -49.5 -167.001s-78.5 -91.334 -136.5 -122.001c79.333 -29.333 141 -76.666 185 -141.999s66 -141 66 -227c0 -139.333 -42.167 -248.5 -126.5 -327.5
s-193.833 -118.5 -328.5 -118.5c-54.667 0 -107.5 7.33301 -158.5 22s-95.833 37.334 -134.5 68.001v-452h-197v1456c0 110.667 44.167 205.667 132.5 285s193.833 119 316.5 119zM588 860c81.333 0 141.333 20.1689 180 60.502s58 95.833 58 166.5
c0 63.333 -20.833 118.333 -62.5 165s-98.834 70 -171.501 70c-71.333 0 -131.166 -23.833 -179.499 -71.5s-72.5 -106.834 -72.5 -177.501v-831c29.333 -34 67.5 -60.667 114.5 -80s99.833 -29 158.5 -29c86 0 153.833 26.667 203.5 80s74.5 122.666 74.5 207.999
c0 74.667 -21.833 140.667 -65.5 198s-102.5 86 -176.5 86h-143v155h82z" />
    <glyph glyph-name="gamma" unicode="&#x3b3;" horiz-adv-x="1086" 
d="M1063 955l-86 -13.999l-324 -881v-476h-197v467l-287 813c-9.33301 26 -19.5 42.833 -30.5 50.5s-27.5 11.5 -49.5 11.5c-6 0 -11 -0.333008 -15 -1l-36 -6l-18 149c16.667 7.33301 38.167 13.5 64.5 18.5s49.833 7.5 70.5 7.5c48 0 84 -9.33301 108 -28
s45.333 -56.334 64 -113.001l208 -634l17 -84h6l21 84l201 615l-135 21v127h418v-127z" />
    <glyph glyph-name="delta" unicode="&#x3b4;" horiz-adv-x="1164" 
d="M221 1268c0 91.333 33.6709 163.502 101.004 216.502s160.666 79.5 279.999 79.5c50 0 101.333 -7.66699 154 -23s105.667 -36 159 -62l-44 -133c-38 14.667 -81.333 28.167 -130 40.5s-96.334 18.5 -143.001 18.5c-55.333 0 -98.833 -12.167 -130.5 -36.5
s-47.5 -56.5 -47.5 -96.5c0 -31.333 16.167 -62.833 48.5 -94.5s90.5 -61.834 174.5 -90.501c141.333 -49.333 247.166 -120.5 317.499 -213.5s105.5 -207.5 105.5 -343.5v-21c0 -154.667 -43.333 -281.5 -130 -380.5s-204.334 -148.5 -353.001 -148.5
c-150 0 -268.5 49.5 -355.5 148.5s-130.5 225.833 -130.5 380.5v21c0 114 30.833 213 92.5 297s138.5 137.333 230.5 160l4 11c-64 25.333 -113.833 61.666 -149.5 108.999s-53.5 101 -53.5 161zM295.004 509.002c0 -109.333 24.333 -199.334 73 -270.001
s120.334 -106 215.001 -106c93.333 0 164.166 35.333 212.499 106s72.5 160.667 72.5 270v21c0 87.333 -26.5 167.833 -79.5 241.5s-121.5 118.834 -205.5 135.501c-94 0 -165.5 -35.833 -214.5 -107.5s-73.5 -161.5 -73.5 -269.5v-21z" />
    <glyph glyph-name="epsilon" unicode="&#x3b5;" horiz-adv-x="1097" 
d="M105 305c0 60.667 17.001 112.33 51.001 154.997s84 74.667 150 96c-57.333 23.333 -102 55.333 -134 96s-48 85.334 -48 134.001c0 100.667 38.667 178.167 116 232.5s183.333 81.5 318 81.5c122 0 224.5 -29.167 307.5 -87.5s122.833 -133.833 119.5 -226.5l-2 -6h-186
c0 46.667 -23.167 86.334 -69.5 119.001s-102.833 49 -169.5 49c-77.333 0 -136.166 -15.833 -176.499 -47.5s-60.5 -69.834 -60.5 -114.501c0 -49.333 18 -88.166 54 -116.499s92.333 -42.5 169 -42.5h210v-150h-210c-80 0 -140.167 -14.167 -180.5 -42.5
s-60.5 -71.5 -60.5 -129.5c0 -48.667 22.833 -89.667 68.5 -123s107.834 -50 186.501 -50c74.667 0 136.167 18.667 184.5 56s72.5 81.333 72.5 132h186l2 -6c3.33301 -108 -39.334 -190.5 -128.001 -247.5s-194.334 -85.5 -317.001 -85.5
c-134.667 0 -243.834 28.833 -327.501 86.5s-125.5 136.834 -125.5 237.501z" />
    <glyph glyph-name="zeta" unicode="&#x3b6;" horiz-adv-x="1070" 
d="M970 1456v-122.998l-342 -421c-86 -102 -147.833 -190.833 -185.5 -266.5s-56.5 -161.834 -56.5 -258.501c0 -64.667 10.833 -113.5 32.5 -146.5s58.5 -55.167 110.5 -66.5l133 -38c102 -30 171.333 -56.5 208 -79.5s55 -70.5 55 -142.5
c-1.33301 -48 -20.833 -100.833 -58.5 -158.5s-77.5 -103.834 -119.5 -138.501l-104 86c32.667 38 56.5 70.833 71.5 98.5s22.5 55.167 22.5 82.5c0 23.333 -12 43.5 -36 60.5s-62.667 32.5 -116 46.5l-90 23c-114 30 -193.5 72.333 -238.5 127s-67.5 135 -67.5 241
c0 80 23.167 173.5 69.5 280.5s117.5 216.833 213.5 329.5l268 304l-2 5h-623v155h855z" />
    <glyph glyph-name="eta" unicode="&#x3b7;" horiz-adv-x="1208" 
d="M198 0l0.000976562 820.999c0 38 -6.66699 64.333 -20 79s-31.333 22 -54 22c-13.333 0 -28.5 -2.5 -45.5 -7.5s-29.833 -9.5 -38.5 -13.5l-44 141c27.333 18.667 58.333 33.334 93 44.001s69.667 16 105 16c54.667 0 98.667 -13.333 132 -40s54.666 -68.667 63.999 -126
c36 52.667 80.5 93.5 133.5 122.5s112.5 43.5 178.5 43.5c118 0 208.5 -32.5 271.5 -97.5s94.5 -172.167 94.5 -321.5v-1098h-197v1094c0 95.333 -19 163.833 -57 205.5s-95.667 62.5 -173 62.5c-56.667 0 -105.5 -11.167 -146.5 -33.5s-74.167 -53.5 -99.5 -93.5v-820h-197
z" />
    <glyph glyph-name="theta" unicode="&#x3b8;" horiz-adv-x="1162" 
d="M1054 555c0 -186 -41.333 -328.499 -124 -427.499s-195.667 -148.5 -339 -148.5c-142.667 0 -255.667 49.667 -339 149s-125 241.666 -125 426.999v345c0 185.333 41.333 327.833 124 427.5s195.334 149.5 338.001 149.5c143.333 0 256.666 -49.833 339.999 -149.5
s125 -242.167 125 -427.5v-345zM324 803.001h533v139c0 126 -22.833 220.833 -68.5 284.5s-112.167 95.5 -199.5 95.5c-86 0 -151.667 -31.833 -197 -95.5s-68 -158.5 -68 -284.5v-139zM857 648.001h-533v-133c0 -126 23 -221.167 69 -285.5s112 -96.5 198 -96.5
c87.333 0 153.5 32 198.5 96s67.5 159.333 67.5 286v133z" />
    <glyph glyph-name="iota" unicode="&#x3b9;" horiz-adv-x="669" 
d="M392 268c0 -49.333 8.66602 -83.166 25.999 -101.499s41 -27.5 71 -27.5c16.667 0 33 2.33301 49 7s30.333 11 43 19l44 -133c-30.667 -20.667 -60.667 -34.667 -90 -42s-62 -11 -98 -11c-79.333 0 -139.666 23.667 -180.999 71s-62 123.666 -62 228.999v648l-163 28v127
h361v-814z" />
    <glyph glyph-name="kappa" unicode="&#x3ba;" horiz-adv-x="1257" 
d="M62 126l163 28v773l-154 28v126h351v-425h126l252 287l-90 12v127h452v-127l-132 -26l-311 -343l344 -436l123 -24v-126h-237l-398 499h-129v-345l163 -28v-126h-523v126z" />
    <glyph glyph-name="lambda" unicode="&#x3bb;" horiz-adv-x="1135" 
d="M253 0l-217.999 -0.000976562l389 1026l-99 239c-14.667 36 -30.5 61.333 -47.5 76s-39.167 22 -66.5 22c-6 0 -13.833 -0.333008 -23.5 -1s-17.5 -1 -23.5 -1l-1 145c11.333 2.66699 29.666 5.33398 54.999 8.00098s46.666 4 63.999 4c64.667 0 113.167 -13 145.5 -39
s57.833 -67.333 76.5 -124l441 -1119c12 -32.667 25.167 -55.667 39.5 -69s32.833 -20 55.5 -20h20.5c5.66699 0 10.834 0.666992 15.501 2l6 -154c-10 -2.66699 -22.167 -5.33398 -36.5 -8.00098s-28.5 -4 -42.5 -4c-65.333 0 -115.5 12.833 -150.5 38.5
s-68.167 80.834 -99.5 165.501l-234 600l-6 -1l-30 -116z" />
    <glyph glyph-name="uni03BC" unicode="&#x3bc;" horiz-adv-x="1315" 
d="M900 109c-29.333 -42.667 -65.334 -74.999 -108.001 -96.999s-91.667 -33 -147 -33c-48 0 -90 5.5 -126 16.5s-67.333 28.167 -94 51.5v-463h-196v1343l-163 28v127h163h196v-622c0 -126 18.333 -212 55 -258s89 -69 157 -69c66 0 119.333 12.167 160 36.5
s71.334 60.166 92.001 107.499v650l-163 28v127h360v-928l163 -28v-126h-340z" />
    <glyph glyph-name="nu" unicode="&#x3bd;" horiz-adv-x="1143" 
d="M460 955l-130 -20l223 -616l18 -78h6l19 78l216 616l-131 20v127h418v-127l-89 -15l-363 -940h-149l-367 940l-89 15v127h418v-127z" />
    <glyph glyph-name="xi" unicode="&#x3be;" horiz-adv-x="1004" 
d="M878 1285c-41.333 11.333 -79.998 20.168 -115.998 26.501s-72 9.5 -108 9.5c-97.333 0 -170.833 -17.833 -220.5 -53.5s-74.5 -79.5 -74.5 -131.5c0 -68.667 25.667 -122.167 77 -160.5s131.666 -57.5 240.999 -57.5h143v-155h-143
c-125.333 0 -220.333 -26.333 -285 -79s-97 -132.667 -97 -240c0 -82 25.667 -148 77 -198s115 -83.667 191 -101l113 -24c96 -22.667 164 -46.667 204 -72s60 -74.666 60 -147.999c-1.33301 -48 -20.833 -100.333 -58.5 -157s-77.834 -102.667 -120.501 -138l-103 86
c36.667 42.667 61.5 75.167 74.5 97.5s19.5 51.166 19.5 86.499c0 28 -11.667 49.167 -35 63.5s-63 27.5 -119 39.5l-56 13c-148 34 -259 83.667 -333 149s-111 167.666 -111 306.999c0 98 27.5 180.333 82.5 247s131.833 115.667 230.5 147c-78 28 -139 67.5 -183 118.5
s-66 108.167 -66 171.5c0 107.333 44 191.333 132 252s207.333 91 358 91c44.667 0 90.5 -3.66699 137.5 -11s86.167 -16.333 117.5 -27z" />
    <glyph glyph-name="omicron" unicode="&#x3bf;" horiz-adv-x="1149" 
d="M90 551c0 160 43.333 291.833 130 395.5s204.334 155.5 353.001 155.5c149.333 0 267.5 -51.667 354.5 -155s130.5 -235.333 130.5 -396v-22c0 -161.333 -43.333 -293.333 -130 -396s-204.334 -154 -353.001 -154c-150 0 -268.333 51.5 -355 154.5
s-130 234.833 -130 395.5v22zM287 529c0 -114.667 24.1689 -209.334 72.502 -284.001s120.166 -112 215.499 -112c93.333 0 164.333 37.333 213 112s73 169.334 73 284.001v22c0 113.333 -24.333 207.666 -73 282.999s-120.334 113 -215.001 113s-166 -37.667 -214 -113
s-72 -169.666 -72 -282.999v-22z" />
    <glyph glyph-name="pi" unicode="&#x3c0;" horiz-adv-x="1281" 
d="M1114 926h-164.001v-658c0 -49.333 8.66699 -83.166 26 -101.499s41 -27.5 71 -27.5c16.667 0 33 2.33301 49 7s30.333 11 43 19l44 -133c-30.667 -20.667 -60.667 -34.667 -90 -42s-62 -11 -98 -11c-79.333 0 -139.666 23.667 -180.999 71s-62 123.666 -62 228.999v647
h-353v-926h-197v926h-127v156h1039v-156z" />
    </font>
</defs>
</svg>
